  0
SECTION
  2
HEADER
  9
$ANGBASE
  50
0.0
  9
$ANGDIR
  70
1
  9
$MEASUREMENT
  70
1
  0
ENDSEC
  0
SECTION
  2
TABLES
  0
TABLE
  2
LTYPE
  70
4
  0
LTYPE
  5
40F
  2
CONTINUOUS
  70
0
  3
Solid line
  72
65
  73
0
  40
0.0
  0
LTYPE
  5
410
  2
DASHDOT
 70
0
  3
Dash Dot ____ _ ____ _
 72
65
 73
4
 40
2.0
 49
1.25
 49
-0.25
 49
0.25
 49
-0.25
  0
LTYPE
  5
411
  2
DASHED
 70
0
  3
Dashed __ __ __ __ __
 72
65
 73
2
 40
0.75
 49
0.5
 49
-0.25
  0
LTYPE
  5
43B
  2
DOTTED
 70
0
  3
Dotted .  .  .  .
 72
65
 73
2
 40
0.2
 49
0.0
 49
-0.2
  0
ENDTAB
  0
TABLE
  2
STYLE
  70
4
  0
STYLE
  2
KICAD
  70
0
  40
0
  41
1
  42
1
  50
0
  71
0
  3
isocp.shx
  0
STYLE
  2
KICADB
  70
0
  40
0
  41
1
  42
1
  50
0
  71
0
  3
isocp.shx
  0
STYLE
  2
KICADI
  70
0
  40
0
  41
1
  42
1
  50
15
  71
0
  3
isocp.shx
  0
STYLE
  2
KICADBI
  70
0
  40
0
  41
1
  42
1
  50
15
  71
0
  3
isocp.shx
  0
ENDTAB
  0
TABLE
  2
LAYER
  70
1
  0
LAYER
  2
BLACK
  70
0
  62
7
  6
CONTINUOUS
  0
ENDTAB
  0
ENDSEC
  0
SECTION
  2
ENTITIES
0
LINE
8
BLACK
6
CONTINUOUS
10
129.5
20
-51.4749999999999943
11
130.0666839999999809
21
-51.4928090000000012
0
LINE
8
BLACK
6
CONTINUOUS
10
130.0666839999999809
20
-51.4928090000000012
11
130.631132000000008
21
-51.5461649999999949
0
LINE
8
BLACK
6
CONTINUOUS
10
130.631132000000008
20
-51.5461649999999949
11
131.1911159999999938
21
-51.6348579999999941
0
LINE
8
BLACK
6
CONTINUOUS
10
131.1911159999999938
20
-51.6348579999999941
11
131.7444260000000043
21
-51.7585369999999969
0
LINE
8
BLACK
6
CONTINUOUS
10
131.7444260000000043
20
-51.7585369999999969
11
132.2888779999999826
21
-51.9167149999999964
0
LINE
8
BLACK
6
CONTINUOUS
10
132.2888779999999826
20
-51.9167149999999964
11
132.8223239999999805
21
-52.1087670000000003
0
LINE
8
BLACK
6
CONTINUOUS
10
132.8223239999999805
20
-52.1087670000000003
11
133.3426580000000001
21
-52.3339359999999942
0
LINE
8
BLACK
6
CONTINUOUS
10
133.3426580000000001
20
-52.3339359999999942
11
133.8478269999999952
21
-52.5913319999999942
0
LINE
8
BLACK
6
CONTINUOUS
10
133.8478269999999952
20
-52.5913319999999942
11
134.3358369999999979
21
-52.8799399999999977
0
LINE
8
BLACK
6
CONTINUOUS
10
134.3358369999999979
20
-52.8799399999999977
11
134.8047619999999824
21
-53.1986220000000003
0
LINE
8
BLACK
6
CONTINUOUS
10
134.8047619999999824
20
-53.1986220000000003
11
135.2527519999999868
21
-53.5461179999999999
0
LINE
8
BLACK
6
CONTINUOUS
10
135.2527519999999868
20
-53.5461179999999999
11
135.6780379999999866
21
-53.921057999999995
0
LINE
8
BLACK
6
CONTINUOUS
10
135.6780379999999866
20
-53.921057999999995
11
136.0789419999999836
21
-54.3219619999999992
0
LINE
8
BLACK
6
CONTINUOUS
10
136.0789419999999836
20
-54.3219619999999992
11
136.453881999999993
21
-54.747247999999999
0
LINE
8
BLACK
6
CONTINUOUS
10
136.453881999999993
20
-54.747247999999999
11
136.8013779999999997
21
-55.1952379999999962
0
LINE
8
BLACK
6
CONTINUOUS
10
136.8013779999999997
20
-55.1952379999999962
11
137.1200599999999952
21
-55.664162999999995
0
LINE
8
BLACK
6
CONTINUOUS
10
137.1200599999999952
20
-55.664162999999995
11
137.4086680000000058
21
-56.1521729999999977
0
LINE
8
BLACK
6
CONTINUOUS
10
137.4086680000000058
20
-56.1521729999999977
11
137.6660640000000058
21
-56.6573419999999999
0
LINE
8
BLACK
6
CONTINUOUS
10
137.6660640000000058
20
-56.6573419999999999
11
137.8912329999999997
21
-57.1776759999999982
0
LINE
8
BLACK
6
CONTINUOUS
10
137.8912329999999997
20
-57.1776759999999982
11
138.0832849999999894
21
-57.711121999999996
0
LINE
8
BLACK
6
CONTINUOUS
10
138.0832849999999894
20
-57.711121999999996
11
138.2414629999999818
21
-58.2555739999999957
0
LINE
8
BLACK
6
CONTINUOUS
10
138.2414629999999818
20
-58.2555739999999957
11
138.3651419999999916
21
-58.808883999999999
0
LINE
8
BLACK
6
CONTINUOUS
10
138.3651419999999916
20
-58.808883999999999
11
138.453834999999998
21
-59.3688679999999991
0
LINE
8
BLACK
6
CONTINUOUS
10
138.453834999999998
20
-59.3688679999999991
11
138.5071910000000059
21
-59.9333159999999978
0
LINE
8
BLACK
6
CONTINUOUS
10
138.5071910000000059
20
-59.9333159999999978
11
138.5250000000000057
21
-60.5
0
LINE
8
BLACK
6
CONTINUOUS
10
138.5250000000000057
20
-60.5
11
138.5250000000000057
21
-132.5
0
LINE
8
BLACK
6
CONTINUOUS
10
138.5250000000000057
20
-132.5
11
138.5071910000000059
21
-133.0666839999999809
0
LINE
8
BLACK
6
CONTINUOUS
10
138.5071910000000059
20
-133.0666839999999809
11
138.453834999999998
21
-133.631132000000008
0
LINE
8
BLACK
6
CONTINUOUS
10
138.453834999999998
20
-133.631132000000008
11
138.3651419999999916
21
-134.1911159999999938
0
LINE
8
BLACK
6
CONTINUOUS
10
138.3651419999999916
20
-134.1911159999999938
11
138.2414629999999818
21
-134.7444260000000043
0
LINE
8
BLACK
6
CONTINUOUS
10
138.2414629999999818
20
-134.7444260000000043
11
138.0832849999999894
21
-135.2888779999999826
0
LINE
8
BLACK
6
CONTINUOUS
10
138.0832849999999894
20
-135.2888779999999826
11
137.8912329999999997
21
-135.8223239999999805
0
LINE
8
BLACK
6
CONTINUOUS
10
137.8912329999999997
20
-135.8223239999999805
11
137.6660640000000058
21
-136.3426580000000001
0
LINE
8
BLACK
6
CONTINUOUS
10
137.6660640000000058
20
-136.3426580000000001
11
137.4086680000000058
21
-136.8478269999999952
0
LINE
8
BLACK
6
CONTINUOUS
10
137.4086680000000058
20
-136.8478269999999952
11
137.1200599999999952
21
-137.3358369999999979
0
LINE
8
BLACK
6
CONTINUOUS
10
137.1200599999999952
20
-137.3358369999999979
11
136.8013779999999997
21
-137.8047619999999824
0
LINE
8
BLACK
6
CONTINUOUS
10
136.8013779999999997
20
-137.8047619999999824
11
136.453881999999993
21
-138.2527519999999868
0
LINE
8
BLACK
6
CONTINUOUS
10
136.453881999999993
20
-138.2527519999999868
11
136.0789419999999836
21
-138.6780379999999866
0
LINE
8
BLACK
6
CONTINUOUS
10
136.0789419999999836
20
-138.6780379999999866
11
135.6780379999999866
21
-139.0789419999999836
0
LINE
8
BLACK
6
CONTINUOUS
10
135.6780379999999866
20
-139.0789419999999836
11
135.2527519999999868
21
-139.453881999999993
0
LINE
8
BLACK
6
CONTINUOUS
10
135.2527519999999868
20
-139.453881999999993
11
134.8047619999999824
21
-139.8013779999999997
0
LINE
8
BLACK
6
CONTINUOUS
10
134.8047619999999824
20
-139.8013779999999997
11
134.3358369999999979
21
-140.1200599999999952
0
LINE
8
BLACK
6
CONTINUOUS
10
134.3358369999999979
20
-140.1200599999999952
11
133.8478269999999952
21
-140.4086680000000058
0
LINE
8
BLACK
6
CONTINUOUS
10
133.8478269999999952
20
-140.4086680000000058
11
133.3426580000000001
21
-140.6660640000000058
0
LINE
8
BLACK
6
CONTINUOUS
10
133.3426580000000001
20
-140.6660640000000058
11
132.8223239999999805
21
-140.8912329999999997
0
LINE
8
BLACK
6
CONTINUOUS
10
132.8223239999999805
20
-140.8912329999999997
11
132.2888779999999826
21
-141.0832849999999894
0
LINE
8
BLACK
6
CONTINUOUS
10
132.2888779999999826
20
-141.0832849999999894
11
131.7444260000000043
21
-141.2414629999999818
0
LINE
8
BLACK
6
CONTINUOUS
10
131.7444260000000043
20
-141.2414629999999818
11
131.1911159999999938
21
-141.3651419999999916
0
LINE
8
BLACK
6
CONTINUOUS
10
131.1911159999999938
20
-141.3651419999999916
11
130.631132000000008
21
-141.453834999999998
0
LINE
8
BLACK
6
CONTINUOUS
10
130.631132000000008
20
-141.453834999999998
11
130.0666839999999809
21
-141.5071910000000059
0
LINE
8
BLACK
6
CONTINUOUS
10
130.0666839999999809
20
-141.5071910000000059
11
129.5
21
-141.5250000000000057
0
LINE
8
BLACK
6
CONTINUOUS
10
129.5
20
-141.5250000000000057
11
57.5
21
-141.5250000000000057
0
LINE
8
BLACK
6
CONTINUOUS
10
57.5
20
-141.5250000000000057
11
56.9333159999999978
21
-141.5071910000000059
0
LINE
8
BLACK
6
CONTINUOUS
10
56.9333159999999978
20
-141.5071910000000059
11
56.3688679999999991
21
-141.453834999999998
0
LINE
8
BLACK
6
CONTINUOUS
10
56.3688679999999991
20
-141.453834999999998
11
55.808883999999999
21
-141.3651419999999916
0
LINE
8
BLACK
6
CONTINUOUS
10
55.808883999999999
20
-141.3651419999999916
11
55.2555739999999957
21
-141.2414629999999818
0
LINE
8
BLACK
6
CONTINUOUS
10
55.2555739999999957
20
-141.2414629999999818
11
54.711121999999996
21
-141.0832849999999894
0
LINE
8
BLACK
6
CONTINUOUS
10
54.711121999999996
20
-141.0832849999999894
11
54.1776759999999982
21
-140.8912329999999997
0
LINE
8
BLACK
6
CONTINUOUS
10
54.1776759999999982
20
-140.8912329999999997
11
53.6573419999999999
21
-140.6660640000000058
0
LINE
8
BLACK
6
CONTINUOUS
10
53.6573419999999999
20
-140.6660640000000058
11
53.1521729999999977
21
-140.4086680000000058
0
LINE
8
BLACK
6
CONTINUOUS
10
53.1521729999999977
20
-140.4086680000000058
11
52.664162999999995
21
-140.1200599999999952
0
LINE
8
BLACK
6
CONTINUOUS
10
52.664162999999995
20
-140.1200599999999952
11
52.1952379999999962
21
-139.8013779999999997
0
LINE
8
BLACK
6
CONTINUOUS
10
52.1952379999999962
20
-139.8013779999999997
11
51.747247999999999
21
-139.453881999999993
0
LINE
8
BLACK
6
CONTINUOUS
10
51.747247999999999
20
-139.453881999999993
11
51.3219619999999992
21
-139.0789419999999836
0
LINE
8
BLACK
6
CONTINUOUS
10
51.3219619999999992
20
-139.0789419999999836
11
50.921057999999995
21
-138.6780379999999866
0
LINE
8
BLACK
6
CONTINUOUS
10
50.921057999999995
20
-138.6780379999999866
11
50.5461179999999999
21
-138.2527519999999868
0
LINE
8
BLACK
6
CONTINUOUS
10
50.5461179999999999
20
-138.2527519999999868
11
50.1986220000000003
21
-137.8047619999999824
0
LINE
8
BLACK
6
CONTINUOUS
10
50.1986220000000003
20
-137.8047619999999824
11
49.8799399999999977
21
-137.3358369999999979
0
LINE
8
BLACK
6
CONTINUOUS
10
49.8799399999999977
20
-137.3358369999999979
11
49.5913320000000013
21
-136.8478269999999952
0
LINE
8
BLACK
6
CONTINUOUS
10
49.5913320000000013
20
-136.8478269999999952
11
49.3339359999999942
21
-136.3426580000000001
0
LINE
8
BLACK
6
CONTINUOUS
10
49.3339359999999942
20
-136.3426580000000001
11
49.1087670000000003
21
-135.8223239999999805
0
LINE
8
BLACK
6
CONTINUOUS
10
49.1087670000000003
20
-135.8223239999999805
11
48.9167149999999964
21
-135.2888779999999826
0
LINE
8
BLACK
6
CONTINUOUS
10
48.9167149999999964
20
-135.2888779999999826
11
48.7585369999999969
21
-134.7444260000000043
0
LINE
8
BLACK
6
CONTINUOUS
10
48.7585369999999969
20
-134.7444260000000043
11
48.6348580000000013
21
-134.1911159999999938
0
LINE
8
BLACK
6
CONTINUOUS
10
48.6348580000000013
20
-134.1911159999999938
11
48.5461649999999949
21
-133.631132000000008
0
LINE
8
BLACK
6
CONTINUOUS
10
48.5461649999999949
20
-133.631132000000008
11
48.4928090000000012
21
-133.0666839999999809
0
LINE
8
BLACK
6
CONTINUOUS
10
48.4928090000000012
20
-133.0666839999999809
11
48.4749999999999943
21
-132.5
0
LINE
8
BLACK
6
CONTINUOUS
10
48.4749999999999943
20
-132.5
11
48.4749999999999943
21
-60.5
0
LINE
8
BLACK
6
CONTINUOUS
10
48.4749999999999943
20
-60.5
11
48.4928090000000012
21
-59.9333159999999978
0
LINE
8
BLACK
6
CONTINUOUS
10
48.4928090000000012
20
-59.9333159999999978
11
48.5461649999999949
21
-59.3688679999999991
0
LINE
8
BLACK
6
CONTINUOUS
10
48.5461649999999949
20
-59.3688679999999991
11
48.6348580000000013
21
-58.808883999999999
0
LINE
8
BLACK
6
CONTINUOUS
10
48.6348580000000013
20
-58.808883999999999
11
48.7585369999999969
21
-58.2555739999999957
0
LINE
8
BLACK
6
CONTINUOUS
10
48.7585369999999969
20
-58.2555739999999957
11
48.9167149999999964
21
-57.711121999999996
0
LINE
8
BLACK
6
CONTINUOUS
10
48.9167149999999964
20
-57.711121999999996
11
49.1087670000000003
21
-57.1776759999999982
0
LINE
8
BLACK
6
CONTINUOUS
10
49.1087670000000003
20
-57.1776759999999982
11
49.3339359999999942
21
-56.6573419999999999
0
LINE
8
BLACK
6
CONTINUOUS
10
49.3339359999999942
20
-56.6573419999999999
11
49.5913320000000013
21
-56.1521729999999977
0
LINE
8
BLACK
6
CONTINUOUS
10
49.5913320000000013
20
-56.1521729999999977
11
49.8799399999999977
21
-55.664162999999995
0
LINE
8
BLACK
6
CONTINUOUS
10
49.8799399999999977
20
-55.664162999999995
11
50.1986220000000003
21
-55.1952379999999962
0
LINE
8
BLACK
6
CONTINUOUS
10
50.1986220000000003
20
-55.1952379999999962
11
50.5461179999999999
21
-54.747247999999999
0
LINE
8
BLACK
6
CONTINUOUS
10
50.5461179999999999
20
-54.747247999999999
11
50.921057999999995
21
-54.3219619999999992
0
LINE
8
BLACK
6
CONTINUOUS
10
50.921057999999995
20
-54.3219619999999992
11
51.3219619999999992
21
-53.921057999999995
0
LINE
8
BLACK
6
CONTINUOUS
10
51.3219619999999992
20
-53.921057999999995
11
51.747247999999999
21
-53.5461179999999999
0
LINE
8
BLACK
6
CONTINUOUS
10
51.747247999999999
20
-53.5461179999999999
11
52.1952379999999962
21
-53.1986220000000003
0
LINE
8
BLACK
6
CONTINUOUS
10
52.1952379999999962
20
-53.1986220000000003
11
52.664162999999995
21
-52.8799399999999977
0
LINE
8
BLACK
6
CONTINUOUS
10
52.664162999999995
20
-52.8799399999999977
11
53.1521729999999977
21
-52.5913319999999942
0
LINE
8
BLACK
6
CONTINUOUS
10
53.1521729999999977
20
-52.5913319999999942
11
53.6573419999999999
21
-52.3339359999999942
0
LINE
8
BLACK
6
CONTINUOUS
10
53.6573419999999999
20
-52.3339359999999942
11
54.1776759999999982
21
-52.1087670000000003
0
LINE
8
BLACK
6
CONTINUOUS
10
54.1776759999999982
20
-52.1087670000000003
11
54.711121999999996
21
-51.9167149999999964
0
LINE
8
BLACK
6
CONTINUOUS
10
54.711121999999996
20
-51.9167149999999964
11
55.2555739999999957
21
-51.7585369999999969
0
LINE
8
BLACK
6
CONTINUOUS
10
55.2555739999999957
20
-51.7585369999999969
11
55.808883999999999
21
-51.6348579999999941
0
LINE
8
BLACK
6
CONTINUOUS
10
55.808883999999999
20
-51.6348579999999941
11
56.3688679999999991
21
-51.5461649999999949
0
LINE
8
BLACK
6
CONTINUOUS
10
56.3688679999999991
20
-51.5461649999999949
11
56.9333159999999978
21
-51.4928090000000012
0
LINE
8
BLACK
6
CONTINUOUS
10
56.9333159999999978
20
-51.4928090000000012
11
57.5
21
-51.4749999999999943
0
LINE
8
BLACK
6
CONTINUOUS
10
57.5
20
-51.4749999999999943
11
129.5
21
-51.4749999999999943
0
LINE
8
BLACK
6
CONTINUOUS
10
57.5
20
-51.5249999999999986
11
57.2179489999999973
21
-51.5249999999999986
0
LINE
8
BLACK
6
CONTINUOUS
10
57.2179489999999973
20
-51.5249999999999986
11
56.6549610000000001
21
-51.5604200000000006
0
LINE
8
BLACK
6
CONTINUOUS
10
56.6549610000000001
20
-51.5604200000000006
11
56.0953079999999957
21
-51.6311210000000003
0
LINE
8
BLACK
6
CONTINUOUS
10
56.0953079999999957
20
-51.6311210000000003
11
55.5411979999999943
21
-51.7368230000000011
0
LINE
8
BLACK
6
CONTINUOUS
10
55.5411979999999943
20
-51.7368230000000011
11
54.9948189999999997
21
-51.8771089999999973
0
LINE
8
BLACK
6
CONTINUOUS
10
54.9948189999999997
20
-51.8771089999999973
11
54.4583259999999996
21
-52.0514259999999993
0
LINE
8
BLACK
6
CONTINUOUS
10
54.4583259999999996
20
-52.0514259999999993
11
53.9338379999999944
21
-52.2590859999999964
0
LINE
8
BLACK
6
CONTINUOUS
10
53.9338379999999944
20
-52.2590859999999964
11
53.4234239999999971
21
-52.4992680000000007
0
LINE
8
BLACK
6
CONTINUOUS
10
53.4234239999999971
20
-52.4992680000000007
11
52.9290979999999962
21
-52.7710259999999991
0
LINE
8
BLACK
6
CONTINUOUS
10
52.9290979999999962
20
-52.7710259999999991
11
52.452810999999997
21
-53.0732870000000005
0
LINE
8
BLACK
6
CONTINUOUS
10
52.452810999999997
20
-53.0732870000000005
11
51.9964429999999993
21
-53.4048579999999973
0
LINE
8
BLACK
6
CONTINUOUS
10
51.9964429999999993
20
-53.4048579999999973
11
51.5617960000000011
21
-53.7644289999999998
0
LINE
8
BLACK
6
CONTINUOUS
10
51.5617960000000011
20
-53.7644289999999998
11
51.1505829999999975
21
-54.1505829999999975
0
LINE
8
BLACK
6
CONTINUOUS
10
51.1505829999999975
20
-54.1505829999999975
11
50.7644289999999998
21
-54.5617960000000011
0
LINE
8
BLACK
6
CONTINUOUS
10
50.7644289999999998
20
-54.5617960000000011
11
50.4048579999999973
21
-54.9964429999999993
0
LINE
8
BLACK
6
CONTINUOUS
10
50.4048579999999973
20
-54.9964429999999993
11
50.0732870000000005
21
-55.452810999999997
0
LINE
8
BLACK
6
CONTINUOUS
10
50.0732870000000005
20
-55.452810999999997
11
49.7710259999999991
21
-55.9290979999999962
0
LINE
8
BLACK
6
CONTINUOUS
10
49.7710259999999991
20
-55.9290979999999962
11
49.4992680000000007
21
-56.4234239999999971
0
LINE
8
BLACK
6
CONTINUOUS
10
49.4992680000000007
20
-56.4234239999999971
11
49.2590859999999964
21
-56.9338379999999944
0
LINE
8
BLACK
6
CONTINUOUS
10
49.2590859999999964
20
-56.9338379999999944
11
49.0514259999999993
21
-57.4583259999999996
0
LINE
8
BLACK
6
CONTINUOUS
10
49.0514259999999993
20
-57.4583259999999996
11
48.8771089999999973
21
-57.9948189999999997
0
LINE
8
BLACK
6
CONTINUOUS
10
48.8771089999999973
20
-57.9948189999999997
11
48.7368230000000011
21
-58.5411979999999943
0
LINE
8
BLACK
6
CONTINUOUS
10
48.7368230000000011
20
-58.5411979999999943
11
48.6311210000000003
21
-59.0953079999999957
0
LINE
8
BLACK
6
CONTINUOUS
10
48.6311210000000003
20
-59.0953079999999957
11
48.5604200000000006
21
-59.6549610000000001
0
LINE
8
BLACK
6
CONTINUOUS
10
48.5604200000000006
20
-59.6549610000000001
11
48.5249999999999986
21
-60.2179489999999973
0
LINE
8
BLACK
6
CONTINUOUS
10
48.5249999999999986
20
-60.2179489999999973
11
48.5249999999999986
21
-60.5
0
LINE
8
BLACK
6
CONTINUOUS
10
48.5249999999999986
20
-60.5
11
48.5249999999999986
21
-132.5
0
LINE
8
BLACK
6
CONTINUOUS
10
48.5249999999999986
20
-132.5
11
48.5249999999999986
21
-132.7820509999999956
0
LINE
8
BLACK
6
CONTINUOUS
10
48.5249999999999986
20
-132.7820509999999956
11
48.5604200000000006
21
-133.3450389999999857
0
LINE
8
BLACK
6
CONTINUOUS
10
48.5604200000000006
20
-133.3450389999999857
11
48.6311210000000003
21
-133.904691999999983
0
LINE
8
BLACK
6
CONTINUOUS
10
48.6311210000000003
20
-133.904691999999983
11
48.7368230000000011
21
-134.4588019999999915
0
LINE
8
BLACK
6
CONTINUOUS
10
48.7368230000000011
20
-134.4588019999999915
11
48.8771089999999973
21
-135.0051809999999932
0
LINE
8
BLACK
6
CONTINUOUS
10
48.8771089999999973
20
-135.0051809999999932
11
49.0514259999999993
21
-135.5416740000000004
0
LINE
8
BLACK
6
CONTINUOUS
10
49.0514259999999993
20
-135.5416740000000004
11
49.2590859999999964
21
-136.0661619999999914
0
LINE
8
BLACK
6
CONTINUOUS
10
49.2590859999999964
20
-136.0661619999999914
11
49.4992680000000007
21
-136.5765759999999887
0
LINE
8
BLACK
6
CONTINUOUS
10
49.4992680000000007
20
-136.5765759999999887
11
49.7710259999999991
21
-137.0709019999999896
0
LINE
8
BLACK
6
CONTINUOUS
10
49.7710259999999991
20
-137.0709019999999896
11
50.0732870000000005
21
-137.547189000000003
0
LINE
8
BLACK
6
CONTINUOUS
10
50.0732870000000005
20
-137.547189000000003
11
50.4048579999999973
21
-138.0035570000000007
0
LINE
8
BLACK
6
CONTINUOUS
10
50.4048579999999973
20
-138.0035570000000007
11
50.7644289999999998
21
-138.4382039999999847
0
LINE
8
BLACK
6
CONTINUOUS
10
50.7644289999999998
20
-138.4382039999999847
11
51.1505829999999975
21
-138.8494169999999883
0
LINE
8
BLACK
6
CONTINUOUS
10
51.1505829999999975
20
-138.8494169999999883
11
51.5617960000000011
21
-139.2355709999999931
0
LINE
8
BLACK
6
CONTINUOUS
10
51.5617960000000011
20
-139.2355709999999931
11
51.9964429999999993
21
-139.5951419999999814
0
LINE
8
BLACK
6
CONTINUOUS
10
51.9964429999999993
20
-139.5951419999999814
11
52.452810999999997
21
-139.9267130000000066
0
LINE
8
BLACK
6
CONTINUOUS
10
52.452810999999997
20
-139.9267130000000066
11
52.9290979999999962
21
-140.2289739999999938
0
LINE
8
BLACK
6
CONTINUOUS
10
52.9290979999999962
20
-140.2289739999999938
11
53.4234239999999971
21
-140.5007319999999993
0
LINE
8
BLACK
6
CONTINUOUS
10
53.4234239999999971
20
-140.5007319999999993
11
53.9338379999999944
21
-140.7409140000000036
0
LINE
8
BLACK
6
CONTINUOUS
10
53.9338379999999944
20
-140.7409140000000036
11
54.4583259999999996
21
-140.9485740000000078
0
LINE
8
BLACK
6
CONTINUOUS
10
54.4583259999999996
20
-140.9485740000000078
11
54.9948189999999997
21
-141.1228909999999814
0
LINE
8
BLACK
6
CONTINUOUS
10
54.9948189999999997
20
-141.1228909999999814
11
55.5411979999999943
21
-141.2631769999999847
0
LINE
8
BLACK
6
CONTINUOUS
10
55.5411979999999943
20
-141.2631769999999847
11
56.0953079999999957
21
-141.3688789999999926
0
LINE
8
BLACK
6
CONTINUOUS
10
56.0953079999999957
20
-141.3688789999999926
11
56.6549610000000001
21
-141.4395800000000065
0
LINE
8
BLACK
6
CONTINUOUS
10
56.6549610000000001
20
-141.4395800000000065
11
57.2179489999999973
21
-141.4749999999999943
0
LINE
8
BLACK
6
CONTINUOUS
10
57.2179489999999973
20
-141.4749999999999943
11
57.5
21
-141.4749999999999943
0
LINE
8
BLACK
6
CONTINUOUS
10
57.5
20
-141.4749999999999943
11
129.5
21
-141.4749999999999943
0
LINE
8
BLACK
6
CONTINUOUS
10
129.5
20
-141.4749999999999943
11
129.7820509999999956
21
-141.4749999999999943
0
LINE
8
BLACK
6
CONTINUOUS
10
129.7820509999999956
20
-141.4749999999999943
11
130.3450389999999857
21
-141.4395800000000065
0
LINE
8
BLACK
6
CONTINUOUS
10
130.3450389999999857
20
-141.4395800000000065
11
130.904691999999983
21
-141.3688789999999926
0
LINE
8
BLACK
6
CONTINUOUS
10
130.904691999999983
20
-141.3688789999999926
11
131.4588019999999915
21
-141.2631769999999847
0
LINE
8
BLACK
6
CONTINUOUS
10
131.4588019999999915
20
-141.2631769999999847
11
132.0051809999999932
21
-141.1228909999999814
0
LINE
8
BLACK
6
CONTINUOUS
10
132.0051809999999932
20
-141.1228909999999814
11
132.5416740000000004
21
-140.9485740000000078
0
LINE
8
BLACK
6
CONTINUOUS
10
132.5416740000000004
20
-140.9485740000000078
11
133.0661619999999914
21
-140.7409140000000036
0
LINE
8
BLACK
6
CONTINUOUS
10
133.0661619999999914
20
-140.7409140000000036
11
133.5765759999999887
21
-140.5007319999999993
0
LINE
8
BLACK
6
CONTINUOUS
10
133.5765759999999887
20
-140.5007319999999993
11
134.0709019999999896
21
-140.2289739999999938
0
LINE
8
BLACK
6
CONTINUOUS
10
134.0709019999999896
20
-140.2289739999999938
11
134.547189000000003
21
-139.9267130000000066
0
LINE
8
BLACK
6
CONTINUOUS
10
134.547189000000003
20
-139.9267130000000066
11
135.0035570000000007
21
-139.5951419999999814
0
LINE
8
BLACK
6
CONTINUOUS
10
135.0035570000000007
20
-139.5951419999999814
11
135.4382039999999847
21
-139.2355709999999931
0
LINE
8
BLACK
6
CONTINUOUS
10
135.4382039999999847
20
-139.2355709999999931
11
135.8494169999999883
21
-138.8494169999999883
0
LINE
8
BLACK
6
CONTINUOUS
10
135.8494169999999883
20
-138.8494169999999883
11
136.2355709999999931
21
-138.4382039999999847
0
LINE
8
BLACK
6
CONTINUOUS
10
136.2355709999999931
20
-138.4382039999999847
11
136.5951419999999814
21
-138.0035570000000007
0
LINE
8
BLACK
6
CONTINUOUS
10
136.5951419999999814
20
-138.0035570000000007
11
136.9267130000000066
21
-137.547189000000003
0
LINE
8
BLACK
6
CONTINUOUS
10
136.9267130000000066
20
-137.547189000000003
11
137.2289739999999938
21
-137.0709019999999896
0
LINE
8
BLACK
6
CONTINUOUS
10
137.2289739999999938
20
-137.0709019999999896
11
137.5007319999999993
21
-136.5765759999999887
0
LINE
8
BLACK
6
CONTINUOUS
10
137.5007319999999993
20
-136.5765759999999887
11
137.7409140000000036
21
-136.0661619999999914
0
LINE
8
BLACK
6
CONTINUOUS
10
137.7409140000000036
20
-136.0661619999999914
11
137.9485740000000078
21
-135.5416740000000004
0
LINE
8
BLACK
6
CONTINUOUS
10
137.9485740000000078
20
-135.5416740000000004
11
138.1228909999999814
21
-135.0051809999999932
0
LINE
8
BLACK
6
CONTINUOUS
10
138.1228909999999814
20
-135.0051809999999932
11
138.2631769999999847
21
-134.4588019999999915
0
LINE
8
BLACK
6
CONTINUOUS
10
138.2631769999999847
20
-134.4588019999999915
11
138.3688789999999926
21
-133.904691999999983
0
LINE
8
BLACK
6
CONTINUOUS
10
138.3688789999999926
20
-133.904691999999983
11
138.4395800000000065
21
-133.3450389999999857
0
LINE
8
BLACK
6
CONTINUOUS
10
138.4395800000000065
20
-133.3450389999999857
11
138.4749999999999943
21
-132.7820509999999956
0
LINE
8
BLACK
6
CONTINUOUS
10
138.4749999999999943
20
-132.7820509999999956
11
138.4749999999999943
21
-132.5
0
LINE
8
BLACK
6
CONTINUOUS
10
138.4749999999999943
20
-132.5
11
138.4749999999999943
21
-60.5
0
LINE
8
BLACK
6
CONTINUOUS
10
138.4749999999999943
20
-60.5
11
138.4749999999999943
21
-60.2179489999999973
0
LINE
8
BLACK
6
CONTINUOUS
10
138.4749999999999943
20
-60.2179489999999973
11
138.4395800000000065
21
-59.6549610000000001
0
LINE
8
BLACK
6
CONTINUOUS
10
138.4395800000000065
20
-59.6549610000000001
11
138.3688789999999926
21
-59.0953079999999957
0
LINE
8
BLACK
6
CONTINUOUS
10
138.3688789999999926
20
-59.0953079999999957
11
138.2631769999999847
21
-58.5411979999999943
0
LINE
8
BLACK
6
CONTINUOUS
10
138.2631769999999847
20
-58.5411979999999943
11
138.1228909999999814
21
-57.9948189999999997
0
LINE
8
BLACK
6
CONTINUOUS
10
138.1228909999999814
20
-57.9948189999999997
11
137.9485740000000078
21
-57.4583259999999996
0
LINE
8
BLACK
6
CONTINUOUS
10
137.9485740000000078
20
-57.4583259999999996
11
137.7409140000000036
21
-56.9338379999999944
0
LINE
8
BLACK
6
CONTINUOUS
10
137.7409140000000036
20
-56.9338379999999944
11
137.5007319999999993
21
-56.4234239999999971
0
LINE
8
BLACK
6
CONTINUOUS
10
137.5007319999999993
20
-56.4234239999999971
11
137.2289739999999938
21
-55.9290979999999962
0
LINE
8
BLACK
6
CONTINUOUS
10
137.2289739999999938
20
-55.9290979999999962
11
136.9267130000000066
21
-55.452810999999997
0
LINE
8
BLACK
6
CONTINUOUS
10
136.9267130000000066
20
-55.452810999999997
11
136.5951419999999814
21
-54.9964429999999993
0
LINE
8
BLACK
6
CONTINUOUS
10
136.5951419999999814
20
-54.9964429999999993
11
136.2355709999999931
21
-54.5617960000000011
0
LINE
8
BLACK
6
CONTINUOUS
10
136.2355709999999931
20
-54.5617960000000011
11
135.8494169999999883
21
-54.1505829999999975
0
LINE
8
BLACK
6
CONTINUOUS
10
135.8494169999999883
20
-54.1505829999999975
11
135.4382039999999847
21
-53.7644289999999998
0
LINE
8
BLACK
6
CONTINUOUS
10
135.4382039999999847
20
-53.7644289999999998
11
135.0035570000000007
21
-53.4048579999999973
0
LINE
8
BLACK
6
CONTINUOUS
10
135.0035570000000007
20
-53.4048579999999973
11
134.547189000000003
21
-53.0732870000000005
0
LINE
8
BLACK
6
CONTINUOUS
10
134.547189000000003
20
-53.0732870000000005
11
134.0709019999999896
21
-52.7710259999999991
0
LINE
8
BLACK
6
CONTINUOUS
10
134.0709019999999896
20
-52.7710259999999991
11
133.5765759999999887
21
-52.4992680000000007
0
LINE
8
BLACK
6
CONTINUOUS
10
133.5765759999999887
20
-52.4992680000000007
11
133.0661619999999914
21
-52.2590859999999964
0
LINE
8
BLACK
6
CONTINUOUS
10
133.0661619999999914
20
-52.2590859999999964
11
132.5416740000000004
21
-52.0514259999999993
0
LINE
8
BLACK
6
CONTINUOUS
10
132.5416740000000004
20
-52.0514259999999993
11
132.0051809999999932
21
-51.8771089999999973
0
LINE
8
BLACK
6
CONTINUOUS
10
132.0051809999999932
20
-51.8771089999999973
11
131.4588019999999915
21
-51.7368230000000011
0
LINE
8
BLACK
6
CONTINUOUS
10
131.4588019999999915
20
-51.7368230000000011
11
130.904691999999983
21
-51.6311210000000003
0
LINE
8
BLACK
6
CONTINUOUS
10
130.904691999999983
20
-51.6311210000000003
11
130.3450389999999857
21
-51.5604200000000006
0
LINE
8
BLACK
6
CONTINUOUS
10
130.3450389999999857
20
-51.5604200000000006
11
129.7820509999999956
21
-51.5249999999999986
0
LINE
8
BLACK
6
CONTINUOUS
10
129.7820509999999956
20
-51.5249999999999986
11
129.5
21
-51.5249999999999986
0
LINE
8
BLACK
6
CONTINUOUS
10
129.5
20
-51.5249999999999986
11
57.5
21
-51.5249999999999986
  0
ENDSEC
  0
EOF
