%TF.GenerationSoftware,KiCad,Pcbnew,9.0.6*%
%TF.CreationDate,2026-07-14T21:45:29+03:00*%
%TF.ProjectId,Ana_ESC2_OneGND_Layer,416e615f-4553-4433-925f-4f6e65474e44,rev?*%
%TF.SameCoordinates,Original*%
%TF.FileFunction,Copper,L1,Top*%
%TF.FilePolarity,Positive*%
%FSLAX46Y46*%
G04 Gerber Fmt 4.6, Leading zero omitted, Abs format (unit mm)*
G04 Created by KiCad (PCBNEW 9.0.6) date 2026-07-14 21:45:29*
%MOMM*%
%LPD*%
G01*
G04 APERTURE LIST*
G04 Aperture macros list*
%AMRoundRect*
0 Rectangle with rounded corners*
0 $1 Rounding radius*
0 $2 $3 $4 $5 $6 $7 $8 $9 X,Y pos of 4 corners*
0 Add a 4 corners polygon primitive as box body*
4,1,4,$2,$3,$4,$5,$6,$7,$8,$9,$2,$3,0*
0 Add four circle primitives for the rounded corners*
1,1,$1+$1,$2,$3*
1,1,$1+$1,$4,$5*
1,1,$1+$1,$6,$7*
1,1,$1+$1,$8,$9*
0 Add four rect primitives between the rounded corners*
20,1,$1+$1,$2,$3,$4,$5,0*
20,1,$1+$1,$4,$5,$6,$7,0*
20,1,$1+$1,$6,$7,$8,$9,0*
20,1,$1+$1,$8,$9,$2,$3,0*%
%AMRotRect*
0 Rectangle, with rotation*
0 The origin of the aperture is its center*
0 $1 length*
0 $2 width*
0 $3 Rotation angle, in degrees counterclockwise*
0 Add horizontal line*
21,1,$1,$2,0,0,$3*%
G04 Aperture macros list end*
%TA.AperFunction,EtchedComponent*%
%ADD10C,0.000000*%
%TD*%
%TA.AperFunction,ComponentPad*%
%ADD11C,0.600000*%
%TD*%
%TA.AperFunction,SMDPad,CuDef*%
%ADD12R,9.000000X7.600000*%
%TD*%
%TA.AperFunction,SMDPad,CuDef*%
%ADD13RoundRect,0.237500X-0.237500X0.300000X-0.237500X-0.300000X0.237500X-0.300000X0.237500X0.300000X0*%
%TD*%
%TA.AperFunction,SMDPad,CuDef*%
%ADD14RoundRect,0.237500X-0.250000X-0.237500X0.250000X-0.237500X0.250000X0.237500X-0.250000X0.237500X0*%
%TD*%
%TA.AperFunction,SMDPad,CuDef*%
%ADD15RoundRect,0.237500X0.237500X-0.300000X0.237500X0.300000X-0.237500X0.300000X-0.237500X-0.300000X0*%
%TD*%
%TA.AperFunction,SMDPad,CuDef*%
%ADD16RoundRect,0.237500X0.250000X0.237500X-0.250000X0.237500X-0.250000X-0.237500X0.250000X-0.237500X0*%
%TD*%
%TA.AperFunction,SMDPad,CuDef*%
%ADD17R,2.700000X3.420000*%
%TD*%
%TA.AperFunction,SMDPad,CuDef*%
%ADD18R,0.970000X0.900000*%
%TD*%
%TA.AperFunction,SMDPad,CuDef*%
%ADD19RoundRect,0.200000X-0.275000X0.200000X-0.275000X-0.200000X0.275000X-0.200000X0.275000X0.200000X0*%
%TD*%
%TA.AperFunction,SMDPad,CuDef*%
%ADD20R,0.650000X1.150000*%
%TD*%
%TA.AperFunction,SMDPad,CuDef*%
%ADD21R,0.725000X0.550000*%
%TD*%
%TA.AperFunction,SMDPad,CuDef*%
%ADD22R,4.600000X4.100000*%
%TD*%
%TA.AperFunction,SMDPad,CuDef*%
%ADD23RoundRect,0.237500X-0.300000X-0.237500X0.300000X-0.237500X0.300000X0.237500X-0.300000X0.237500X0*%
%TD*%
%TA.AperFunction,ComponentPad*%
%ADD24R,3.000000X3.000000*%
%TD*%
%TA.AperFunction,ComponentPad*%
%ADD25C,3.000000*%
%TD*%
%TA.AperFunction,SMDPad,CuDef*%
%ADD26R,0.900000X0.970000*%
%TD*%
%TA.AperFunction,SMDPad,CuDef*%
%ADD27RoundRect,0.108750X-0.356250X0.326250X-0.356250X-0.326250X0.356250X-0.326250X0.356250X0.326250X0*%
%TD*%
%TA.AperFunction,SMDPad,CuDef*%
%ADD28RoundRect,0.237500X-0.237500X0.250000X-0.237500X-0.250000X0.237500X-0.250000X0.237500X0.250000X0*%
%TD*%
%TA.AperFunction,ComponentPad*%
%ADD29R,1.500000X1.500000*%
%TD*%
%TA.AperFunction,ComponentPad*%
%ADD30C,1.500000*%
%TD*%
%TA.AperFunction,SMDPad,CuDef*%
%ADD31RoundRect,0.250000X-0.337500X-0.475000X0.337500X-0.475000X0.337500X0.475000X-0.337500X0.475000X0*%
%TD*%
%TA.AperFunction,SMDPad,CuDef*%
%ADD32RoundRect,0.150000X0.512500X0.150000X-0.512500X0.150000X-0.512500X-0.150000X0.512500X-0.150000X0*%
%TD*%
%TA.AperFunction,SMDPad,CuDef*%
%ADD33R,0.800000X1.000000*%
%TD*%
%TA.AperFunction,SMDPad,CuDef*%
%ADD34R,1.500000X0.700000*%
%TD*%
%TA.AperFunction,SMDPad,CuDef*%
%ADD35R,0.860000X0.270000*%
%TD*%
%TA.AperFunction,SMDPad,CuDef*%
%ADD36R,0.270000X0.860000*%
%TD*%
%TA.AperFunction,SMDPad,CuDef*%
%ADD37R,5.600000X5.600000*%
%TD*%
%TA.AperFunction,SMDPad,CuDef*%
%ADD38RoundRect,0.237500X0.300000X0.237500X-0.300000X0.237500X-0.300000X-0.237500X0.300000X-0.237500X0*%
%TD*%
%TA.AperFunction,ComponentPad*%
%ADD39R,1.700000X1.700000*%
%TD*%
%TA.AperFunction,ComponentPad*%
%ADD40C,1.700000*%
%TD*%
%TA.AperFunction,SMDPad,CuDef*%
%ADD41RoundRect,0.150000X-0.150000X-0.377500X0.150000X-0.377500X0.150000X0.377500X-0.150000X0.377500X0*%
%TD*%
%TA.AperFunction,SMDPad,CuDef*%
%ADD42RoundRect,0.150000X-0.150000X-0.425000X0.150000X-0.425000X0.150000X0.425000X-0.150000X0.425000X0*%
%TD*%
%TA.AperFunction,SMDPad,CuDef*%
%ADD43RoundRect,0.075000X-0.075000X-0.500000X0.075000X-0.500000X0.075000X0.500000X-0.075000X0.500000X0*%
%TD*%
%TA.AperFunction,HeatsinkPad*%
%ADD44O,1.000000X2.100000*%
%TD*%
%TA.AperFunction,HeatsinkPad*%
%ADD45O,1.000000X1.800000*%
%TD*%
%TA.AperFunction,SMDPad,CuDef*%
%ADD46R,1.200000X0.850000*%
%TD*%
%TA.AperFunction,SMDPad,CuDef*%
%ADD47R,2.350000X1.550000*%
%TD*%
%TA.AperFunction,SMDPad,CuDef*%
%ADD48RotRect,0.900000X0.970000X45.000000*%
%TD*%
%TA.AperFunction,SMDPad,CuDef*%
%ADD49RoundRect,0.237500X0.287500X0.237500X-0.287500X0.237500X-0.287500X-0.237500X0.287500X-0.237500X0*%
%TD*%
%TA.AperFunction,SMDPad,CuDef*%
%ADD50RoundRect,0.237500X0.237500X-0.250000X0.237500X0.250000X-0.237500X0.250000X-0.237500X-0.250000X0*%
%TD*%
%TA.AperFunction,ComponentPad*%
%ADD51RoundRect,0.250001X-1.149999X1.149999X-1.149999X-1.149999X1.149999X-1.149999X1.149999X1.149999X0*%
%TD*%
%TA.AperFunction,ComponentPad*%
%ADD52C,2.800000*%
%TD*%
%TA.AperFunction,SMDPad,CuDef*%
%ADD53RotRect,0.850000X1.200000X135.000000*%
%TD*%
%TA.AperFunction,SMDPad,CuDef*%
%ADD54R,0.600000X1.200000*%
%TD*%
%TA.AperFunction,SMDPad,CuDef*%
%ADD55R,0.450000X1.200000*%
%TD*%
%TA.AperFunction,SMDPad,CuDef*%
%ADD56R,0.600000X1.700000*%
%TD*%
%TA.AperFunction,SMDPad,CuDef*%
%ADD57R,1.000000X2.800000*%
%TD*%
%TA.AperFunction,SMDPad,CuDef*%
%ADD58R,1.050000X0.750000*%
%TD*%
%TA.AperFunction,SMDPad,CuDef*%
%ADD59R,5.500000X2.000000*%
%TD*%
%TA.AperFunction,SMDPad,CuDef*%
%ADD60R,1.020000X1.040000*%
%TD*%
%TA.AperFunction,SMDPad,CuDef*%
%ADD61RotRect,1.550000X2.200000X135.000000*%
%TD*%
%TA.AperFunction,SMDPad,CuDef*%
%ADD62R,2.260600X3.505200*%
%TD*%
%TA.AperFunction,SMDPad,CuDef*%
%ADD63RoundRect,0.032500X0.397500X0.097500X-0.397500X0.097500X-0.397500X-0.097500X0.397500X-0.097500X0*%
%TD*%
%TA.AperFunction,SMDPad,CuDef*%
%ADD64RoundRect,0.032500X0.097500X0.397500X-0.097500X0.397500X-0.097500X-0.397500X0.097500X-0.397500X0*%
%TD*%
%TA.AperFunction,SMDPad,CuDef*%
%ADD65R,5.150000X5.150000*%
%TD*%
%TA.AperFunction,SMDPad,CuDef*%
%ADD66RoundRect,0.115000X0.370000X-0.345000X0.370000X0.345000X-0.370000X0.345000X-0.370000X-0.345000X0*%
%TD*%
%TA.AperFunction,ViaPad*%
%ADD67C,0.900000*%
%TD*%
%TA.AperFunction,ViaPad*%
%ADD68C,0.600000*%
%TD*%
%TA.AperFunction,Conductor*%
%ADD69C,0.250000*%
%TD*%
%TA.AperFunction,Conductor*%
%ADD70C,0.500000*%
%TD*%
%TA.AperFunction,Conductor*%
%ADD71C,0.300000*%
%TD*%
%TA.AperFunction,Conductor*%
%ADD72C,0.200000*%
%TD*%
%TA.AperFunction,Conductor*%
%ADD73C,0.800000*%
%TD*%
%TA.AperFunction,Conductor*%
%ADD74C,0.230000*%
%TD*%
%TA.AperFunction,Conductor*%
%ADD75C,0.350000*%
%TD*%
%TA.AperFunction,Conductor*%
%ADD76C,0.260000*%
%TD*%
%TA.AperFunction,Conductor*%
%ADD77C,0.400000*%
%TD*%
%TA.AperFunction,Conductor*%
%ADD78C,0.700000*%
%TD*%
G04 APERTURE END LIST*
D10*
%TA.AperFunction,EtchedComponent*%
%TO.C,NT1*%
G36*
X136900000Y-77800000D02*
G01*
X136300000Y-77800000D01*
X136300000Y-76600000D01*
X136900000Y-76600000D01*
X136900000Y-77800000D01*
G37*
%TD.AperFunction*%
%TD*%
D11*
%TO.P,Batt-1,1*%
%TO.N,GND*%
X129800000Y-70300000D03*
X129800000Y-71800000D03*
X129800000Y-73300000D03*
X129800000Y-74800000D03*
X129800000Y-76300000D03*
X131300000Y-70300000D03*
X131300000Y-71800000D03*
X131300000Y-73300000D03*
X131300000Y-74800000D03*
X131300000Y-76300000D03*
X132800000Y-70300000D03*
X132800000Y-71800000D03*
X132800000Y-73300000D03*
X132800000Y-74800000D03*
X132800000Y-76300000D03*
D12*
X133500000Y-73400000D03*
D11*
X134300000Y-70300000D03*
X134300000Y-71800000D03*
X134300000Y-73300000D03*
X134300000Y-74800000D03*
X134300000Y-76300000D03*
X135800000Y-70300000D03*
X135800000Y-71800000D03*
X135800000Y-73300000D03*
X135800000Y-74800000D03*
X135800000Y-76300000D03*
X137300000Y-70300000D03*
X137300000Y-71800000D03*
X137300000Y-73300000D03*
X137300000Y-74800000D03*
X137300000Y-76300000D03*
%TD*%
D12*
%TO.P,Batt+1,1*%
%TO.N,VM*%
X133500000Y-83700000D03*
D11*
X129800000Y-80600000D03*
X129800000Y-82100000D03*
X129800000Y-83600000D03*
X129800000Y-85100000D03*
X129800000Y-86600000D03*
X131300000Y-80600000D03*
X131300000Y-82100000D03*
X131300000Y-83600000D03*
X131300000Y-85100000D03*
X131300000Y-86600000D03*
X132800000Y-80600000D03*
X132800000Y-82100000D03*
X132800000Y-83600000D03*
X132800000Y-85100000D03*
X132800000Y-86600000D03*
X134300000Y-80600000D03*
X134300000Y-82100000D03*
X134300000Y-83600000D03*
X134300000Y-85100000D03*
X134300000Y-86600000D03*
X135800000Y-80600000D03*
X135800000Y-82100000D03*
X135800000Y-83600000D03*
X135800000Y-85100000D03*
X135800000Y-86600000D03*
X137300000Y-80600000D03*
X137300000Y-82100000D03*
X137300000Y-83600000D03*
X137300000Y-85100000D03*
X137300000Y-86600000D03*
%TD*%
D13*
%TO.P,C16,1*%
%TO.N,/Gate_Driver/SENS2*%
X61750000Y-110137500D03*
%TO.P,C16,2*%
%TO.N,GND2*%
X61750000Y-111862500D03*
%TD*%
D14*
%TO.P,R2,1*%
%TO.N,GND2*%
X65425000Y-131760000D03*
%TO.P,R2,2*%
%TO.N,Net-(J2-CC2)*%
X67250000Y-131760000D03*
%TD*%
D13*
%TO.P,C17,1*%
%TO.N,/Gate_Driver/SENS3*%
X73800000Y-108137500D03*
%TO.P,C17,2*%
%TO.N,GND2*%
X73800000Y-109862500D03*
%TD*%
D15*
%TO.P,C23,1*%
%TO.N,+3.3V*%
X62000000Y-101262500D03*
%TO.P,C23,2*%
%TO.N,GND2*%
X62000000Y-99537500D03*
%TD*%
D16*
%TO.P,R16,1*%
%TO.N,+3.3V*%
X103787500Y-130900000D03*
%TO.P,R16,2*%
%TO.N,/MCU/I2C1_SDA*%
X101962500Y-130900000D03*
%TD*%
D17*
%TO.P,Rsense_B4,1*%
%TO.N,GND*%
X89940000Y-75784000D03*
%TO.P,Rsense_B4,2*%
%TO.N,/Gate_Driver/SPB*%
X94560000Y-75784000D03*
%TD*%
D16*
%TO.P,R14,1*%
%TO.N,/Gate_Driver/SHC*%
X72000000Y-89640000D03*
%TO.P,R14,2*%
%TO.N,/Gate_Driver/SENS3*%
X70175000Y-89640000D03*
%TD*%
D18*
%TO.P,R21,1*%
%TO.N,Net-(U3-PF1-OSC_OUT)*%
X58500000Y-101520000D03*
%TO.P,R21,2*%
%TO.N,Net-(C25-Pad1)*%
X58500000Y-100000000D03*
%TD*%
D19*
%TO.P,TH1,1*%
%TO.N,+3.3V*%
X64500000Y-66425000D03*
%TO.P,TH1,2*%
%TO.N,/MCU/NTC_FET*%
X64500000Y-68075000D03*
%TD*%
D20*
%TO.P,Q9,1,S_1*%
%TO.N,/Gate_Driver/SHB*%
X89593000Y-64300000D03*
%TO.P,Q9,2,S_2*%
X88323000Y-64300000D03*
%TO.P,Q9,3,S_3*%
X87053000Y-64300000D03*
%TO.P,Q9,4,G*%
%TO.N,Net-(Q9-G)*%
X85783000Y-64300000D03*
D21*
%TO.P,Q9,5,D_1*%
%TO.N,VM*%
X85750000Y-70050000D03*
%TO.P,Q9,6,D_2*%
X87013000Y-70050000D03*
%TO.P,Q9,7,D_3*%
X88363000Y-70050000D03*
%TO.P,Q9,8,D_4*%
X89626000Y-70050000D03*
D11*
%TO.P,Q9,9,D_5*%
X89588000Y-69325000D03*
X89588000Y-68425000D03*
X89588000Y-67525000D03*
X89588000Y-66625000D03*
X88688000Y-69325000D03*
X88688000Y-68425000D03*
X88688000Y-67525000D03*
X88688000Y-66625000D03*
X87788000Y-69325000D03*
X87788000Y-68425000D03*
X87788000Y-67525000D03*
X87788000Y-66625000D03*
D22*
X87688000Y-67725000D03*
D11*
X86888000Y-69325000D03*
X86888000Y-68425000D03*
X86888000Y-67525000D03*
X86888000Y-66625000D03*
X85988000Y-69325000D03*
X85988000Y-68425000D03*
X85988000Y-67525000D03*
X85988000Y-66625000D03*
%TD*%
D23*
%TO.P,C18,1*%
%TO.N,+3.3V*%
X107137500Y-134500000D03*
%TO.P,C18,2*%
%TO.N,GND2*%
X108862500Y-134500000D03*
%TD*%
D24*
%TO.P,C39,1,+*%
%TO.N,VM*%
X125450000Y-118200000D03*
D25*
%TO.P,C39,2,-*%
%TO.N,GND*%
X117950000Y-118200000D03*
%TD*%
D23*
%TO.P,C28,1*%
%TO.N,+3.3VA*%
X68775000Y-115000000D03*
%TO.P,C28,2*%
%TO.N,GND2*%
X70500000Y-115000000D03*
%TD*%
D26*
%TO.P,RGB4,1*%
%TO.N,/Gate_Driver/GLB*%
X98240000Y-83760000D03*
%TO.P,RGB4,2*%
%TO.N,Net-(Q10-G)*%
X99760000Y-83760000D03*
%TD*%
D27*
%TO.P,C13,1*%
%TO.N,VM*%
X101750000Y-94720000D03*
%TO.P,C13,2*%
%TO.N,GND*%
X101750000Y-96280000D03*
%TD*%
D14*
%TO.P,R11,1*%
%TO.N,GND*%
X107587500Y-103130000D03*
%TO.P,R11,2*%
%TO.N,/Gate_Driver/SENS1*%
X109412500Y-103130000D03*
%TD*%
D28*
%TO.P,R4,1*%
%TO.N,VM*%
X99750000Y-94572499D03*
%TO.P,R4,2*%
%TO.N,Net-(U1-SHDN_N)*%
X99750000Y-96397499D03*
%TD*%
D26*
%TO.P,RGB3,1*%
%TO.N,/Gate_Driver/GHB*%
X86760000Y-85500000D03*
%TO.P,RGB3,2*%
%TO.N,Net-(Q9-G)*%
X85240000Y-85500000D03*
%TD*%
D29*
%TO.P,C14,1,+*%
%TO.N,VM*%
X106900000Y-93850000D03*
D30*
%TO.P,C14,2,-*%
%TO.N,GND*%
X106900000Y-96350000D03*
%TD*%
D24*
%TO.P,C37,1,+*%
%TO.N,VM*%
X125350000Y-99600000D03*
D25*
%TO.P,C37,2,-*%
%TO.N,GND*%
X117850000Y-99600000D03*
%TD*%
D26*
%TO.P,RGC3,1*%
%TO.N,/Gate_Driver/GHC*%
X77801800Y-84500000D03*
%TO.P,RGC3,2*%
%TO.N,Net-(Q11-G)*%
X76281800Y-84500000D03*
%TD*%
D15*
%TO.P,C32,1*%
%TO.N,MCU_PWR*%
X73600000Y-131462500D03*
%TO.P,C32,2*%
%TO.N,GND2*%
X73600000Y-129737500D03*
%TD*%
D16*
%TO.P,R18,1*%
%TO.N,Net-(D2-A)*%
X95037500Y-123750000D03*
%TO.P,R18,2*%
%TO.N,Net-(U3-PB12)*%
X93212500Y-123750000D03*
%TD*%
D20*
%TO.P,Q10,1,S_1*%
%TO.N,/Gate_Driver/SPB*%
X94943600Y-70750000D03*
%TO.P,Q10,2,S_2*%
X96213600Y-70750000D03*
%TO.P,Q10,3,S_3*%
X97483600Y-70750000D03*
%TO.P,Q10,4,G*%
%TO.N,Net-(Q10-G)*%
X98753600Y-70750000D03*
D21*
%TO.P,Q10,5,D_1*%
%TO.N,/Gate_Driver/SHB*%
X98786600Y-65000000D03*
%TO.P,Q10,6,D_2*%
X97523600Y-65000000D03*
%TO.P,Q10,7,D_3*%
X96173600Y-65000000D03*
%TO.P,Q10,8,D_4*%
X94910600Y-65000000D03*
D11*
%TO.P,Q10,9,D_5*%
X94948600Y-65725000D03*
X94948600Y-66625000D03*
X94948600Y-67525000D03*
X94948600Y-68425000D03*
X95848600Y-65725000D03*
X95848600Y-66625000D03*
X95848600Y-67525000D03*
X95848600Y-68425000D03*
X96748600Y-65725000D03*
X96748600Y-66625000D03*
X96748600Y-67525000D03*
X96748600Y-68425000D03*
D22*
X96848600Y-67325000D03*
D11*
X97648600Y-65725000D03*
X97648600Y-66625000D03*
X97648600Y-67525000D03*
X97648600Y-68425000D03*
X98548600Y-65725000D03*
X98548600Y-66625000D03*
X98548600Y-67525000D03*
X98548600Y-68425000D03*
%TD*%
D31*
%TO.P,C11,1*%
%TO.N,GND*%
X81462500Y-91250000D03*
%TO.P,C11,2*%
%TO.N,+3.3V*%
X83537500Y-91250000D03*
%TD*%
D15*
%TO.P,C8,1*%
%TO.N,/Gate_Driver/DVDD*%
X85300000Y-98562500D03*
%TO.P,C8,2*%
%TO.N,GND*%
X85300000Y-96837500D03*
%TD*%
D16*
%TO.P,R17,1*%
%TO.N,+3.3V*%
X105287500Y-132900000D03*
%TO.P,R17,2*%
%TO.N,/MCU/I2C1_SCL*%
X103462500Y-132900000D03*
%TD*%
D32*
%TO.P,U2,1,V_{IN}*%
%TO.N,MCU_PWR*%
X80637500Y-119200000D03*
%TO.P,U2,2,V_{SS}*%
%TO.N,GND2*%
X80637500Y-118250000D03*
%TO.P,U2,3,CE*%
%TO.N,MCU_PWR*%
X80637500Y-117300000D03*
%TO.P,U2,4,NC*%
%TO.N,unconnected-(U2-NC-Pad4)*%
X78362500Y-117300000D03*
%TO.P,U2,5,V_{OUT}*%
%TO.N,+3.3V*%
X78362500Y-119200000D03*
%TD*%
D33*
%TO.P,SW2,*%
%TO.N,*%
X51850000Y-96600000D03*
X49640000Y-96600000D03*
X51850000Y-103900000D03*
X49640000Y-103900000D03*
D34*
%TO.P,SW2,1,A*%
%TO.N,unconnected-(SW2-A-Pad1)*%
X52500000Y-98000000D03*
%TO.P,SW2,2,B*%
%TO.N,/MCU/RST*%
X52500000Y-101000000D03*
%TO.P,SW2,3,C*%
%TO.N,GND2*%
X52500000Y-102500000D03*
%TD*%
D15*
%TO.P,C33,1*%
%TO.N,/MCU/NTC_MTR*%
X60560000Y-125837500D03*
%TO.P,C33,2*%
%TO.N,GND2*%
X60560000Y-124112500D03*
%TD*%
D13*
%TO.P,C20,1*%
%TO.N,+3.3V*%
X75000000Y-119137500D03*
%TO.P,C20,2*%
%TO.N,GND2*%
X75000000Y-120862500D03*
%TD*%
D35*
%TO.P,U3,1,VBAT*%
%TO.N,+3.3V*%
X64065000Y-101750000D03*
%TO.P,U3,2,PC13*%
%TO.N,/Gate_Driver/INLA*%
X64065000Y-102250000D03*
%TO.P,U3,3,PC14-OSC32_IN*%
%TO.N,unconnected-(U3-PC14-OSC32_IN-Pad3)*%
X64065000Y-102750000D03*
%TO.P,U3,4,PC15-OSC32_OUT*%
%TO.N,unconnected-(U3-PC15-OSC32_OUT-Pad4)*%
X64065000Y-103250000D03*
%TO.P,U3,5,PF0-OSC_IN*%
%TO.N,Net-(U3-PF0-OSC_IN)*%
X64065000Y-103750000D03*
%TO.P,U3,6,PF1-OSC_OUT*%
%TO.N,Net-(U3-PF1-OSC_OUT)*%
X64065000Y-104250000D03*
%TO.P,U3,7,PG10-~{RST}*%
%TO.N,/MCU/RST*%
X64065000Y-104750000D03*
%TO.P,U3,8,PA0*%
%TO.N,/Gate_Driver/SOC*%
X64065000Y-105250000D03*
%TO.P,U3,9,PA1*%
%TO.N,/Gate_Driver/SOB*%
X64065000Y-105750000D03*
%TO.P,U3,10,PA2*%
%TO.N,/Gate_Driver/SOA*%
X64065000Y-106250000D03*
%TO.P,U3,11,PA3*%
%TO.N,/Gate_Driver/SENS1*%
X64065000Y-106750000D03*
%TO.P,U3,12,PA4*%
%TO.N,unconnected-(U3-PA4-Pad12)*%
X64065000Y-107250000D03*
D36*
%TO.P,U3,13,PA5*%
%TO.N,/Gate_Driver/SENS2*%
X64750000Y-107935000D03*
%TO.P,U3,14,PA6*%
%TO.N,/MCU/NTC_FET*%
X65250000Y-107935000D03*
%TO.P,U3,15,PA7*%
%TO.N,/MCU/NTC_MTR*%
X65750000Y-107935000D03*
%TO.P,U3,16,PC4*%
%TO.N,unconnected-(U3-PC4-Pad16)*%
X66250000Y-107935000D03*
%TO.P,U3,17,PB0*%
%TO.N,/Gate_Driver/INLB*%
X66750000Y-107935000D03*
%TO.P,U3,18,PB1*%
%TO.N,/Gate_Driver/INLC*%
X67250000Y-107935000D03*
%TO.P,U3,19,PB2*%
%TO.N,/MCU/VBus*%
X67750000Y-107935000D03*
%TO.P,U3,20,VREF+*%
%TO.N,+3.3VA*%
X68250000Y-107935000D03*
%TO.P,U3,21,VDDA*%
X68750000Y-107935000D03*
%TO.P,U3,22,PB10*%
%TO.N,/Gate_Driver/nSCS*%
X69250000Y-107935000D03*
%TO.P,U3,23,VDD*%
%TO.N,+3.3V*%
X69750000Y-107935000D03*
%TO.P,U3,24,PB11*%
%TO.N,/Gate_Driver/SENS3*%
X70250000Y-107935000D03*
D35*
%TO.P,U3,25,PB12*%
%TO.N,Net-(U3-PB12)*%
X70935000Y-107250000D03*
%TO.P,U3,26,PB13*%
%TO.N,Net-(U3-PB13)*%
X70935000Y-106750000D03*
%TO.P,U3,27,PB14*%
%TO.N,Net-(U3-PB14)*%
X70935000Y-106250000D03*
%TO.P,U3,28,PB15*%
%TO.N,/Gate_Driver/Enable*%
X70935000Y-105750000D03*
%TO.P,U3,29,PC6*%
%TO.N,/Gate_Driver/CAL*%
X70935000Y-105250000D03*
%TO.P,U3,30,PA8*%
%TO.N,/Gate_Driver/INHA*%
X70935000Y-104750000D03*
%TO.P,U3,31,PA9*%
%TO.N,/Gate_Driver/INHB*%
X70935000Y-104250000D03*
%TO.P,U3,32,PA10*%
%TO.N,/Gate_Driver/INHC*%
X70935000Y-103750000D03*
%TO.P,U3,33,PA11*%
%TO.N,/MCU/USB_DN*%
X70935000Y-103250000D03*
%TO.P,U3,34,PA12*%
%TO.N,/MCU/USB_DP*%
X70935000Y-102750000D03*
%TO.P,U3,35,VDD*%
%TO.N,+3.3V*%
X70935000Y-102250000D03*
%TO.P,U3,36,PA13*%
%TO.N,/MCU/SWDIO*%
X70935000Y-101750000D03*
D36*
%TO.P,U3,37,PA14*%
%TO.N,/MCU/SWCLK*%
X70250000Y-101065000D03*
%TO.P,U3,38,PA15*%
%TO.N,/MCU/I2C1_SCL*%
X69750000Y-101065000D03*
%TO.P,U3,39,PC10*%
%TO.N,/MCU/UART_N*%
X69250000Y-101065000D03*
%TO.P,U3,40,PC11*%
%TO.N,/MCU/UART_P*%
X68750000Y-101065000D03*
%TO.P,U3,41,PB3*%
%TO.N,/Gate_Driver/SCLK*%
X68250000Y-101065000D03*
%TO.P,U3,42,PB4*%
%TO.N,/Gate_Driver/SDO*%
X67750000Y-101065000D03*
%TO.P,U3,43,PB5*%
%TO.N,/Gate_Driver/SDI*%
X67250000Y-101065000D03*
%TO.P,U3,44,PB6*%
%TO.N,/Gate_Driver/FAULT*%
X66750000Y-101065000D03*
%TO.P,U3,45,PB7*%
%TO.N,/MCU/I2C1_SDA*%
X66250000Y-101065000D03*
%TO.P,U3,46,PB8-BOOT0*%
%TO.N,/MCU/BOOT0*%
X65750000Y-101065000D03*
%TO.P,U3,47,PB9*%
%TO.N,unconnected-(U3-PB9-Pad47)*%
X65250000Y-101065000D03*
%TO.P,U3,48,VDD*%
%TO.N,+3.3V*%
X64750000Y-101065000D03*
D37*
%TO.P,U3,49,VSS*%
%TO.N,GND2*%
X67500000Y-104500000D03*
%TD*%
D28*
%TO.P,R7,1*%
%TO.N,/Gate_Driver/FB*%
X95772500Y-100085000D03*
%TO.P,R7,2*%
%TO.N,GND*%
X95772500Y-101910000D03*
%TD*%
D17*
%TO.P,Rsense_C5,1*%
%TO.N,GND*%
X76610800Y-75636200D03*
%TO.P,Rsense_C5,2*%
%TO.N,/Gate_Driver/SPC*%
X71990800Y-75636200D03*
%TD*%
D13*
%TO.P,C15,1*%
%TO.N,/Gate_Driver/SENS1*%
X60000000Y-110137500D03*
%TO.P,C15,2*%
%TO.N,GND2*%
X60000000Y-111862500D03*
%TD*%
D14*
%TO.P,R1,1*%
%TO.N,GND2*%
X65425000Y-129250000D03*
%TO.P,R1,2*%
%TO.N,Net-(J2-CC1)*%
X67250000Y-129250000D03*
%TD*%
D38*
%TO.P,C24,1*%
%TO.N,+3.3V*%
X64362500Y-97537500D03*
%TO.P,C24,2*%
%TO.N,GND2*%
X62637500Y-97537500D03*
%TD*%
D39*
%TO.P,J4,1,Pin_1*%
%TO.N,+3.3V*%
X50400000Y-82200000D03*
D40*
%TO.P,J4,2,Pin_2*%
%TO.N,/MCU/SWDIO*%
X50400000Y-84740000D03*
%TO.P,J4,3,Pin_3*%
%TO.N,/MCU/SWCLK*%
X50400000Y-87280000D03*
%TO.P,J4,4,Pin_4*%
%TO.N,GND2*%
X50400000Y-89820000D03*
%TD*%
D41*
%TO.P,J2,A1,GND*%
%TO.N,GND2*%
X67510000Y-134152500D03*
D42*
%TO.P,J2,A4,VBUS*%
%TO.N,MCU_PWR*%
X68310000Y-134200000D03*
D43*
%TO.P,J2,A5,CC1*%
%TO.N,Net-(J2-CC1)*%
X69460000Y-134200000D03*
%TO.P,J2,A6,D+*%
%TO.N,/MCU/D+*%
X70460000Y-134200000D03*
%TO.P,J2,A7,D-*%
%TO.N,/MCU/D-*%
X70960000Y-134200000D03*
%TO.P,J2,A8,SBU1*%
%TO.N,unconnected-(J2-SBU1-PadA8)*%
X71960000Y-134200000D03*
D42*
%TO.P,J2,A9,VBUS*%
%TO.N,MCU_PWR*%
X73110000Y-134200000D03*
D41*
%TO.P,J2,A12,GND*%
%TO.N,GND2*%
X73910000Y-134152500D03*
%TO.P,J2,B1,GND*%
X73910000Y-134152500D03*
D42*
%TO.P,J2,B4,VBUS*%
%TO.N,MCU_PWR*%
X73110000Y-134200000D03*
D43*
%TO.P,J2,B5,CC2*%
%TO.N,Net-(J2-CC2)*%
X72460000Y-134200000D03*
%TO.P,J2,B6,D+*%
%TO.N,/MCU/D+*%
X71460000Y-134200000D03*
%TO.P,J2,B7,D-*%
%TO.N,/MCU/D-*%
X69960000Y-134200000D03*
%TO.P,J2,B8,SBU2*%
%TO.N,unconnected-(J2-SBU2-PadB8)*%
X68960000Y-134200000D03*
D42*
%TO.P,J2,B9,VBUS*%
%TO.N,MCU_PWR*%
X68310000Y-134200000D03*
D41*
%TO.P,J2,B12,GND*%
%TO.N,GND2*%
X67510000Y-134152500D03*
D44*
%TO.P,J2,S1,SHIELD*%
X66390000Y-134775000D03*
D45*
X66390000Y-138955000D03*
D44*
X75030000Y-134775000D03*
D45*
X75030000Y-138955000D03*
%TD*%
D15*
%TO.P,C30,1*%
%TO.N,+3.3V*%
X86150000Y-125312500D03*
%TO.P,C30,2*%
%TO.N,GND2*%
X86150000Y-123587500D03*
%TD*%
D38*
%TO.P,C10,1*%
%TO.N,GND*%
X105362500Y-111750000D03*
%TO.P,C10,2*%
%TO.N,MCU_PWR*%
X103637500Y-111750000D03*
%TD*%
D46*
%TO.P,Z2,1,K*%
%TO.N,VM*%
X111800000Y-92150000D03*
%TO.P,Z2,2,A*%
%TO.N,GND*%
X111800000Y-89100000D03*
%TD*%
D20*
%TO.P,Q8,1,S_1*%
%TO.N,/Gate_Driver/SPA*%
X104443600Y-70750000D03*
%TO.P,Q8,2,S_2*%
X105713600Y-70750000D03*
%TO.P,Q8,3,S_3*%
X106983600Y-70750000D03*
%TO.P,Q8,4,G*%
%TO.N,Net-(Q8-G)*%
X108253600Y-70750000D03*
D21*
%TO.P,Q8,5,D_1*%
%TO.N,/Gate_Driver/SHA*%
X108286600Y-65000000D03*
%TO.P,Q8,6,D_2*%
X107023600Y-65000000D03*
%TO.P,Q8,7,D_3*%
X105673600Y-65000000D03*
%TO.P,Q8,8,D_4*%
X104410600Y-65000000D03*
D11*
%TO.P,Q8,9,D_5*%
X104448600Y-65725000D03*
X104448600Y-66625000D03*
X104448600Y-67525000D03*
X104448600Y-68425000D03*
X105348600Y-65725000D03*
X105348600Y-66625000D03*
X105348600Y-67525000D03*
X105348600Y-68425000D03*
X106248600Y-65725000D03*
X106248600Y-66625000D03*
X106248600Y-67525000D03*
X106248600Y-68425000D03*
D22*
X106348600Y-67325000D03*
D11*
X107148600Y-65725000D03*
X107148600Y-66625000D03*
X107148600Y-67525000D03*
X107148600Y-68425000D03*
X108048600Y-65725000D03*
X108048600Y-66625000D03*
X108048600Y-67525000D03*
X108048600Y-68425000D03*
%TD*%
D14*
%TO.P,R12,1*%
%TO.N,/Gate_Driver/SHB*%
X96837500Y-89500000D03*
%TO.P,R12,2*%
%TO.N,/Gate_Driver/SENS2*%
X98662500Y-89500000D03*
%TD*%
D47*
%TO.P,D1,1,K*%
%TO.N,/Gate_Driver/kdk*%
X96000000Y-113100000D03*
%TO.P,D1,2,A*%
%TO.N,GND*%
X100300000Y-113100000D03*
%TD*%
D17*
%TO.P,Rsense_A5,1*%
%TO.N,GND*%
X112851800Y-75750000D03*
%TO.P,Rsense_A5,2*%
%TO.N,/Gate_Driver/SPA*%
X108231800Y-75750000D03*
%TD*%
D23*
%TO.P,C26,1*%
%TO.N,+3.3VA*%
X68775000Y-112900000D03*
%TO.P,C26,2*%
%TO.N,GND2*%
X70500000Y-112900000D03*
%TD*%
D26*
%TO.P,RGC4,1*%
%TO.N,/Gate_Driver/GLC*%
X77801800Y-86750000D03*
%TO.P,RGC4,2*%
%TO.N,Net-(Q12-G)*%
X76281800Y-86750000D03*
%TD*%
D23*
%TO.P,C27,1*%
%TO.N,Net-(U3-PF0-OSC_IN)*%
X58600000Y-97500000D03*
%TO.P,C27,2*%
%TO.N,GND2*%
X60325000Y-97500000D03*
%TD*%
D33*
%TO.P,w1,*%
%TO.N,*%
X51780000Y-106600000D03*
X49570000Y-106600000D03*
X51780000Y-113900000D03*
X49570000Y-113900000D03*
D34*
%TO.P,w1,1,A*%
%TO.N,+3.3V*%
X52430000Y-108000000D03*
%TO.P,w1,2,B*%
%TO.N,Net-(w1-B)*%
X52430000Y-111000000D03*
%TO.P,w1,3,C*%
%TO.N,GND2*%
X52430000Y-112500000D03*
%TD*%
D13*
%TO.P,C38,1*%
%TO.N,VM*%
X81032600Y-73450000D03*
%TO.P,C38,2*%
%TO.N,GND*%
X81032600Y-75175000D03*
%TD*%
D15*
%TO.P,C22,1*%
%TO.N,+3.3V*%
X73600000Y-100362500D03*
%TO.P,C22,2*%
%TO.N,GND2*%
X73600000Y-98637500D03*
%TD*%
D13*
%TO.P,C35,1*%
%TO.N,VM*%
X116500000Y-73387500D03*
%TO.P,C35,2*%
%TO.N,GND*%
X116500000Y-75112500D03*
%TD*%
D23*
%TO.P,C29,1*%
%TO.N,+3.3VA*%
X68775000Y-116900000D03*
%TO.P,C29,2*%
%TO.N,GND2*%
X70500000Y-116900000D03*
%TD*%
D14*
%TO.P,R27,1*%
%TO.N,/MCU/CAN-*%
X85587500Y-133000000D03*
%TO.P,R27,2*%
%TO.N,/MCU/CAN+*%
X87412500Y-133000000D03*
%TD*%
D48*
%TO.P,RGA3,1*%
%TO.N,/Gate_Driver/GHA*%
X106754399Y-89037401D03*
%TO.P,RGA3,2*%
%TO.N,Net-(Q7-G)*%
X107829201Y-87962599D03*
%TD*%
D49*
%TO.P,D4,1,K*%
%TO.N,GND2*%
X99212500Y-117750000D03*
%TO.P,D4,2,A*%
%TO.N,Net-(D4-A)*%
X97462500Y-117750000D03*
%TD*%
D50*
%TO.P,R28,1*%
%TO.N,GND2*%
X61800000Y-117225000D03*
%TO.P,R28,2*%
%TO.N,/MCU/NTC_FET*%
X61800000Y-115400000D03*
%TD*%
D14*
%TO.P,R5,1*%
%TO.N,/Gate_Driver/DVDD*%
X77672500Y-97700000D03*
%TO.P,R5,2*%
%TO.N,/Gate_Driver/FAULT*%
X79497500Y-97700000D03*
%TD*%
D13*
%TO.P,C25,1*%
%TO.N,Net-(C25-Pad1)*%
X55500000Y-97387500D03*
%TO.P,C25,2*%
%TO.N,GND2*%
X55500000Y-99112500D03*
%TD*%
%TO.P,C34,1*%
%TO.N,/MCU/NTC_FET*%
X60000000Y-115387500D03*
%TO.P,C34,2*%
%TO.N,GND2*%
X60000000Y-117112500D03*
%TD*%
D23*
%TO.P,C9,1,1*%
%TO.N,GND*%
X91220000Y-100990000D03*
%TO.P,C9,2,2*%
%TO.N,VM*%
X92945000Y-100990000D03*
%TD*%
D51*
%TO.P,J3,1,Pin_1*%
%TO.N,+3.3V*%
X53000000Y-120500000D03*
D52*
%TO.P,J3,2,Pin_2*%
%TO.N,/MCU/NTC_MTR*%
X53000000Y-125500000D03*
%TD*%
D16*
%TO.P,R20,1*%
%TO.N,Net-(D4-A)*%
X95037500Y-117750000D03*
%TO.P,R20,2*%
%TO.N,Net-(U3-PB14)*%
X93212500Y-117750000D03*
%TD*%
D53*
%TO.P,Z1,1,K*%
%TO.N,VM*%
X95221662Y-104921662D03*
%TO.P,Z1,2,A*%
%TO.N,GND*%
X97378338Y-107078338D03*
%TD*%
D54*
%TO.P,D5,1,I/O1_1*%
%TO.N,/MCU/D-*%
X69260000Y-128600000D03*
%TO.P,D5,2,GND*%
%TO.N,GND2*%
X70210000Y-128600000D03*
%TO.P,D5,3,I/O2_1*%
%TO.N,/MCU/D+*%
X71160000Y-128600000D03*
%TO.P,D5,4,I/O2_2*%
%TO.N,/MCU/USB_DP*%
X71160000Y-126100000D03*
%TO.P,D5,5,VBUS*%
%TO.N,MCU_PWR*%
X70210000Y-126100000D03*
%TO.P,D5,6,I/O1_2*%
%TO.N,/MCU/USB_DN*%
X69260000Y-126100000D03*
%TD*%
D55*
%TO.P,IC1,1,TXD*%
%TO.N,/MCU/UART_P*%
X87300000Y-128000000D03*
%TO.P,IC1,2,GND*%
%TO.N,GND2*%
X86650000Y-128000000D03*
%TO.P,IC1,3,VCC*%
%TO.N,+3.3V*%
X86000000Y-128000000D03*
%TO.P,IC1,4,RXD*%
%TO.N,/MCU/UART_N*%
X85350000Y-128000000D03*
%TO.P,IC1,5,SHDN*%
%TO.N,Net-(IC1-SHDN)*%
X85350000Y-130500000D03*
%TO.P,IC1,6,CANL*%
%TO.N,/MCU/CAN-*%
X86000000Y-130500000D03*
%TO.P,IC1,7,CANH*%
%TO.N,/MCU/CAN+*%
X86650000Y-130500000D03*
%TO.P,IC1,8,S*%
%TO.N,/MCU/PD2*%
X87300000Y-130500000D03*
%TD*%
D28*
%TO.P,R26,1*%
%TO.N,Net-(IC1-SHDN)*%
X89650000Y-128787500D03*
%TO.P,R26,2*%
%TO.N,/MCU/PD2*%
X89650000Y-130612500D03*
%TD*%
D49*
%TO.P,D2,1,K*%
%TO.N,GND2*%
X99212500Y-123750000D03*
%TO.P,D2,2,A*%
%TO.N,Net-(D2-A)*%
X97462500Y-123750000D03*
%TD*%
D14*
%TO.P,R23,1*%
%TO.N,Net-(R23-Pad1)*%
X116087500Y-135000000D03*
%TO.P,R23,2*%
%TO.N,GND2*%
X117912500Y-135000000D03*
%TD*%
%TO.P,R9,1*%
%TO.N,/Gate_Driver/DVDD*%
X77687500Y-99700000D03*
%TO.P,R9,2*%
%TO.N,/Gate_Driver/SDO*%
X79512500Y-99700000D03*
%TD*%
D56*
%TO.P,J1,1,1*%
%TO.N,+3.3V*%
X103400000Y-135900000D03*
%TO.P,J1,2,2*%
%TO.N,/MCU/I2C1_SCL*%
X102150000Y-135900000D03*
%TO.P,J1,3,3*%
%TO.N,/MCU/I2C1_SDA*%
X100900000Y-135900000D03*
%TO.P,J1,4,4*%
%TO.N,GND2*%
X99650000Y-135900000D03*
D57*
%TO.P,J1,S1,S1*%
%TO.N,unconnected-(J1-PadS1)*%
X97800000Y-139250000D03*
%TO.P,J1,S2,S2*%
%TO.N,unconnected-(J1-PadS2)*%
X105250000Y-139250000D03*
%TD*%
D16*
%TO.P,R15,1*%
%TO.N,GND*%
X72000000Y-91500000D03*
%TO.P,R15,2*%
%TO.N,/Gate_Driver/SENS3*%
X70175000Y-91500000D03*
%TD*%
D38*
%TO.P,C21,1*%
%TO.N,+3.3V*%
X72262500Y-111000000D03*
%TO.P,C21,2*%
%TO.N,GND2*%
X70537500Y-111000000D03*
%TD*%
D58*
%TO.P,D6,1,K*%
%TO.N,/MCU/VBus*%
X116087500Y-137843750D03*
%TO.P,D6,2,A*%
%TO.N,GND2*%
X119687500Y-137843750D03*
%TD*%
D11*
%TO.P,NT1,1,1*%
%TO.N,GND*%
X136600000Y-76600000D03*
%TO.P,NT1,2,2*%
%TO.N,GND2*%
X136600000Y-77800000D03*
%TD*%
D15*
%TO.P,C7,1*%
%TO.N,/Gate_Driver/kdk*%
X92750000Y-109612500D03*
%TO.P,C7,2*%
%TO.N,Net-(U1-CB)*%
X92750000Y-107887500D03*
%TD*%
D14*
%TO.P,R10,1*%
%TO.N,/Gate_Driver/SHA*%
X107595000Y-101130000D03*
%TO.P,R10,2*%
%TO.N,/Gate_Driver/SENS1*%
X109420000Y-101130000D03*
%TD*%
D49*
%TO.P,D3,1,K*%
%TO.N,GND2*%
X99212500Y-120750000D03*
%TO.P,D3,2,A*%
%TO.N,Net-(D3-A)*%
X97462500Y-120750000D03*
%TD*%
D15*
%TO.P,C6,1,1*%
%TO.N,Net-(U1-CPL)*%
X101750000Y-101425000D03*
%TO.P,C6,2,2*%
%TO.N,Net-(U1-CPH)*%
X101750000Y-99700000D03*
%TD*%
D59*
%TO.P,Y1,1*%
%TO.N,Net-(C25-Pad1)*%
X55231250Y-92750000D03*
%TO.P,Y1,2*%
%TO.N,Net-(U3-PF0-OSC_IN)*%
X64731250Y-92750000D03*
%TD*%
D16*
%TO.P,R19,1*%
%TO.N,Net-(D3-A)*%
X95037500Y-120750000D03*
%TO.P,R19,2*%
%TO.N,Net-(U3-PB13)*%
X93212500Y-120750000D03*
%TD*%
D13*
%TO.P,C36,1*%
%TO.N,VM*%
X85500000Y-73450000D03*
%TO.P,C36,2*%
%TO.N,GND*%
X85500000Y-75175000D03*
%TD*%
D20*
%TO.P,Q11,1,S_1*%
%TO.N,/Gate_Driver/SHC*%
X80574800Y-64300000D03*
%TO.P,Q11,2,S_2*%
X79304800Y-64300000D03*
%TO.P,Q11,3,S_3*%
X78034800Y-64300000D03*
%TO.P,Q11,4,G*%
%TO.N,Net-(Q11-G)*%
X76764800Y-64300000D03*
D21*
%TO.P,Q11,5,D_1*%
%TO.N,VM*%
X76731800Y-70050000D03*
%TO.P,Q11,6,D_2*%
X77994800Y-70050000D03*
%TO.P,Q11,7,D_3*%
X79344800Y-70050000D03*
%TO.P,Q11,8,D_4*%
X80607800Y-70050000D03*
D11*
%TO.P,Q11,9,D_5*%
X80569800Y-69325000D03*
X80569800Y-68425000D03*
X80569800Y-67525000D03*
X80569800Y-66625000D03*
X79669800Y-69325000D03*
X79669800Y-68425000D03*
X79669800Y-67525000D03*
X79669800Y-66625000D03*
X78769800Y-69325000D03*
X78769800Y-68425000D03*
X78769800Y-67525000D03*
X78769800Y-66625000D03*
D22*
X78669800Y-67725000D03*
D11*
X77869800Y-69325000D03*
X77869800Y-68425000D03*
X77869800Y-67525000D03*
X77869800Y-66625000D03*
X76969800Y-69325000D03*
X76969800Y-68425000D03*
X76969800Y-67525000D03*
X76969800Y-66625000D03*
%TD*%
D23*
%TO.P,C19,1*%
%TO.N,MCU_PWR*%
X84137500Y-119200000D03*
%TO.P,C19,2*%
%TO.N,GND2*%
X85862500Y-119200000D03*
%TD*%
D60*
%TO.P,R6,1*%
%TO.N,/Gate_Driver/FB*%
X97772500Y-100262500D03*
%TO.P,R6,2*%
%TO.N,MCU_PWR*%
X97772500Y-101732500D03*
%TD*%
D16*
%TO.P,R24,1*%
%TO.N,VM*%
X117912500Y-132750000D03*
%TO.P,R24,2*%
%TO.N,Net-(R23-Pad1)*%
X116087500Y-132750000D03*
%TD*%
D20*
%TO.P,Q12,1,S_1*%
%TO.N,/Gate_Driver/SPC*%
X67604200Y-70750000D03*
%TO.P,Q12,2,S_2*%
X68874200Y-70750000D03*
%TO.P,Q12,3,S_3*%
X70144200Y-70750000D03*
%TO.P,Q12,4,G*%
%TO.N,Net-(Q12-G)*%
X71414200Y-70750000D03*
D21*
%TO.P,Q12,5,D_1*%
%TO.N,/Gate_Driver/SHC*%
X71447200Y-65000000D03*
%TO.P,Q12,6,D_2*%
X70184200Y-65000000D03*
%TO.P,Q12,7,D_3*%
X68834200Y-65000000D03*
%TO.P,Q12,8,D_4*%
X67571200Y-65000000D03*
D11*
%TO.P,Q12,9,D_5*%
X67609200Y-65725000D03*
X67609200Y-66625000D03*
X67609200Y-67525000D03*
X67609200Y-68425000D03*
X68509200Y-65725000D03*
X68509200Y-66625000D03*
X68509200Y-67525000D03*
X68509200Y-68425000D03*
X69409200Y-65725000D03*
X69409200Y-66625000D03*
X69409200Y-67525000D03*
X69409200Y-68425000D03*
D22*
X69509200Y-67325000D03*
D11*
X70309200Y-65725000D03*
X70309200Y-66625000D03*
X70309200Y-67525000D03*
X70309200Y-68425000D03*
X71209200Y-65725000D03*
X71209200Y-66625000D03*
X71209200Y-67525000D03*
X71209200Y-68425000D03*
%TD*%
D17*
%TO.P,Rsense_A4,1*%
%TO.N,GND*%
X112851800Y-80716000D03*
%TO.P,Rsense_A4,2*%
%TO.N,/Gate_Driver/SPA*%
X108231800Y-80716000D03*
%TD*%
D28*
%TO.P,R25,1*%
%TO.N,GND2*%
X58500000Y-123887500D03*
%TO.P,R25,2*%
%TO.N,/MCU/NTC_MTR*%
X58500000Y-125712500D03*
%TD*%
D56*
%TO.P,J5,1,1*%
%TO.N,unconnected-(J5-Pad1)*%
X88650000Y-135900000D03*
%TO.P,J5,2,2*%
%TO.N,/MCU/CAN+*%
X87400000Y-135900000D03*
%TO.P,J5,3,3*%
%TO.N,/MCU/CAN-*%
X86150000Y-135900000D03*
%TO.P,J5,4,4*%
%TO.N,GND2*%
X84900000Y-135900000D03*
D57*
%TO.P,J5,S1,S1*%
%TO.N,unconnected-(J5-PadS1)*%
X83050000Y-139250000D03*
%TO.P,J5,S2,S2*%
%TO.N,unconnected-(J5-PadS2)*%
X90500000Y-139250000D03*
%TD*%
D20*
%TO.P,Q7,1,S_1*%
%TO.N,/Gate_Driver/SHA*%
X117414200Y-64300000D03*
%TO.P,Q7,2,S_2*%
X116144200Y-64300000D03*
%TO.P,Q7,3,S_3*%
X114874200Y-64300000D03*
%TO.P,Q7,4,G*%
%TO.N,Net-(Q7-G)*%
X113604200Y-64300000D03*
D21*
%TO.P,Q7,5,D_1*%
%TO.N,VM*%
X113571200Y-70050000D03*
%TO.P,Q7,6,D_2*%
X114834200Y-70050000D03*
%TO.P,Q7,7,D_3*%
X116184200Y-70050000D03*
%TO.P,Q7,8,D_4*%
X117447200Y-70050000D03*
D11*
%TO.P,Q7,9,D_5*%
X117409200Y-69325000D03*
X117409200Y-68425000D03*
X117409200Y-67525000D03*
X117409200Y-66625000D03*
X116509200Y-69325000D03*
X116509200Y-68425000D03*
X116509200Y-67525000D03*
X116509200Y-66625000D03*
X115609200Y-69325000D03*
X115609200Y-68425000D03*
X115609200Y-67525000D03*
X115609200Y-66625000D03*
D22*
X115509200Y-67725000D03*
D11*
X114709200Y-69325000D03*
X114709200Y-68425000D03*
X114709200Y-67525000D03*
X114709200Y-66625000D03*
X113809200Y-69325000D03*
X113809200Y-68425000D03*
X113809200Y-67525000D03*
X113809200Y-66625000D03*
%TD*%
D61*
%TO.P,D7,1,K*%
%TO.N,MCU_PWR*%
X101350431Y-106049569D03*
%TO.P,D7,2,A*%
%TO.N,GND*%
X104249569Y-103150431D03*
%TD*%
D14*
%TO.P,R13,1*%
%TO.N,GND*%
X96837500Y-87775000D03*
%TO.P,R13,2*%
%TO.N,/Gate_Driver/SENS2*%
X98662500Y-87775000D03*
%TD*%
D48*
%TO.P,RGA4,1*%
%TO.N,/Gate_Driver/GLA*%
X105462599Y-87787401D03*
%TO.P,RGA4,2*%
%TO.N,Net-(Q8-G)*%
X106537401Y-86712599D03*
%TD*%
D62*
%TO.P,L1,1*%
%TO.N,MCU_PWR*%
X84611200Y-111750000D03*
%TO.P,L1,2*%
%TO.N,/Gate_Driver/kdk*%
X90250000Y-111750000D03*
%TD*%
D15*
%TO.P,C31,1*%
%TO.N,/MCU/RST*%
X55220000Y-103212500D03*
%TO.P,C31,2*%
%TO.N,GND2*%
X55220000Y-101487500D03*
%TD*%
D17*
%TO.P,Rsense_C4,1*%
%TO.N,GND*%
X76610800Y-80602200D03*
%TO.P,Rsense_C4,2*%
%TO.N,/Gate_Driver/SPC*%
X71990800Y-80602200D03*
%TD*%
D50*
%TO.P,R22,1*%
%TO.N,Net-(w1-B)*%
X54500000Y-110912500D03*
%TO.P,R22,2*%
%TO.N,/MCU/BOOT0*%
X54500000Y-109087500D03*
%TD*%
D17*
%TO.P,Rsense_B5,1*%
%TO.N,GND*%
X89940000Y-80750000D03*
%TO.P,Rsense_B5,2*%
%TO.N,/Gate_Driver/SPB*%
X94560000Y-80750000D03*
%TD*%
D63*
%TO.P,U1,1,FB*%
%TO.N,/Gate_Driver/FB*%
X94435000Y-96750000D03*
%TO.P,U1,2,PGND*%
%TO.N,GND*%
X94435000Y-96250000D03*
%TO.P,U1,3,CPL*%
%TO.N,Net-(U1-CPL)*%
X94435000Y-95750000D03*
%TO.P,U1,4,CPH*%
%TO.N,Net-(U1-CPH)*%
X94435000Y-95250000D03*
%TO.P,U1,5,VCP*%
%TO.N,Net-(U1-VCP)*%
X94435000Y-94750000D03*
%TO.P,U1,6,VM*%
%TO.N,VM*%
X94435000Y-94250000D03*
%TO.P,U1,7,VDRAIN*%
X94435000Y-93750000D03*
%TO.P,U1,8,GHA*%
%TO.N,/Gate_Driver/GHA*%
X94435000Y-93250000D03*
%TO.P,U1,9,SHA*%
%TO.N,/Gate_Driver/SHA*%
X94435000Y-92750000D03*
%TO.P,U1,10,GLA*%
%TO.N,/Gate_Driver/GLA*%
X94435000Y-92250000D03*
%TO.P,U1,11,SPA*%
%TO.N,/Gate_Driver/SPA*%
X94435000Y-91750000D03*
%TO.P,U1,12,SNA*%
%TO.N,GND*%
X94435000Y-91250000D03*
D64*
%TO.P,U1,13,SNB*%
X93750000Y-90565000D03*
%TO.P,U1,14,SPB*%
%TO.N,/Gate_Driver/SPB*%
X93250000Y-90565000D03*
%TO.P,U1,15,GLB*%
%TO.N,/Gate_Driver/GLB*%
X92750000Y-90565000D03*
%TO.P,U1,16,SHB*%
%TO.N,/Gate_Driver/SHB*%
X92250000Y-90565000D03*
%TO.P,U1,17,GHB*%
%TO.N,/Gate_Driver/GHB*%
X91750000Y-90565000D03*
%TO.P,U1,18,GHC*%
%TO.N,/Gate_Driver/GHC*%
X91250000Y-90565000D03*
%TO.P,U1,19,SHC*%
%TO.N,/Gate_Driver/SHC*%
X90750000Y-90565000D03*
%TO.P,U1,20,GLC*%
%TO.N,/Gate_Driver/GLC*%
X90250000Y-90565000D03*
%TO.P,U1,21,SPC*%
%TO.N,/Gate_Driver/SPC*%
X89750000Y-90565000D03*
%TO.P,U1,22,SNC*%
%TO.N,GND*%
X89250000Y-90565000D03*
%TO.P,U1,23,SOC*%
%TO.N,/Gate_Driver/SOC*%
X88750000Y-90565000D03*
%TO.P,U1,24,SOB*%
%TO.N,/Gate_Driver/SOB*%
X88250000Y-90565000D03*
D63*
%TO.P,U1,25,SOA*%
%TO.N,/Gate_Driver/SOA*%
X87565000Y-91250000D03*
%TO.P,U1,26,VREF*%
%TO.N,+3.3V*%
X87565000Y-91750000D03*
%TO.P,U1,27,DGND*%
%TO.N,GND*%
X87565000Y-92250000D03*
%TO.P,U1,28,FAULT_N*%
%TO.N,/Gate_Driver/FAULT*%
X87565000Y-92750000D03*
%TO.P,U1,29,SDO*%
%TO.N,/Gate_Driver/SDO*%
X87565000Y-93250000D03*
%TO.P,U1,30,SDI*%
%TO.N,/Gate_Driver/SDI*%
X87565000Y-93750000D03*
%TO.P,U1,31,SCLK*%
%TO.N,/Gate_Driver/SCLK*%
X87565000Y-94250000D03*
%TO.P,U1,32,SCS_N*%
%TO.N,/Gate_Driver/nSCS*%
X87565000Y-94750000D03*
%TO.P,U1,33,ENABLE*%
%TO.N,/Gate_Driver/Enable*%
X87565000Y-95250000D03*
%TO.P,U1,34,CAL*%
%TO.N,/Gate_Driver/CAL*%
X87565000Y-95750000D03*
%TO.P,U1,35,AGND*%
%TO.N,GND*%
X87565000Y-96250000D03*
%TO.P,U1,36,DVDD*%
%TO.N,/Gate_Driver/DVDD*%
X87565000Y-96750000D03*
D64*
%TO.P,U1,37,INHA*%
%TO.N,/Gate_Driver/INHA*%
X88250000Y-97435000D03*
%TO.P,U1,38,INLA*%
%TO.N,/Gate_Driver/INLA*%
X88750000Y-97435000D03*
%TO.P,U1,39,INHB*%
%TO.N,/Gate_Driver/INHB*%
X89250000Y-97435000D03*
%TO.P,U1,40,INLB*%
%TO.N,/Gate_Driver/INLB*%
X89750000Y-97435000D03*
%TO.P,U1,41,INHC*%
%TO.N,/Gate_Driver/INHC*%
X90250000Y-97435000D03*
%TO.P,U1,42,INLC*%
%TO.N,/Gate_Driver/INLC*%
X90750000Y-97435000D03*
%TO.P,U1,43,BGND*%
%TO.N,GND*%
X91250000Y-97435000D03*
%TO.P,U1,44,CB*%
%TO.N,Net-(U1-CB)*%
X91750000Y-97435000D03*
%TO.P,U1,45,SW*%
%TO.N,/Gate_Driver/kdk*%
X92250000Y-97435000D03*
%TO.P,U1,46,NC*%
%TO.N,unconnected-(U1-NC-Pad46)*%
X92750000Y-97435000D03*
%TO.P,U1,47,VIN*%
%TO.N,VM*%
X93250000Y-97435000D03*
%TO.P,U1,48,SHDN_N*%
%TO.N,Net-(U1-SHDN_N)*%
X93750000Y-97435000D03*
D65*
%TO.P,U1,49,EP*%
%TO.N,GND*%
X91000000Y-94000000D03*
%TD*%
D66*
%TO.P,C12,1*%
%TO.N,Net-(U1-VCP)*%
X97750000Y-96275000D03*
%TO.P,C12,2*%
%TO.N,VM*%
X97750000Y-94725000D03*
%TD*%
D49*
%TO.P,L2,1*%
%TO.N,+3.3V*%
X70625000Y-118900000D03*
%TO.P,L2,2*%
%TO.N,+3.3VA*%
X68875000Y-118900000D03*
%TD*%
D67*
%TO.N,Net-(U1-CPL)*%
X99250000Y-101500000D03*
D68*
X95500000Y-96000000D03*
%TO.N,Net-(U1-CPH)*%
X96763565Y-96308970D03*
D67*
X100000000Y-99500000D03*
D68*
%TO.N,/Gate_Driver/DVDD*%
X85250000Y-98500000D03*
X77672498Y-97700000D03*
%TO.N,VM*%
X78000000Y-72500000D03*
X87000000Y-71000000D03*
X127000000Y-68000000D03*
X121000000Y-68000000D03*
X125500000Y-66500000D03*
X84000000Y-71000000D03*
X124000000Y-72500000D03*
X95750000Y-94000000D03*
X122500000Y-72500000D03*
X82500000Y-72500000D03*
X122500000Y-69500000D03*
X121000000Y-72500000D03*
X90000000Y-71000000D03*
X122500000Y-68000000D03*
X76500000Y-71000000D03*
X127000000Y-71000000D03*
X122500000Y-71000000D03*
X88500000Y-72500000D03*
X85500000Y-72500000D03*
X84000000Y-72500000D03*
X125500000Y-72500000D03*
X124000000Y-69500000D03*
X122500000Y-66500000D03*
X121000000Y-71000000D03*
X88500000Y-71000000D03*
X127000000Y-69500000D03*
X90000000Y-72500000D03*
X127000000Y-72500000D03*
X125500000Y-71000000D03*
X93237498Y-101000000D03*
X125500000Y-69500000D03*
X81000000Y-72500000D03*
X76500000Y-72500000D03*
X121000000Y-66500000D03*
X79500000Y-72500000D03*
X125500000Y-68000000D03*
X79500000Y-71000000D03*
X87000000Y-72500000D03*
X85500000Y-71000000D03*
X81000000Y-71000000D03*
X82500000Y-71000000D03*
X124000000Y-68000000D03*
X124000000Y-71000000D03*
X124000000Y-66500000D03*
X127000000Y-66500000D03*
X121000000Y-69500000D03*
X78000000Y-71000000D03*
%TO.N,GND*%
X91630025Y-93880025D03*
X90000000Y-76000000D03*
X113250000Y-81750000D03*
X82500000Y-81750000D03*
X113250000Y-75750000D03*
X78000000Y-76000000D03*
X76500000Y-79500000D03*
X87000000Y-76000000D03*
X76500000Y-78000000D03*
X88500000Y-81750000D03*
X90250000Y-94000000D03*
X84000000Y-81750000D03*
X87000000Y-79500000D03*
X79500000Y-79500000D03*
X95772500Y-101677500D03*
X114750000Y-78750000D03*
D67*
X107587500Y-103130000D03*
D68*
X76500000Y-76000000D03*
X101800000Y-96400000D03*
X88950000Y-94000000D03*
X104400000Y-103300000D03*
X114750000Y-75750000D03*
X88500000Y-78000000D03*
X114750000Y-80250000D03*
X92630025Y-95130025D03*
X90250000Y-92500000D03*
X114750000Y-77250000D03*
X88950000Y-95500000D03*
X93000000Y-92500000D03*
X114750000Y-81750000D03*
X82500000Y-76000000D03*
X85500000Y-76000000D03*
X116250000Y-80250000D03*
X90000000Y-79500000D03*
X90000000Y-78000000D03*
X91869975Y-95619975D03*
X116250000Y-81750000D03*
X90130025Y-95380025D03*
X79500000Y-78000000D03*
X81000000Y-81750000D03*
X113250000Y-78750000D03*
X111800000Y-89100000D03*
X113250000Y-77250000D03*
X88500000Y-76000000D03*
X87000000Y-81750000D03*
X90000000Y-81750000D03*
X116250000Y-78750000D03*
D67*
X105537500Y-111800000D03*
X108800000Y-95500000D03*
D68*
X116250000Y-77250000D03*
X84000000Y-76000000D03*
X78000000Y-81750000D03*
X87000000Y-78000000D03*
X85500000Y-81750000D03*
X79750000Y-90500000D03*
X81000000Y-76000000D03*
X88500000Y-79500000D03*
X116250000Y-75750000D03*
D67*
X100300000Y-113050000D03*
D68*
X78000000Y-79500000D03*
X79500000Y-76000000D03*
X88950000Y-92500000D03*
X78000000Y-78000000D03*
X91750000Y-92500000D03*
X79500000Y-81750000D03*
X93244975Y-94244975D03*
X113250000Y-80250000D03*
X73750000Y-91000000D03*
X76500000Y-81750000D03*
X96837500Y-87775000D03*
%TO.N,/Gate_Driver/kdk*%
X92500000Y-99000000D03*
X94500000Y-108000000D03*
%TO.N,MCU_PWR*%
X70250000Y-125250000D03*
X80500000Y-122750000D03*
X101350433Y-106049570D03*
X89000000Y-106500000D03*
%TO.N,+3.3V*%
X52500000Y-108000000D03*
X69000000Y-93750000D03*
X73490000Y-111000000D03*
X60700000Y-101100000D03*
X83250000Y-91000000D03*
X63500000Y-135750000D03*
X81750000Y-125000000D03*
X73701487Y-100467611D03*
%TO.N,/Gate_Driver/SENS1*%
X61500000Y-108900000D03*
X109412500Y-103130000D03*
%TO.N,/Gate_Driver/SENS2*%
X98000000Y-90750000D03*
X63500000Y-110137500D03*
%TO.N,/Gate_Driver/SENS3*%
X70400000Y-92600000D03*
X73430000Y-107939872D03*
%TO.N,/MCU/NTC_FET*%
X64500000Y-69900000D03*
X56500000Y-114700000D03*
%TO.N,/MCU/RST*%
X52750000Y-101000000D03*
X55220000Y-103387500D03*
%TO.N,/MCU/VBus*%
X116087501Y-137843752D03*
X64100000Y-136800000D03*
%TO.N,/MCU/UART_P*%
X76500001Y-122000001D03*
X74500000Y-95000000D03*
X74884305Y-113288626D03*
%TO.N,/MCU/UART_N*%
X77000000Y-95850003D03*
X77250000Y-123000000D03*
X75500000Y-112000000D03*
%TO.N,/MCU/SWDIO*%
X72285429Y-99795331D03*
%TO.N,/MCU/SWCLK*%
X71636531Y-99246299D03*
%TO.N,/MCU/I2C1_SCL*%
X84240380Y-106340380D03*
X103500000Y-132900000D03*
X80700000Y-104855310D03*
%TO.N,/Gate_Driver/SHA*%
X112500000Y-56750000D03*
X111000000Y-59750000D03*
X108000000Y-58250000D03*
X112500000Y-55250000D03*
X114000000Y-56750000D03*
X111000000Y-53750000D03*
X102300000Y-86500000D03*
X114000000Y-58250000D03*
X112500000Y-58250000D03*
X114000000Y-55250000D03*
X106500000Y-53750000D03*
X106500000Y-58250000D03*
X108000000Y-53750000D03*
X111000000Y-56750000D03*
X108000000Y-59750000D03*
X109500000Y-53750000D03*
X106500000Y-55250000D03*
X112500000Y-59750000D03*
X111000000Y-55250000D03*
X109500000Y-58250000D03*
X108000000Y-55250000D03*
X104100000Y-98600000D03*
X114000000Y-59750000D03*
X102250000Y-92250000D03*
X109500000Y-59750000D03*
X108000000Y-56750000D03*
X111000000Y-58250000D03*
X114000000Y-53750000D03*
X106500000Y-56750000D03*
X109500000Y-56750000D03*
X109500000Y-55250000D03*
X106500000Y-59750000D03*
X112500000Y-53750000D03*
%TO.N,/Gate_Driver/SHB*%
X96000000Y-55250000D03*
X93000000Y-59750000D03*
X96000000Y-59750000D03*
X97500000Y-59750000D03*
X96750000Y-89500000D03*
X90000000Y-55250000D03*
X91500000Y-53750000D03*
X97500000Y-53750000D03*
X90000000Y-59750000D03*
X94500000Y-55250000D03*
X90000000Y-56750000D03*
X93000000Y-53750000D03*
X94500000Y-53750000D03*
X90000000Y-53750000D03*
X96000000Y-58250000D03*
X97500000Y-55250000D03*
X97500000Y-56750000D03*
X91500000Y-55250000D03*
X94500000Y-58250000D03*
X94500000Y-59750000D03*
X94750000Y-85750000D03*
X96000000Y-53750000D03*
X97500000Y-58250000D03*
X96000000Y-56750000D03*
X94500000Y-56750000D03*
X91500000Y-59750000D03*
X91500000Y-58250000D03*
X93000000Y-55250000D03*
X93000000Y-58250000D03*
X90000000Y-58250000D03*
X91500000Y-56750000D03*
X93000000Y-56750000D03*
%TO.N,/Gate_Driver/SPB*%
X94000000Y-82000000D03*
X94000000Y-89000000D03*
%TO.N,/Gate_Driver/SHC*%
X89750000Y-88500000D03*
X74750000Y-55250000D03*
X73250000Y-58250000D03*
X70250000Y-53750000D03*
X76250000Y-53750000D03*
X77750000Y-55250000D03*
X76250000Y-58250000D03*
X77750000Y-58250000D03*
X73250000Y-55250000D03*
X71750000Y-58250000D03*
X71750000Y-55250000D03*
X70250000Y-55250000D03*
X73250000Y-56750000D03*
X76250000Y-59750000D03*
X74750000Y-56750000D03*
X76250000Y-55250000D03*
X71750000Y-59750000D03*
X74750000Y-59750000D03*
X77750000Y-59750000D03*
X73250000Y-59750000D03*
X73750000Y-89500000D03*
X70250000Y-59750000D03*
X71750000Y-53750000D03*
X71750000Y-56750000D03*
X74750000Y-53750000D03*
X70250000Y-58250000D03*
X77750000Y-56750000D03*
X77750000Y-53750000D03*
X70250000Y-56750000D03*
X73250000Y-53750000D03*
X74750000Y-58250000D03*
X76250000Y-56750000D03*
%TO.N,/Gate_Driver/FAULT*%
X82300000Y-92460000D03*
X79320002Y-97699999D03*
%TO.N,/Gate_Driver/SDO*%
X83665380Y-95165380D03*
X86200000Y-93100000D03*
X73368647Y-93693048D03*
D67*
%TO.N,/Gate_Driver/FB*%
X95482743Y-98350003D03*
D68*
X95454434Y-96909029D03*
%TO.N,/MCU/BOOT0*%
X54500000Y-109000000D03*
X65750000Y-96250000D03*
%TO.N,/Gate_Driver/SOA*%
X86500000Y-91000000D03*
X61698130Y-106425000D03*
%TO.N,/Gate_Driver/INHC*%
X85115383Y-104215377D03*
X75000000Y-103500000D03*
%TO.N,/Gate_Driver/SOB*%
X86500000Y-90000000D03*
X60698130Y-105925000D03*
%TO.N,/Gate_Driver/Enable*%
X77294241Y-105294238D03*
X82000000Y-99000000D03*
%TO.N,/Gate_Driver/INHA*%
X85500000Y-99750000D03*
X76250000Y-104500000D03*
%TO.N,/Gate_Driver/SOC*%
X59962912Y-105425000D03*
X86500000Y-89125000D03*
%TO.N,/Gate_Driver/INLC*%
X83250000Y-107000000D03*
X67250000Y-110250000D03*
%TO.N,/Gate_Driver/INHB*%
X83125000Y-104250000D03*
X73390945Y-103900000D03*
%TO.N,/Gate_Driver/INLA*%
X62400000Y-102700000D03*
X83000000Y-101750000D03*
%TO.N,/Gate_Driver/INLB*%
X66600000Y-109459311D03*
X81750000Y-106000000D03*
%TO.N,/Gate_Driver/CAL*%
X73351350Y-105302645D03*
X83334620Y-97834620D03*
%TO.N,Net-(U3-PB12)*%
X93250000Y-123750000D03*
X81000000Y-109250000D03*
X76854102Y-107217654D03*
%TO.N,Net-(U3-PB13)*%
X81750000Y-108750000D03*
X77438061Y-106600000D03*
X93352298Y-120647702D03*
%TO.N,Net-(U3-PB14)*%
X78007425Y-105756701D03*
X82415380Y-108165380D03*
X93250000Y-117750000D03*
%TO.N,/MCU/I2C1_SDA*%
X66500002Y-95500000D03*
X99250000Y-130750000D03*
%TO.N,GND2*%
X99237195Y-122291791D03*
X87500000Y-126250000D03*
X55220000Y-101312500D03*
X68700000Y-139000000D03*
X65500000Y-106500000D03*
X70594500Y-135850000D03*
X69500000Y-102900000D03*
X85862500Y-119200002D03*
X119000000Y-136250000D03*
X99212500Y-117750000D03*
X52430000Y-112500000D03*
D67*
X78000000Y-128200000D03*
D68*
X99212500Y-123750000D03*
X67500000Y-104500000D03*
X60499999Y-97499999D03*
X71800000Y-108800000D03*
X69500000Y-104500000D03*
X75000000Y-120862500D03*
X59200000Y-108500000D03*
X63600000Y-116900000D03*
X70210000Y-128600000D03*
X62637500Y-97537500D03*
X58566117Y-104450000D03*
X67500000Y-106500000D03*
D67*
X78900000Y-133100000D03*
D68*
X65500000Y-104500000D03*
X65500000Y-102900000D03*
X99250000Y-133500000D03*
X67500000Y-102900000D03*
X52500000Y-102500000D03*
X86150000Y-123587500D03*
X62000000Y-99637500D03*
X70500000Y-113000000D03*
X61750000Y-111862500D03*
X70500000Y-117000000D03*
X70500000Y-115250000D03*
X55500000Y-99287500D03*
X108775000Y-134500000D03*
X80750000Y-118250000D03*
X60000000Y-111862500D03*
X59600000Y-123500000D03*
X75300000Y-128600000D03*
X73500000Y-98500000D03*
X72700000Y-138900000D03*
X69500000Y-106500000D03*
X51000000Y-92000000D03*
%TO.N,/Gate_Driver/nSCS*%
X82840476Y-94960350D03*
X69423811Y-109080106D03*
%TO.N,Net-(J2-CC2)*%
X72000000Y-132750000D03*
X67500000Y-132500000D03*
%TO.N,Net-(J2-CC1)*%
X67250000Y-130500000D03*
X69000000Y-131750000D03*
%TD*%
D69*
%TO.N,+3.3V*%
X63250000Y-129750000D02*
X63250000Y-135500000D01*
X68500000Y-124000000D02*
X68500000Y-124500000D01*
X68500000Y-124500000D02*
X63250000Y-129750000D01*
X63250000Y-135500000D02*
X63500000Y-135750000D01*
%TO.N,Net-(U1-CPL)*%
X99250000Y-101500000D02*
X99300000Y-101550000D01*
X95073223Y-95750000D02*
X94435000Y-95750000D01*
D70*
X99420710Y-101600000D02*
X101750000Y-101600000D01*
D69*
X95375000Y-95875000D02*
X95500000Y-96000000D01*
X95073223Y-95750000D02*
G75*
G02*
X95374993Y-95875007I-23J-426800D01*
G01*
X99300000Y-101550000D02*
G75*
G03*
X99420710Y-101599996I120700J120700D01*
G01*
D71*
%TO.N,Net-(U1-CPH)*%
X95513594Y-95250000D02*
X94435000Y-95250000D01*
X95839653Y-95385058D02*
X96763565Y-96308970D01*
D69*
X101737500Y-99512500D02*
X101750000Y-99525000D01*
D70*
X101707322Y-99500000D02*
X100000000Y-99500000D01*
D69*
X101707322Y-99500000D02*
G75*
G02*
X101737493Y-99512507I-22J-42700D01*
G01*
D71*
X95839653Y-95385058D02*
G75*
G03*
X95513594Y-95249999I-326053J-326042D01*
G01*
D72*
%TO.N,/Gate_Driver/DVDD*%
X77687500Y-97715002D02*
X77672498Y-97700000D01*
D69*
X86952517Y-96909982D02*
X85300000Y-98562500D01*
D73*
X77687500Y-99700000D02*
X77687500Y-97715002D01*
X77761250Y-97788750D02*
X77672500Y-97700000D01*
D69*
X87338750Y-96750000D02*
X87565000Y-96750000D01*
X87338750Y-96750000D02*
G75*
G03*
X86952496Y-96909961I-50J-546200D01*
G01*
D70*
%TO.N,VM*%
X119678125Y-132843750D02*
X118000000Y-132843750D01*
D73*
X116606207Y-87793792D02*
X113243792Y-91156207D01*
X108221622Y-93800000D02*
X106985355Y-93800000D01*
D70*
X81016300Y-73433700D02*
X81032600Y-73450000D01*
D73*
X110141667Y-92699208D02*
X110121229Y-92699208D01*
D69*
X93250000Y-100978661D02*
X93250000Y-97435000D01*
D70*
X125500000Y-126446036D02*
X125500000Y-118642116D01*
D73*
X109550396Y-93249604D02*
X110086340Y-92713659D01*
D72*
X93700000Y-102627036D02*
X93700000Y-102850000D01*
D73*
X103386999Y-94720000D02*
X101750000Y-94720000D01*
D70*
X85500000Y-72500000D02*
X85500000Y-73450000D01*
D69*
X93237500Y-101000000D02*
X93243750Y-100993750D01*
D73*
X105610897Y-93876941D02*
X105583956Y-93903883D01*
D72*
X93237500Y-101510463D02*
X93237500Y-101000000D01*
D70*
X125458375Y-118541625D02*
X125416750Y-118500000D01*
D73*
X120453963Y-86200000D02*
X125000000Y-86200000D01*
D70*
X81000000Y-73394348D02*
X81000000Y-72500000D01*
X123906206Y-130293792D02*
X122542863Y-131657136D01*
D73*
X106864644Y-93850000D02*
X105675940Y-93850000D01*
D72*
X94088908Y-103788908D02*
X95221662Y-104921662D01*
D73*
X110086340Y-92713659D02*
G75*
G02*
X110121229Y-92699214I34860J-34841D01*
G01*
D72*
X93468750Y-102068750D02*
G75*
G02*
X93237515Y-101510463I558250J558250D01*
G01*
D73*
X106925000Y-93825000D02*
G75*
G02*
X106985355Y-93799982I60400J-60400D01*
G01*
D70*
X81000000Y-73394348D02*
G75*
G03*
X81016314Y-73433686I55700J48D01*
G01*
D72*
X93700000Y-102627036D02*
G75*
G03*
X93468761Y-102068739I-789500J36D01*
G01*
D69*
X93250000Y-100978661D02*
G75*
G02*
X93243761Y-100993761I-21300J-39D01*
G01*
D70*
X123906206Y-130293792D02*
G75*
G03*
X125500010Y-126446036I-3847806J3847792D01*
G01*
D73*
X110141667Y-92699208D02*
G75*
G03*
X113243776Y-91156191I-748667J5394908D01*
G01*
X106925000Y-93825000D02*
G75*
G02*
X106864644Y-93850018I-60400J60400D01*
G01*
X108221622Y-93800000D02*
G75*
G03*
X109550391Y-93249599I-22J1879200D01*
G01*
X116606207Y-87793792D02*
G75*
G02*
X120453963Y-86199959I3847793J-3847708D01*
G01*
D70*
X119678125Y-132843750D02*
G75*
G03*
X122542851Y-131657124I-25J4051350D01*
G01*
D73*
X103386999Y-94720000D02*
G75*
G03*
X105583971Y-93903901I-699J3367100D01*
G01*
D70*
X125458375Y-118541625D02*
G75*
G02*
X125499993Y-118642116I-100475J-100475D01*
G01*
D72*
X93700000Y-102850000D02*
G75*
G03*
X94088912Y-103788904I1327800J0D01*
G01*
D73*
X105675940Y-93850000D02*
G75*
G03*
X105610874Y-93876918I-40J-92000D01*
G01*
D70*
%TO.N,GND*%
X100300000Y-113050000D02*
X100525000Y-113050000D01*
X105537500Y-111743750D02*
X105537500Y-111756250D01*
D72*
X90874999Y-94124999D02*
X89168960Y-95831039D01*
D70*
X106459791Y-96280000D02*
X101750000Y-96280000D01*
X107552622Y-103150431D02*
X104249569Y-103150431D01*
D72*
X93750000Y-90907500D02*
X93750000Y-90565000D01*
D70*
X107587500Y-103130000D02*
X107566250Y-103151250D01*
D69*
X93842500Y-96250000D02*
X94435000Y-96250000D01*
X91125000Y-94125000D02*
X92831039Y-95831039D01*
X91206250Y-100956250D02*
X91162500Y-101000000D01*
D70*
X105537500Y-111743750D02*
X105537500Y-111739062D01*
X106835000Y-96365000D02*
X107311091Y-95888908D01*
X105537500Y-111795312D02*
X105537500Y-111798437D01*
D69*
X87565000Y-96250000D02*
X86415425Y-96250000D01*
D72*
X97950000Y-106102449D02*
X97950000Y-105978338D01*
D70*
X85500000Y-76000000D02*
X85500000Y-75175000D01*
X72896446Y-91500000D02*
X72000000Y-91500000D01*
D69*
X85356250Y-96837500D02*
X85300000Y-96837500D01*
D70*
X105537500Y-111732812D02*
X105537500Y-111723437D01*
D72*
X90875000Y-93875000D02*
X89845737Y-92845737D01*
D70*
X81030330Y-91250000D02*
X81600000Y-91250000D01*
X107577284Y-103140215D02*
X107587500Y-103130000D01*
X79750000Y-90500000D02*
X80125000Y-90875000D01*
D72*
X87565000Y-96250000D02*
X88157500Y-96250000D01*
D70*
X105537500Y-111785937D02*
X105537500Y-111789062D01*
X100300000Y-113050000D02*
X100275000Y-113050000D01*
X105537500Y-111692187D02*
X105537500Y-111707812D01*
D72*
X95772500Y-102591250D02*
X95772500Y-101910000D01*
D70*
X105537500Y-111735937D02*
X105537500Y-111739062D01*
X103766376Y-114400000D02*
X103054594Y-114400000D01*
X105537500Y-111707812D02*
X105537500Y-111723437D01*
D72*
X89250000Y-91407500D02*
X89250000Y-90565000D01*
D69*
X85452274Y-96797725D02*
X85706249Y-96543749D01*
D70*
X105537500Y-111756250D02*
X105537500Y-111768750D01*
D72*
X97664169Y-106792507D02*
X97378338Y-107078338D01*
X93507815Y-91492184D02*
X91124999Y-93874999D01*
D70*
X105537500Y-112628876D02*
X105537500Y-111800000D01*
X100909099Y-113209099D02*
X101425000Y-113725000D01*
D72*
X96254216Y-103754216D02*
X97576408Y-105076408D01*
D70*
X105537500Y-111692187D02*
X105537500Y-111650000D01*
D72*
X94092500Y-91250000D02*
X94435000Y-91250000D01*
D70*
X105537500Y-111795312D02*
X105537500Y-111792187D01*
X81016300Y-75983700D02*
X81000000Y-76000000D01*
X105537500Y-111789062D02*
X105537500Y-111792187D01*
X108250000Y-95500000D02*
X108800000Y-95500000D01*
D72*
X88407500Y-92250000D02*
X87565000Y-92250000D01*
D70*
X105537500Y-111781250D02*
X105537500Y-111785937D01*
X81032600Y-75944348D02*
X81032600Y-75175000D01*
X105537500Y-111732812D02*
X105537500Y-111735937D01*
X73750000Y-91000000D02*
X73500000Y-91250000D01*
X105537500Y-111798437D02*
X105537500Y-111800000D01*
D72*
X91250000Y-97435000D02*
X91250000Y-94426776D01*
D70*
X105537500Y-111768750D02*
X105537500Y-111781250D01*
D69*
X91250000Y-100850628D02*
X91250000Y-97435000D01*
D72*
X88407500Y-92250000D02*
G75*
G02*
X89845742Y-92845732I0J-2034000D01*
G01*
X94092500Y-91250000D02*
G75*
G02*
X93750000Y-90907500I0J342500D01*
G01*
D70*
X101425000Y-113725000D02*
G75*
G03*
X103054594Y-114400002I1629600J1629600D01*
G01*
D72*
X93507815Y-91492184D02*
G75*
G03*
X93749990Y-90907500I-584715J584684D01*
G01*
D70*
X72896446Y-91500000D02*
G75*
G03*
X73499986Y-91249986I-46J853600D01*
G01*
D72*
X90874999Y-94124999D02*
G75*
G02*
X91125001Y-94124999I125001J-125001D01*
G01*
D70*
X103766376Y-114400000D02*
G75*
G03*
X105018757Y-113881257I24J1771100D01*
G01*
D72*
X88157500Y-96250000D02*
G75*
G03*
X89168956Y-95831035I0J1430400D01*
G01*
D70*
X107566250Y-103151250D02*
G75*
G03*
X107545022Y-103202552I51250J-51250D01*
G01*
D72*
X89250000Y-91407500D02*
G75*
G03*
X89845732Y-92845742I2034000J0D01*
G01*
D69*
X93842500Y-96250000D02*
G75*
G02*
X92831043Y-95831035I0J1430400D01*
G01*
D72*
X97950000Y-106102449D02*
G75*
G02*
X97664147Y-106792485I-975900J49D01*
G01*
D70*
X106665000Y-96365000D02*
G75*
G03*
X106459791Y-96280003I-205200J-205200D01*
G01*
D69*
X91250000Y-100850628D02*
G75*
G02*
X91206242Y-100956242I-149400J28D01*
G01*
D70*
X81030330Y-91250000D02*
G75*
G02*
X80124991Y-90875009I-30J1280300D01*
G01*
D69*
X85706249Y-96543749D02*
G75*
G02*
X86415425Y-96250009I709151J-709151D01*
G01*
D72*
X91125000Y-94125000D02*
G75*
G02*
X91250010Y-94426776I-301800J-301800D01*
G01*
X97576408Y-105076408D02*
G75*
G02*
X97949979Y-105978338I-901908J-901892D01*
G01*
D70*
X81032600Y-75944348D02*
G75*
G02*
X81016286Y-75983686I-55700J48D01*
G01*
D72*
X94092500Y-91250000D02*
G75*
G03*
X93507809Y-91492178I0J-826900D01*
G01*
D70*
X107577284Y-103140215D02*
G75*
G02*
X107552622Y-103150430I-24684J24715D01*
G01*
D72*
X90874999Y-94124999D02*
G75*
G03*
X90874999Y-93875001I-124999J124999D01*
G01*
D69*
X91125000Y-94125000D02*
X91125000Y-94125000D01*
X85452274Y-96797725D02*
G75*
G02*
X85356250Y-96837535I-96074J96025D01*
G01*
D70*
X105537500Y-112628876D02*
G75*
G02*
X105018757Y-113881257I-1771100J-24D01*
G01*
D72*
X91124999Y-93874999D02*
G75*
G03*
X91124999Y-94125001I125001J-125001D01*
G01*
X95772500Y-102591250D02*
G75*
G03*
X96254187Y-103754245I1644700J-50D01*
G01*
D70*
X100909099Y-113209099D02*
G75*
G03*
X100525000Y-113050001I-384099J-384101D01*
G01*
X100275000Y-113050000D02*
G75*
G03*
X100250000Y-113075000I0J-25000D01*
G01*
X108250000Y-95500000D02*
G75*
G03*
X107311095Y-95888912I0J-1327800D01*
G01*
D72*
X89250000Y-91407500D02*
G75*
G02*
X88407500Y-92250000I-842500J0D01*
G01*
X91124999Y-93874999D02*
G75*
G02*
X90875001Y-93874999I-124999J124999D01*
G01*
D70*
X106835000Y-96365000D02*
G75*
G03*
X106750003Y-96570208I205200J-205200D01*
G01*
X106665000Y-96365000D02*
G75*
G02*
X106749997Y-96570208I-205200J-205200D01*
G01*
X106665000Y-96365000D02*
G75*
G03*
X106835000Y-96365000I85000J85001D01*
G01*
D69*
%TO.N,Net-(U1-VCP)*%
X95330000Y-94750000D02*
X94435000Y-94750000D01*
X96857860Y-95382860D02*
X97750000Y-96275000D01*
X95330000Y-94750000D02*
G75*
G02*
X96857856Y-95382864I0J-2160700D01*
G01*
%TO.N,Net-(U1-CB)*%
X91750000Y-99722969D02*
X91750000Y-97435000D01*
D74*
X92076000Y-100479551D02*
X92076000Y-106736910D01*
D69*
X92413000Y-107550500D02*
X92750000Y-107887500D01*
X91913000Y-100116486D02*
X91934526Y-100138011D01*
X92076000Y-106736910D02*
G75*
G03*
X92413003Y-107550497I1150600J10D01*
G01*
X92076000Y-100479551D02*
G75*
G03*
X91934501Y-100138036I-483000J-49D01*
G01*
X91750000Y-99722969D02*
G75*
G03*
X91912988Y-100116498I556500J-31D01*
G01*
%TO.N,/Gate_Driver/kdk*%
X94431250Y-108000000D02*
X94500000Y-108000000D01*
X92250000Y-98573223D02*
X92250000Y-97435000D01*
X92375000Y-98875000D02*
X92500000Y-99000000D01*
X94313886Y-108048613D02*
X92750000Y-109612500D01*
X94431250Y-108000000D02*
G75*
G03*
X94313857Y-108048584I-50J-166000D01*
G01*
X92375000Y-98875000D02*
G75*
G02*
X92249990Y-98573223I301800J301800D01*
G01*
D70*
%TO.N,MCU_PWR*%
X103637500Y-109953837D02*
X103637500Y-111750000D01*
D69*
X69672271Y-127200000D02*
X69623632Y-127200395D01*
D70*
X102493966Y-107193103D02*
X101350433Y-106049570D01*
D69*
X71687867Y-127200000D02*
X70363639Y-127200000D01*
X72200000Y-128985050D02*
X72200000Y-127712132D01*
D70*
X70210000Y-127046360D02*
X70210000Y-126128284D01*
D69*
X67850899Y-128164861D02*
X67850899Y-128516941D01*
D70*
X70250000Y-126031715D02*
X70250000Y-125250000D01*
D69*
X69241920Y-127269270D02*
X69229239Y-127274000D01*
X68234000Y-127522959D02*
X68234000Y-127781759D01*
D70*
X84611200Y-111319400D02*
X84611200Y-111750000D01*
D69*
X69623632Y-127200395D02*
X69526601Y-127207337D01*
X68234000Y-127781759D02*
X67850899Y-128164861D01*
X68310000Y-128976042D02*
X68310000Y-134200000D01*
X67850899Y-128516941D02*
X68310000Y-128976042D01*
D70*
X97772500Y-102102069D02*
X97772500Y-101740454D01*
D69*
X69335258Y-127241862D02*
X69241920Y-127269270D01*
X69229239Y-127274000D02*
X68482959Y-127274000D01*
D70*
X73110000Y-132211482D02*
X73110000Y-134200000D01*
X80500000Y-122750000D02*
X80568750Y-122681250D01*
D69*
X68482959Y-127274000D02*
X68234000Y-127522959D01*
X69430313Y-127221183D02*
X69335258Y-127241862D01*
D70*
X80637500Y-122515272D02*
X80637500Y-119200000D01*
X97761250Y-101743750D02*
X97766875Y-101738125D01*
D69*
X69526601Y-127207337D02*
X69430313Y-127221183D01*
D70*
X84915680Y-110584319D02*
X89000000Y-106500000D01*
D69*
X73477500Y-131252500D02*
X72900000Y-130675000D01*
D70*
X98033824Y-102732962D02*
X101350431Y-106049569D01*
D69*
X70236360Y-127200000D02*
X69672271Y-127200000D01*
D70*
X73355000Y-131620000D02*
X73477500Y-131497500D01*
X80568750Y-122681250D02*
G75*
G03*
X80637489Y-122515272I-165950J165950D01*
G01*
X70210000Y-126128284D02*
G75*
G02*
X70230005Y-126080005I68300J-16D01*
G01*
X97772500Y-101740454D02*
G75*
G03*
X97766891Y-101738142I-3300J-46D01*
G01*
D69*
X72200000Y-128985050D02*
G75*
G03*
X72900015Y-130674985I2390000J50D01*
G01*
X72200000Y-127712132D02*
G75*
G03*
X72050009Y-127349991I-512100J32D01*
G01*
D70*
X70255000Y-127155000D02*
G75*
G02*
X70210016Y-127046360I108600J108600D01*
G01*
X70230000Y-126080000D02*
G75*
G03*
X70250007Y-126031715I-48300J48300D01*
G01*
X97772500Y-102102069D02*
G75*
G03*
X98033812Y-102732974I892200J-31D01*
G01*
D69*
X70363639Y-127200000D02*
G75*
G02*
X70254988Y-127155012I-39J153600D01*
G01*
D70*
X84611200Y-111319400D02*
G75*
G02*
X84915672Y-110584311I1039600J0D01*
G01*
X73355000Y-131620000D02*
G75*
G03*
X73109993Y-132211482I591500J-591500D01*
G01*
X102493966Y-107193103D02*
G75*
G02*
X103637464Y-109953837I-2760766J-2760697D01*
G01*
X97761250Y-101743750D02*
G75*
G03*
X97750004Y-101770909I27150J-27150D01*
G01*
D69*
X71687867Y-127200000D02*
G75*
G02*
X72050009Y-127349991I33J-512100D01*
G01*
X73477500Y-131252500D02*
G75*
G02*
X73477500Y-131497500I-122500J-122500D01*
G01*
D75*
%TO.N,+3.3V*%
X64362500Y-97106250D02*
X64362500Y-97070312D01*
X64362500Y-98112500D02*
X64362500Y-97932812D01*
D70*
X50300000Y-82380000D02*
X50300000Y-81290000D01*
D69*
X64376642Y-100691642D02*
X64750000Y-101065000D01*
D75*
X67277728Y-90277728D02*
X60973792Y-83973792D01*
D69*
X63403496Y-101362500D02*
X62000000Y-101362500D01*
D70*
X86256066Y-125312500D02*
X86043933Y-125312500D01*
D69*
X87565000Y-91750000D02*
X83400000Y-91750000D01*
D75*
X64362500Y-97106250D02*
X64362500Y-97250000D01*
D72*
X71427049Y-102250000D02*
X70935000Y-102250000D01*
D71*
X70625000Y-118900000D02*
X70625000Y-120125000D01*
X68500000Y-122250000D02*
X68500000Y-124000000D01*
D69*
X69750000Y-107935000D02*
X69750000Y-108410407D01*
D75*
X64362500Y-97250000D02*
X64362500Y-97393750D01*
D72*
X73701487Y-100467611D02*
X72267029Y-101902068D01*
D69*
X83250000Y-91050000D02*
X83250000Y-91000000D01*
D75*
X64769086Y-95980913D02*
X65381281Y-95368718D01*
D70*
X105110723Y-132223223D02*
X103787500Y-130900000D01*
D75*
X64362500Y-97717187D02*
X64362500Y-97932812D01*
D69*
X70386775Y-109047182D02*
X70386775Y-109288775D01*
D70*
X72262500Y-118551884D02*
X72262500Y-111082250D01*
D75*
X64362500Y-96998437D02*
X64362500Y-97070312D01*
D69*
X72164630Y-110999909D02*
X72180250Y-111000000D01*
D70*
X105287500Y-133150000D02*
X105287500Y-133456250D01*
X79480612Y-123480612D02*
X79837500Y-123837500D01*
D69*
X72050964Y-110952806D02*
X72076235Y-110971170D01*
D70*
X86256066Y-125312500D02*
X95946036Y-125312500D01*
D75*
X64362500Y-96998437D02*
X64362500Y-96962500D01*
D69*
X64065000Y-101750000D02*
X64065000Y-101117079D01*
D70*
X72131250Y-118868750D02*
X72000000Y-119000000D01*
D75*
X68250000Y-93875000D02*
X68250000Y-92625000D01*
D69*
X72104068Y-110985357D02*
X72133777Y-110995016D01*
D70*
X104894171Y-134405828D02*
X103400000Y-135900000D01*
X105464276Y-133076776D02*
X106768175Y-134380675D01*
D69*
X62000000Y-101362500D02*
X61148115Y-101362500D01*
X72133777Y-110995016D02*
X72164630Y-110999909D01*
D70*
X78362500Y-120781250D02*
X78362500Y-119200000D01*
D75*
X68250000Y-93875000D02*
X68250000Y-94125000D01*
X68161611Y-94338388D02*
X68000000Y-94500000D01*
D69*
X69750000Y-108410407D02*
X70386775Y-109047182D01*
D71*
X70625000Y-120125000D02*
X68500000Y-122250000D01*
D69*
X72039840Y-110941840D02*
X72050964Y-110952806D01*
X86000000Y-125568566D02*
X86000000Y-128000000D01*
X83285355Y-91135355D02*
X83400000Y-91250000D01*
X60700000Y-101100000D02*
X60831250Y-101231250D01*
D70*
X99793792Y-126906292D02*
X103787500Y-130900000D01*
X83398465Y-125312500D02*
X86043933Y-125312500D01*
X64287500Y-66425000D02*
X64500000Y-66425000D01*
D69*
X70386775Y-109288775D02*
X72039840Y-110941840D01*
D70*
X107056250Y-134500000D02*
X107225000Y-134500000D01*
D69*
X64065000Y-101750000D02*
X63871250Y-101556250D01*
D70*
X73490000Y-111000000D02*
X72344750Y-111000000D01*
D69*
X69000000Y-93750000D02*
X68676776Y-93750000D01*
D75*
X64362500Y-98112500D02*
X64362500Y-98687500D01*
D69*
X64362500Y-98687500D02*
X64362500Y-100657500D01*
D75*
X50300000Y-82380000D02*
X57126036Y-82380000D01*
X67396446Y-94750000D02*
X66875000Y-94750000D01*
D69*
X64308357Y-100691642D02*
X64193750Y-100806250D01*
D75*
X64362500Y-97537500D02*
X64362500Y-97681250D01*
D70*
X105287500Y-133150000D02*
X105287500Y-132650000D01*
D69*
X72076235Y-110971170D02*
X72104068Y-110985357D01*
D75*
X64362500Y-97393750D02*
X64362500Y-97537500D01*
X64362500Y-97717187D02*
X64362500Y-97681250D01*
D70*
X51070746Y-79429253D02*
X63924739Y-66575260D01*
D69*
X72180250Y-111000000D02*
X72344750Y-111000000D01*
X68374999Y-93874999D02*
X68338388Y-93911611D01*
D70*
X105110723Y-132223223D02*
G75*
G02*
X105287486Y-132650000I-426823J-426777D01*
G01*
X105464276Y-133076776D02*
G75*
G03*
X105287580Y-133150000I-73176J-73224D01*
G01*
X105464276Y-133076776D02*
G75*
G02*
X105287484Y-132650000I426724J426776D01*
G01*
D69*
X86000000Y-125568566D02*
G75*
G02*
X86075010Y-125387510I256100J-34D01*
G01*
X86075000Y-125387500D02*
G75*
G03*
X86043933Y-125312418I-31100J31100D01*
G01*
X83250000Y-91050000D02*
G75*
G03*
X83285357Y-91135353I120700J0D01*
G01*
D75*
X67396446Y-94750000D02*
G75*
G03*
X67999986Y-94499986I-46J853600D01*
G01*
X57126036Y-82380000D02*
G75*
G02*
X60973784Y-83973800I-36J-5441600D01*
G01*
D69*
X68338388Y-93911611D02*
G75*
G03*
X68250006Y-94125000I213412J-213389D01*
G01*
X68374999Y-93874999D02*
G75*
G02*
X68676776Y-93749989I301801J-301801D01*
G01*
D75*
X68161611Y-94338388D02*
G75*
G03*
X68249992Y-94125000I-213411J213388D01*
G01*
D69*
X61148115Y-101362500D02*
G75*
G02*
X60831245Y-101231255I-15J448100D01*
G01*
D70*
X99793792Y-126906292D02*
G75*
G03*
X95946036Y-125312489I-3847792J-3847808D01*
G01*
X51070746Y-79429253D02*
G75*
G03*
X50300001Y-81290000I1860754J-1860747D01*
G01*
D69*
X64308357Y-100691642D02*
G75*
G02*
X64342500Y-100677504I34143J-34158D01*
G01*
D75*
X65381281Y-95368718D02*
G75*
G02*
X66875000Y-94749988I1493719J-1493682D01*
G01*
D70*
X72344750Y-111000000D02*
G75*
G03*
X72262500Y-111082250I-50J-82200D01*
G01*
D69*
X63871250Y-101556250D02*
G75*
G03*
X63403496Y-101362502I-467750J-467750D01*
G01*
D75*
X68338388Y-93911611D02*
G75*
G02*
X68250040Y-93875000I-36588J36611D01*
G01*
X64769086Y-95980913D02*
G75*
G03*
X64362507Y-96962500I981614J-981587D01*
G01*
D70*
X86256066Y-125312500D02*
G75*
G03*
X86075010Y-125387510I34J-256100D01*
G01*
X79480612Y-123480612D02*
G75*
G02*
X78362543Y-120781250I2699388J2699312D01*
G01*
X63924739Y-66575260D02*
G75*
G02*
X64287500Y-66424993I362761J-362740D01*
G01*
X107056250Y-134500000D02*
G75*
G02*
X106768200Y-134380650I50J407400D01*
G01*
D69*
X64362500Y-100657500D02*
G75*
G02*
X64342500Y-100677500I-20000J0D01*
G01*
X64065000Y-101117079D02*
G75*
G02*
X64193756Y-100806256I439600J-21D01*
G01*
D70*
X72180250Y-111000000D02*
G75*
G02*
X72262500Y-111082250I-50J-82300D01*
G01*
X104894171Y-134405828D02*
G75*
G03*
X105287536Y-133456250I-949571J949628D01*
G01*
D75*
X67277728Y-90277728D02*
G75*
G02*
X68250013Y-92625000I-2347228J-2347272D01*
G01*
D69*
X64362500Y-100657500D02*
G75*
G03*
X64376639Y-100691645I48300J0D01*
G01*
D70*
X79837500Y-123837500D02*
G75*
G03*
X83398465Y-125312514I3561000J3561000D01*
G01*
D69*
X64342500Y-100677500D02*
G75*
G02*
X64376645Y-100691639I0J-48300D01*
G01*
D72*
X71427049Y-102250000D02*
G75*
G03*
X72267003Y-101902042I-49J1187900D01*
G01*
D70*
X72262500Y-118551884D02*
G75*
G02*
X72131255Y-118868755I-448100J-16D01*
G01*
D69*
%TO.N,/Gate_Driver/SENS1*%
X60225390Y-109912109D02*
X61144692Y-108992807D01*
X61368750Y-108900000D02*
X61500000Y-108900000D01*
X63407500Y-106750000D02*
X64065000Y-106750000D01*
X62285077Y-107214922D02*
X60225390Y-109274609D01*
X60225390Y-109912109D02*
G75*
G02*
X59999984Y-109818750I-93390J93309D01*
G01*
X63407500Y-106750000D02*
G75*
G03*
X62285087Y-107214932I0J-1587300D01*
G01*
X60225390Y-109274609D02*
G75*
G03*
X60000026Y-109818750I544110J-544091D01*
G01*
X61368750Y-108900000D02*
G75*
G03*
X61144660Y-108992775I-50J-316900D01*
G01*
D73*
%TO.N,/Gate_Driver/SENS2*%
X98662500Y-89757031D02*
X98662500Y-89793750D01*
X98662500Y-88050000D02*
X98662500Y-87775000D01*
D69*
X63913517Y-109060000D02*
X62586482Y-109060000D01*
D73*
X98662500Y-88802344D02*
X98662500Y-89022656D01*
X98662500Y-89683593D02*
X98662500Y-89646874D01*
D71*
X63500000Y-110137500D02*
X62043750Y-110137500D01*
D73*
X98662500Y-89499999D02*
X98662500Y-89646874D01*
D69*
X61957712Y-109342287D02*
X61995000Y-109305000D01*
D73*
X98662500Y-89059374D02*
X98662500Y-89022656D01*
D69*
X64750000Y-108252500D02*
X64750000Y-107935000D01*
D73*
X98662500Y-89206249D02*
X98662500Y-89353124D01*
D71*
X98454787Y-90295212D02*
X98000000Y-90750000D01*
D73*
X98662500Y-88600000D02*
X98662500Y-88802344D01*
X98662500Y-89683593D02*
X98662500Y-89757031D01*
D69*
X64504999Y-108814999D02*
X64525493Y-108794506D01*
D73*
X98662500Y-88050000D02*
X98662500Y-88600000D01*
X98662500Y-89059374D02*
X98662500Y-89206249D01*
X98662500Y-89353124D02*
X98662500Y-89499999D01*
D69*
X61957712Y-109342287D02*
G75*
G03*
X61750042Y-109843750I501488J-501413D01*
G01*
X64504999Y-108814999D02*
G75*
G02*
X63913517Y-109060006I-591499J591499D01*
G01*
X61750000Y-109843750D02*
G75*
G03*
X62043750Y-110137500I293800J50D01*
G01*
X61995000Y-109305000D02*
G75*
G02*
X62586482Y-109059993I591500J-591500D01*
G01*
D71*
X98662500Y-89793750D02*
G75*
G02*
X98454768Y-90295193I-709200J50D01*
G01*
D69*
X64750000Y-108252500D02*
G75*
G02*
X64525491Y-108794504I-766500J0D01*
G01*
%TO.N,/Gate_Driver/SENS3*%
X70400000Y-92600000D02*
X70287500Y-92487500D01*
X70175000Y-92215900D02*
X70175000Y-91500000D01*
X73372593Y-107931983D02*
X73380482Y-107939872D01*
X74000000Y-107887500D02*
X73482372Y-107887500D01*
D70*
X70175000Y-91500000D02*
X70175000Y-89640000D01*
D69*
X70250000Y-107935000D02*
X73348910Y-107935000D01*
X73380482Y-107939872D02*
X73430000Y-107939872D01*
X73482372Y-107887500D02*
X73430000Y-107939872D01*
X70175000Y-92215900D02*
G75*
G03*
X70287500Y-92487500I384100J0D01*
G01*
X73348910Y-107935000D02*
G75*
G03*
X73372591Y-107931976I-2410J113100D01*
G01*
D73*
%TO.N,Net-(C25-Pad1)*%
X55231250Y-96753715D02*
X55231250Y-92750000D01*
X55787630Y-97287630D02*
X58500000Y-100000000D01*
X55365625Y-97078125D02*
X55424869Y-97137369D01*
X55787630Y-97287630D02*
G75*
G03*
X55606250Y-97212532I-181330J-181370D01*
G01*
X55365625Y-97078125D02*
G75*
G02*
X55231229Y-96753715I324375J324425D01*
G01*
X55606250Y-97212500D02*
G75*
G02*
X55424846Y-97137392I-50J256500D01*
G01*
%TO.N,Net-(U3-PF0-OSC_IN)*%
X64454296Y-92750000D02*
X64549609Y-92750000D01*
X64004687Y-92750000D02*
X63623437Y-92750000D01*
X58425000Y-97362500D02*
X58425000Y-97587500D01*
X62846484Y-92750000D02*
X62673828Y-92750000D01*
X58425000Y-96968750D02*
X58425000Y-97025000D01*
X58425000Y-96954687D02*
X58425000Y-96968750D01*
X58425000Y-96926562D02*
X58425000Y-96912500D01*
X64670703Y-92750000D02*
X64549609Y-92750000D01*
D69*
X59600000Y-100675000D02*
X59600000Y-100212132D01*
D73*
X64670703Y-92750000D02*
X64731250Y-92750000D01*
X58425000Y-97362500D02*
X58425000Y-97292187D01*
X58425000Y-97025000D02*
X58425000Y-97081250D01*
X63623437Y-92750000D02*
X63596484Y-92750000D01*
X63596484Y-92750000D02*
X63269140Y-92750000D01*
D70*
X58681326Y-98481326D02*
X59750000Y-99550000D01*
D73*
X64004687Y-92750000D02*
X64108984Y-92750000D01*
D69*
X63032500Y-103750000D02*
X64065000Y-103750000D01*
D73*
X63269140Y-92750000D02*
X62941796Y-92750000D01*
X64454296Y-92750000D02*
X64281640Y-92750000D01*
X64281640Y-92750000D02*
X64108984Y-92750000D01*
X62846484Y-92750000D02*
X62941796Y-92750000D01*
X62673828Y-92750000D02*
X62587500Y-92750000D01*
D69*
X60077297Y-101827297D02*
X61269912Y-103019912D01*
D73*
X58425000Y-97207812D02*
X58425000Y-97292187D01*
X58425000Y-97193750D02*
X58425000Y-97207812D01*
X58425000Y-97587500D02*
X58425000Y-97862500D01*
X58425000Y-97081250D02*
X58425000Y-97137500D01*
X61584574Y-93165425D02*
X58840425Y-95909574D01*
X58425000Y-97137500D02*
X58425000Y-97193750D01*
X58425000Y-96926562D02*
X58425000Y-96954687D01*
D69*
X59600000Y-100675000D02*
G75*
G03*
X60077296Y-101827298I1629600J0D01*
G01*
D73*
X61584574Y-93165425D02*
G75*
G02*
X62587500Y-92749985I1002926J-1002875D01*
G01*
D69*
X63032500Y-103750000D02*
G75*
G02*
X61269907Y-103019917I0J2492700D01*
G01*
D70*
X59750000Y-99550000D02*
G75*
G02*
X59750000Y-99850000I-150000J-150000D01*
G01*
D73*
X58425000Y-96912500D02*
G75*
G02*
X58840436Y-95909585I1418300J0D01*
G01*
D70*
X58681326Y-98481326D02*
G75*
G02*
X58424985Y-97862500I618774J618826D01*
G01*
D69*
X59750000Y-99850000D02*
G75*
G03*
X59600013Y-100212132I362100J-362100D01*
G01*
%TO.N,/MCU/NTC_FET*%
X60341421Y-114000000D02*
X60850000Y-114000000D01*
D73*
X60000000Y-115475000D02*
X61771841Y-115475000D01*
D69*
X65250000Y-108452500D02*
X65250000Y-107935000D01*
X60000000Y-115475000D02*
X60000000Y-114341421D01*
X56887500Y-115087500D02*
X56500000Y-114700000D01*
X60000000Y-115475000D02*
X57823007Y-115475000D01*
X61841250Y-115446250D02*
X61870000Y-115417500D01*
X64500000Y-69900000D02*
X64500000Y-68075000D01*
X64884071Y-109335927D02*
X64702548Y-109517451D01*
X63797451Y-111702548D02*
X61959619Y-113540380D01*
X61841250Y-115446250D02*
G75*
G02*
X61771841Y-115475017I-69450J69450D01*
G01*
X64250000Y-110610000D02*
G75*
G02*
X64702548Y-109517451I1545100J0D01*
G01*
X64884071Y-109335927D02*
G75*
G03*
X65249986Y-108452500I-883471J883427D01*
G01*
X64250000Y-110610000D02*
G75*
G02*
X63797452Y-111702549I-1545100J0D01*
G01*
X61959619Y-113540380D02*
G75*
G02*
X60850000Y-114000011I-1109619J1109580D01*
G01*
X56887500Y-115087500D02*
G75*
G03*
X57823007Y-115474997I935500J935500D01*
G01*
X60341421Y-114000000D02*
G75*
G03*
X60099994Y-114099994I-21J-341400D01*
G01*
X60000000Y-114341421D02*
G75*
G02*
X60099994Y-114099994I341400J21D01*
G01*
%TO.N,/MCU/RST*%
X59538908Y-104750000D02*
X64065000Y-104750000D01*
X56551543Y-105300000D02*
X58211091Y-105300000D01*
X55220000Y-103968456D02*
X55220000Y-103387500D01*
X58875000Y-105025000D02*
G75*
G02*
X59538908Y-104750004I663900J-663900D01*
G01*
X56551543Y-105300000D02*
G75*
G02*
X55609987Y-104910013I-43J1331500D01*
G01*
X58875000Y-105025000D02*
G75*
G02*
X58211091Y-105299996I-663900J663900D01*
G01*
X55220000Y-103968456D02*
G75*
G03*
X55609987Y-104910013I1331500J-44D01*
G01*
%TO.N,+3.3VA*%
X68365000Y-109069595D02*
X68750000Y-109454595D01*
X68750000Y-112857322D02*
X68749804Y-112861544D01*
X68754688Y-112877627D02*
X68759381Y-112884648D01*
X68750000Y-108230000D02*
X68365000Y-108615000D01*
X68750000Y-109454595D02*
X68750000Y-112857322D01*
X68762500Y-112887500D02*
X68775000Y-112900000D01*
X68751455Y-112869826D02*
X68754688Y-112877627D01*
D76*
X68750000Y-107935000D02*
X68250000Y-107935000D01*
D69*
X68759381Y-112884648D02*
X68762500Y-112887500D01*
X68365000Y-108615000D02*
X68365000Y-109069595D01*
X68750000Y-107935000D02*
X68750000Y-108230000D01*
X68749804Y-112861544D02*
X68751455Y-112869826D01*
D73*
%TO.N,/MCU/NTC_MTR*%
X58585355Y-125750000D02*
X60560000Y-125750000D01*
X53341421Y-125700000D02*
X58464644Y-125700000D01*
D69*
X60560000Y-125750000D02*
X64042893Y-125750000D01*
X65750000Y-124042893D02*
X65750000Y-107935000D01*
D73*
X53100000Y-125600000D02*
X53000000Y-125500000D01*
X53341421Y-125700000D02*
G75*
G02*
X53099994Y-125600006I-21J341400D01*
G01*
D69*
X58464644Y-125700000D02*
G75*
G02*
X58524987Y-125725013I-44J-85400D01*
G01*
X58525000Y-125725000D02*
G75*
G03*
X58585355Y-125750018I60400J60400D01*
G01*
X65750000Y-124042893D02*
G75*
G02*
X65250002Y-125250002I-1707100J-7D01*
G01*
X65250000Y-125250000D02*
G75*
G02*
X64042893Y-125749997I-1207100J1207100D01*
G01*
D77*
%TO.N,/MCU/VBus*%
X61716387Y-130033613D02*
X61716387Y-130283613D01*
X66800000Y-124950000D02*
X66800000Y-113419238D01*
X67449999Y-111849999D02*
X67640380Y-111659619D01*
D70*
X116131250Y-137800000D02*
X116087500Y-137843750D01*
D77*
X61716387Y-136800000D02*
X61716387Y-130283613D01*
D71*
X67750000Y-109302512D02*
X67750000Y-107935000D01*
D77*
X63700000Y-128050000D02*
X66800000Y-124950000D01*
X68100000Y-110550000D02*
X68100000Y-110147487D01*
X63700000Y-128050000D02*
X61716387Y-130033613D01*
X64100000Y-136800000D02*
X61716387Y-136800000D01*
X68100000Y-110147487D02*
G75*
G03*
X67924996Y-109725004I-597500J-13D01*
G01*
D70*
X116175000Y-137694378D02*
G75*
G02*
X116131267Y-137800017I-149400J-22D01*
G01*
D77*
X66800000Y-113419238D02*
G75*
G02*
X67449989Y-111849989I2219200J38D01*
G01*
X67640380Y-111659619D02*
G75*
G03*
X68100011Y-110550000I-1109580J1109619D01*
G01*
X67925000Y-109725000D02*
G75*
G02*
X67749995Y-109302512I422500J422500D01*
G01*
D70*
%TO.N,Net-(D3-A)*%
X95037500Y-120750000D02*
X97462500Y-120750000D01*
%TO.N,Net-(D4-A)*%
X95037500Y-117750000D02*
X97462500Y-117750000D01*
%TO.N,Net-(D2-A)*%
X95037500Y-123750000D02*
X97462500Y-123750000D01*
D72*
%TO.N,/MCU/USB_DP*%
X79475000Y-110526008D02*
X79475000Y-104126040D01*
X70434999Y-124383198D02*
X70435000Y-124474999D01*
X71034999Y-124008197D02*
X70610000Y-124008197D01*
X70435000Y-124474999D02*
X71160000Y-125199999D01*
X71160000Y-125199999D02*
X71160000Y-126100000D01*
X70434999Y-124183198D02*
X70434999Y-124383198D01*
X78779454Y-103430495D02*
X78779454Y-103211256D01*
X79475000Y-104126040D02*
X78779454Y-103430495D01*
X79475000Y-111423779D02*
X79475000Y-110526008D01*
X71659998Y-123183198D02*
X71659998Y-123383198D01*
X70435000Y-122383198D02*
X70434999Y-122383198D01*
X73156802Y-101775000D02*
X72181802Y-102750000D01*
X77343198Y-101775000D02*
X73156802Y-101775000D01*
X79475000Y-113343198D02*
X79475000Y-111423779D01*
X78779454Y-103211256D02*
X77343198Y-101775000D01*
X72181802Y-102750000D02*
X70935000Y-102750000D01*
X71784099Y-121034099D02*
X79475000Y-113343198D01*
X71784099Y-121034099D02*
X70435000Y-122383198D01*
X70610000Y-122558199D02*
X71034999Y-122558199D01*
X70434999Y-122383198D02*
G75*
G03*
X70610000Y-122558201I175001J-2D01*
G01*
X71034999Y-122558199D02*
G75*
G02*
X71660001Y-123183198I1J-625001D01*
G01*
X71659998Y-123383198D02*
G75*
G02*
X71034999Y-124008198I-624998J-2D01*
G01*
X70610000Y-124008197D02*
G75*
G03*
X70434997Y-124183198I0J-175003D01*
G01*
%TO.N,/MCU/USB_DN*%
X75405762Y-115972120D02*
X75320909Y-116056972D01*
X72318198Y-103250000D02*
X70935000Y-103250000D01*
X69985000Y-124474999D02*
X69260000Y-125199999D01*
X75383456Y-116798343D02*
X75298605Y-116883196D01*
X71465901Y-120715901D02*
X69985000Y-122196802D01*
X79025000Y-111423779D02*
X79025000Y-110526008D01*
X75298605Y-116883196D02*
X74928731Y-117253071D01*
X69985000Y-122196802D02*
X69985001Y-122383198D01*
X78379454Y-103447652D02*
X77156802Y-102225000D01*
X75320909Y-116396384D02*
X75383456Y-116458931D01*
X71034999Y-123558199D02*
X70610000Y-123558199D01*
X79025000Y-110526008D02*
X79025000Y-104241726D01*
X79025000Y-113156802D02*
X76147134Y-116034668D01*
X78379454Y-103596180D02*
X78379454Y-103447652D01*
X77156802Y-102225000D02*
X73343198Y-102225000D01*
X71210000Y-123183198D02*
X71210000Y-123383198D01*
X69985001Y-124183198D02*
X69985001Y-124383198D01*
X75807722Y-116034668D02*
X75745174Y-115972120D01*
X79025000Y-104241726D02*
X78379454Y-103596180D01*
X74928731Y-117253071D02*
X71465901Y-120715901D01*
X70610000Y-123008197D02*
X71034999Y-123008197D01*
X79025000Y-111423779D02*
X79025000Y-113156802D01*
X69260000Y-125199999D02*
X69260000Y-126100000D01*
X69985001Y-124383198D02*
X69985000Y-124474999D01*
X73343198Y-102225000D02*
X72318198Y-103250000D01*
X71210000Y-123383198D02*
G75*
G02*
X71034999Y-123558200I-175000J-2D01*
G01*
X69985001Y-122383198D02*
G75*
G03*
X70610000Y-123008199I624999J-2D01*
G01*
X71034999Y-123008197D02*
G75*
G02*
X71210003Y-123183198I1J-175003D01*
G01*
X75320909Y-116056972D02*
G75*
G03*
X75320887Y-116396406I169691J-169728D01*
G01*
X76147134Y-116034668D02*
G75*
G02*
X75807722Y-116034668I-169706J169704D01*
G01*
X70610000Y-123558199D02*
G75*
G03*
X69984999Y-124183198I0J-625001D01*
G01*
X75745174Y-115972120D02*
G75*
G03*
X75405762Y-115972120I-169706J-169704D01*
G01*
X75383456Y-116458931D02*
G75*
G02*
X75383419Y-116798306I-169656J-169669D01*
G01*
D77*
%TO.N,/MCU/PD2*%
X89457950Y-130500000D02*
X87300000Y-130500000D01*
X89593750Y-130556250D02*
X89650000Y-130612500D01*
X89457950Y-130500000D02*
G75*
G02*
X89593765Y-130556235I50J-192000D01*
G01*
D69*
%TO.N,/MCU/UART_P*%
X87300000Y-128796259D02*
X87300000Y-128000000D01*
X68750000Y-100480565D02*
X68750000Y-101065000D01*
X83361765Y-128926000D02*
X87170259Y-128926000D01*
X79514009Y-127332207D02*
X77319607Y-125137805D01*
X76500001Y-123159100D02*
X76500001Y-122000001D01*
X69163257Y-99482873D02*
X73042370Y-95603760D01*
X79514009Y-127332207D02*
G75*
G03*
X83361765Y-128926010I3847791J3847807D01*
G01*
X87300000Y-128796259D02*
G75*
G02*
X87262012Y-128888012I-129700J-41D01*
G01*
X87170259Y-128926000D02*
G75*
G03*
X87262012Y-128888012I41J129700D01*
G01*
X73042370Y-95603760D02*
G75*
G02*
X74500000Y-94999993I1457630J-1457640D01*
G01*
X69163257Y-99482873D02*
G75*
G03*
X68749960Y-100480565I997643J-997727D01*
G01*
X76500001Y-123159100D02*
G75*
G03*
X77319610Y-125137802I2798299J0D01*
G01*
%TO.N,/MCU/UART_N*%
X79578585Y-126492484D02*
X77536885Y-124450784D01*
X77177002Y-123581949D02*
X77177002Y-123124615D01*
X73006744Y-96285094D02*
X69611741Y-99680096D01*
X77250000Y-123000000D02*
X77213501Y-123036499D01*
X83218050Y-128000000D02*
X85350000Y-128000000D01*
X69250000Y-100553419D02*
X69250000Y-101065000D01*
X74057146Y-95850003D02*
X77000000Y-95850003D01*
X77177002Y-123581949D02*
G75*
G03*
X77536864Y-124450805I1228698J-51D01*
G01*
X69611741Y-99680096D02*
G75*
G03*
X69250023Y-100553419I873359J-873304D01*
G01*
X77177002Y-123124615D02*
G75*
G02*
X77213497Y-123036495I124598J15D01*
G01*
X83218050Y-128000000D02*
G75*
G02*
X79578606Y-126492463I50J5147000D01*
G01*
X73006744Y-96285094D02*
G75*
G02*
X74057146Y-95850037I1050356J-1050406D01*
G01*
%TO.N,Net-(IC1-SHDN)*%
X88645367Y-129376000D02*
X85817747Y-129376000D01*
X85350000Y-129843747D02*
X85350000Y-130500000D01*
X89355750Y-129081750D02*
X89650000Y-128787500D01*
X89355750Y-129081750D02*
G75*
G02*
X88645367Y-129375987I-710350J710350D01*
G01*
X85487000Y-129513000D02*
G75*
G03*
X85350020Y-129843747I330700J-330700D01*
G01*
X85487000Y-129513000D02*
G75*
G02*
X85817747Y-129376020I330700J-330700D01*
G01*
%TO.N,/MCU/SWDIO*%
X72285429Y-99795331D02*
X71148631Y-100932128D01*
X70935000Y-101447880D02*
X70935000Y-101750000D01*
X71148631Y-100932128D02*
G75*
G03*
X70934990Y-101447880I515769J-515772D01*
G01*
%TO.N,/MCU/SWCLK*%
X70250000Y-100848915D02*
X70250000Y-101065000D01*
X70402795Y-100480034D02*
X71636531Y-99246299D01*
X70402795Y-100480034D02*
G75*
G03*
X70250017Y-100848915I368905J-368866D01*
G01*
D70*
%TO.N,/MCU/I2C1_SCL*%
X102150000Y-134521751D02*
X102150000Y-135900000D01*
D69*
X69750000Y-100432796D02*
X70063518Y-100119278D01*
X69750000Y-101065000D02*
X69750000Y-100432796D01*
D70*
X102625000Y-133375000D02*
X102971836Y-133028163D01*
D69*
X80700000Y-104750000D02*
X80700000Y-104855310D01*
X70063518Y-99875726D02*
X73171849Y-96767395D01*
X79204454Y-103254454D02*
X80700000Y-104750000D01*
X79204454Y-102800000D02*
X79204454Y-103254454D01*
X73171849Y-96767395D02*
X79204454Y-102800000D01*
D70*
X103281250Y-132900000D02*
X103462500Y-132900000D01*
D69*
X70063518Y-100119278D02*
X70063518Y-99875726D01*
D70*
X103281250Y-132900000D02*
G75*
G03*
X102971807Y-133028134I-50J-437600D01*
G01*
X102625000Y-133375000D02*
G75*
G03*
X102150021Y-134521751I1146700J-1146700D01*
G01*
D69*
%TO.N,/Gate_Driver/SHA*%
X106010115Y-99718920D02*
X107226420Y-99718920D01*
D72*
X102000000Y-92500000D02*
X102250000Y-92250000D01*
X103374300Y-69499300D02*
X104448600Y-68425000D01*
D69*
X104659460Y-99159460D02*
X104100000Y-98600000D01*
D72*
X102300000Y-72092889D02*
X102300000Y-86500000D01*
D69*
X107595000Y-100608750D02*
X107595000Y-101130000D01*
D72*
X101396446Y-92750000D02*
X94435000Y-92750000D01*
X101396446Y-92750000D02*
G75*
G03*
X101999986Y-92499986I-46J853600D01*
G01*
X103374300Y-69499300D02*
G75*
G03*
X102299996Y-72092889I2593600J-2593600D01*
G01*
D69*
X104659460Y-99159460D02*
G75*
G03*
X106010115Y-99718908I1350640J1350660D01*
G01*
X107595000Y-100608750D02*
G75*
G03*
X107226393Y-99718947I-1258400J-50D01*
G01*
%TO.N,Net-(Q7-G)*%
X111000000Y-66775304D02*
X111000000Y-82549706D01*
X109414600Y-86377199D02*
X107829201Y-87962599D01*
X112041928Y-64708071D02*
X111725000Y-65025000D01*
X113027100Y-64300000D02*
X113604200Y-64300000D01*
X113027100Y-64300000D02*
G75*
G03*
X112041937Y-64708080I0J-1393200D01*
G01*
X111000000Y-66775304D02*
G75*
G02*
X111724999Y-65024999I2475300J4D01*
G01*
X109414600Y-86377199D02*
G75*
G03*
X111000002Y-82549706I-3827500J3827499D01*
G01*
%TO.N,Net-(Q8-G)*%
X109251800Y-71748200D02*
X108253600Y-70750000D01*
X108656207Y-84593792D02*
X106537401Y-86712599D01*
X110250000Y-80746036D02*
X110250000Y-74158067D01*
X108656207Y-84593792D02*
G75*
G03*
X110250010Y-80746036I-3847807J3847792D01*
G01*
X109251800Y-71748200D02*
G75*
G02*
X110250013Y-74158067I-2409900J-2409900D01*
G01*
D72*
%TO.N,/Gate_Driver/SHB*%
X92250000Y-86687500D02*
X92250000Y-86875000D01*
X92625000Y-85750000D02*
X94750000Y-85750000D01*
X92250000Y-87390625D02*
X92250000Y-87625000D01*
X92250000Y-86125000D02*
X92250000Y-85375000D01*
X92250000Y-86171875D02*
X92250000Y-86265625D01*
X92250000Y-86125000D02*
X92250000Y-86171875D01*
X92250000Y-88375000D02*
X92250000Y-90565000D01*
X92250000Y-86312500D02*
X92250000Y-86500000D01*
X92250000Y-86875000D02*
X92250000Y-87062500D01*
X92250000Y-86500000D02*
X92250000Y-86687500D01*
X92250000Y-87109375D02*
X92250000Y-87062500D01*
X92250000Y-86312500D02*
X92250000Y-86265625D01*
X93599300Y-69774300D02*
X94948600Y-68425000D01*
X92250000Y-87109375D02*
X92250000Y-87390625D01*
X92250000Y-87625000D02*
X92250000Y-88375000D01*
X92250000Y-73031798D02*
X92250000Y-85375000D01*
X92250000Y-73031798D02*
G75*
G02*
X93599300Y-69774300I4606800J-2D01*
G01*
X92625000Y-85750000D02*
G75*
G02*
X92250000Y-85375000I0J375000D01*
G01*
X92250000Y-86125000D02*
G75*
G02*
X92625000Y-85750000I375000J0D01*
G01*
D69*
%TO.N,Net-(Q9-G)*%
X84444974Y-64300000D02*
X85783000Y-64300000D01*
X83899982Y-85149982D02*
X83750000Y-85000000D01*
X84745000Y-85500000D02*
X85240000Y-85500000D01*
X83250000Y-83792893D02*
X83250000Y-65494974D01*
X83250000Y-83792893D02*
G75*
G03*
X83749998Y-85000002I1707100J-7D01*
G01*
X83250000Y-65494974D02*
G75*
G02*
X83600007Y-64650007I1195000J-26D01*
G01*
X84745000Y-85500000D02*
G75*
G02*
X83899989Y-85149975I0J1195000D01*
G01*
X83600000Y-64650000D02*
G75*
G02*
X84444974Y-64299990I845000J-845000D01*
G01*
%TO.N,/Gate_Driver/SPB*%
X94000000Y-89000000D02*
X93538146Y-89461853D01*
X93250000Y-90157500D02*
X93250000Y-90565000D01*
X93538146Y-89461853D02*
G75*
G03*
X93250002Y-90157500I695654J-695647D01*
G01*
%TO.N,Net-(Q10-G)*%
X99760000Y-72468032D02*
X99760000Y-83760000D01*
X99256800Y-71253200D02*
X98753600Y-70750000D01*
X99760000Y-72468032D02*
G75*
G03*
X99256809Y-71253191I-1718000J32D01*
G01*
D72*
%TO.N,/Gate_Driver/SHC*%
X66804600Y-69229600D02*
X67609200Y-68425000D01*
X72000000Y-89541005D02*
X72000000Y-89195000D01*
D69*
X90750000Y-90032500D02*
X90750000Y-90565000D01*
X89750000Y-88500000D02*
X90373465Y-89123465D01*
D72*
X71685337Y-88435337D02*
X67593792Y-84343792D01*
X66000000Y-71172076D02*
X66000000Y-80496036D01*
D69*
X72238994Y-89500000D02*
X73750000Y-89500000D01*
X90750000Y-90032500D02*
G75*
G03*
X90373471Y-89123459I-1285600J0D01*
G01*
X72238994Y-89500000D02*
G75*
G03*
X72070001Y-89570001I6J-239000D01*
G01*
D72*
X72000000Y-89541005D02*
G75*
G03*
X72069991Y-89569991I41000J5D01*
G01*
X66000000Y-71172076D02*
G75*
G02*
X66804607Y-69229607I2747100J-24D01*
G01*
X72000000Y-89195000D02*
G75*
G03*
X71685332Y-88435342I-1074300J0D01*
G01*
X66000000Y-80496036D02*
G75*
G03*
X67593790Y-84343794I5441550J-4D01*
G01*
D69*
%TO.N,/Gate_Driver/SPC*%
X88250000Y-88750000D02*
X89161611Y-89661611D01*
X89750000Y-90176776D02*
X89750000Y-90565000D01*
X72750000Y-84762563D02*
X72750000Y-81898235D01*
X89625000Y-89875000D02*
X89588388Y-89838388D01*
X85835786Y-87750000D02*
X75737436Y-87750000D01*
X72370400Y-80981800D02*
X71990800Y-80602200D01*
X88250000Y-88750000D02*
G75*
G03*
X85835786Y-87750006I-2414200J-2414200D01*
G01*
X89375000Y-89750000D02*
G75*
G02*
X89161606Y-89661616I0J301800D01*
G01*
X72370400Y-80981800D02*
G75*
G02*
X72749985Y-81898235I-916400J-916400D01*
G01*
X89625000Y-89875000D02*
G75*
G02*
X89750010Y-90176776I-301800J-301800D01*
G01*
X89375000Y-89750000D02*
G75*
G02*
X89588393Y-89838383I0J-301800D01*
G01*
X73625000Y-86875000D02*
G75*
G03*
X75737436Y-87749985I2112400J2112400D01*
G01*
X73625000Y-86875000D02*
G75*
G02*
X72750015Y-84762563I2112400J2112400D01*
G01*
D72*
%TO.N,/Gate_Driver/FAULT*%
X66750000Y-98650000D02*
X72940000Y-92460000D01*
X86926776Y-92750000D02*
X87565000Y-92750000D01*
X82320000Y-92480000D02*
X82300000Y-92460000D01*
X72940000Y-92460000D02*
X82300000Y-92460000D01*
X79320000Y-97700000D02*
X79420000Y-97600000D01*
X82368284Y-92500000D02*
X86323223Y-92500000D01*
D69*
X79320000Y-97700000D02*
X79570000Y-97950000D01*
D72*
X66750000Y-101065000D02*
X66750000Y-98650000D01*
X82320000Y-92480000D02*
G75*
G03*
X82368284Y-92500007I48300J48300D01*
G01*
X86625000Y-92625000D02*
G75*
G03*
X86926776Y-92750010I301800J301800D01*
G01*
X86625000Y-92625000D02*
G75*
G03*
X86323223Y-92499990I-301800J-301800D01*
G01*
D69*
%TO.N,/Gate_Driver/SDO*%
X87543000Y-93228000D02*
X87521000Y-93206000D01*
D72*
X79380760Y-99700000D02*
X83665380Y-95415380D01*
X83665380Y-95415380D02*
X83665380Y-95165380D01*
X86456066Y-93250000D02*
X87533887Y-93250000D01*
X86200000Y-93100000D02*
X86275000Y-93175000D01*
X67750000Y-100188347D02*
X67750000Y-101065000D01*
X79335000Y-99700000D02*
X79380760Y-99700000D01*
X68369886Y-98691808D02*
X73368647Y-93693048D01*
D69*
X87543000Y-93228000D02*
G75*
G02*
X87533887Y-93249969I-9100J-9100D01*
G01*
D72*
X68369886Y-98691808D02*
G75*
G03*
X67750025Y-100188347I1496514J-1496492D01*
G01*
X86456066Y-93250000D02*
G75*
G02*
X86275010Y-93174990I34J256100D01*
G01*
D69*
%TO.N,Net-(U1-SHDN_N)*%
X93815000Y-97500000D02*
X93750000Y-97435000D01*
X99082498Y-96897498D02*
X99746464Y-96233533D01*
X97471009Y-97565000D02*
X93971923Y-97565000D01*
X99750000Y-96224998D02*
X99750000Y-96219998D01*
X97471009Y-97565000D02*
G75*
G03*
X99082496Y-96897496I-9J2279000D01*
G01*
X93815000Y-97500000D02*
G75*
G03*
X93971923Y-97564990I156900J156900D01*
G01*
X99750000Y-96224998D02*
G75*
G02*
X99746471Y-96233540I-12100J-2D01*
G01*
%TO.N,/Gate_Driver/FB*%
X95454434Y-96909029D02*
X95374919Y-96829514D01*
X95182954Y-96750000D02*
X94435000Y-96750000D01*
X95182954Y-96750000D02*
G75*
G02*
X95374946Y-96829487I46J-271500D01*
G01*
%TO.N,/MCU/BOOT0*%
X65750000Y-96250000D02*
X65750000Y-101065000D01*
D73*
%TO.N,Net-(w1-B)*%
X54350628Y-111000000D02*
X52430000Y-111000000D01*
D69*
X54456250Y-110956250D02*
X54500000Y-110912500D01*
X54456250Y-110956250D02*
G75*
G02*
X54350628Y-111000012I-105650J105650D01*
G01*
%TO.N,/Gate_Driver/GHA*%
X103250115Y-92541683D02*
X106754399Y-89037401D01*
X101540087Y-93250000D02*
X94435000Y-93250000D01*
X103250115Y-92541683D02*
G75*
G02*
X101540087Y-93249974I-1710015J1710083D01*
G01*
%TO.N,/Gate_Driver/GLA*%
X98746036Y-92250000D02*
X94435000Y-92250000D01*
X102593792Y-90656207D02*
X105462599Y-87787401D01*
X102593792Y-90656207D02*
G75*
G02*
X98746036Y-92250010I-3847792J3847807D01*
G01*
%TO.N,/Gate_Driver/GHB*%
X87755000Y-85500000D02*
X86760000Y-85500000D01*
X91019912Y-87769912D02*
X89453571Y-86203571D01*
X91750000Y-89532500D02*
X91750000Y-90565000D01*
X91019912Y-87769912D02*
G75*
G02*
X91749993Y-89532500I-1762612J-1762588D01*
G01*
X87755000Y-85500000D02*
G75*
G02*
X89453562Y-86203580I0J-2402100D01*
G01*
%TO.N,/Gate_Driver/GLB*%
X93214922Y-88785077D02*
X98240000Y-83760000D01*
X92750000Y-89907500D02*
X92750000Y-90565000D01*
X93214922Y-88785077D02*
G75*
G03*
X92749986Y-89907500I1122378J-1122423D01*
G01*
%TO.N,/Gate_Driver/GHC*%
X90696688Y-88446688D02*
X90000000Y-87750000D01*
X85914213Y-86500000D02*
X86982233Y-86500000D01*
X81085786Y-84500000D02*
X77801800Y-84500000D01*
X91250000Y-89782500D02*
X91250000Y-90565000D01*
X86982233Y-86500000D02*
G75*
G02*
X89999990Y-87750010I-33J-4267800D01*
G01*
X83500000Y-85500000D02*
G75*
G03*
X81085786Y-84500006I-2414200J-2414200D01*
G01*
X85914213Y-86500000D02*
G75*
G02*
X83499996Y-85500004I-13J3414200D01*
G01*
X90696688Y-88446688D02*
G75*
G02*
X91250006Y-89782500I-1335788J-1335812D01*
G01*
%TO.N,/Gate_Driver/GLC*%
X87375000Y-87000000D02*
X79176776Y-87000000D01*
X90000000Y-89500000D02*
X89838388Y-89338388D01*
X78573223Y-86750000D02*
X77801800Y-86750000D01*
X90250000Y-90103553D02*
X90250000Y-90565000D01*
X87588388Y-87338388D02*
X89411611Y-89161611D01*
X90250000Y-90103553D02*
G75*
G03*
X89999986Y-89500014I-853600J-47D01*
G01*
X87588388Y-87338388D02*
G75*
G02*
X87500007Y-87125000I213412J213388D01*
G01*
X89625000Y-89250000D02*
G75*
G02*
X89411606Y-89161616I0J301800D01*
G01*
X78875000Y-86875000D02*
G75*
G03*
X79176776Y-87000010I301800J301800D01*
G01*
X87375000Y-87000000D02*
G75*
G02*
X87500000Y-87125000I0J-125000D01*
G01*
X89625000Y-89250000D02*
G75*
G02*
X89838393Y-89338383I0J-301800D01*
G01*
X78573223Y-86750000D02*
G75*
G02*
X78874993Y-86875007I-23J-426800D01*
G01*
D72*
%TO.N,/Gate_Driver/SDI*%
X73464086Y-93049629D02*
X73526690Y-93062087D01*
X72981164Y-93170589D02*
X73034240Y-93135126D01*
X67373319Y-99182168D02*
X67421913Y-99043290D01*
X72931820Y-93211084D02*
X72981164Y-93170589D01*
X67421913Y-99043290D02*
X67478217Y-98907356D01*
X74609184Y-93727315D02*
X74702818Y-93742143D01*
X67332589Y-99323551D02*
X67373319Y-99182168D01*
X74339255Y-93639613D02*
X74426840Y-93675891D01*
X67868379Y-98286404D02*
X67966420Y-98176694D01*
X74517002Y-93705185D02*
X74609184Y-93727315D01*
X73368647Y-93043048D02*
X73400563Y-93043367D01*
X73034240Y-93135126D02*
X73090536Y-93105037D01*
X74702818Y-93742143D02*
X74797327Y-93749580D01*
X84265992Y-93715381D02*
X84300610Y-93750000D01*
X67250000Y-99978728D02*
X67250486Y-99905161D01*
X74097259Y-93491318D02*
X74173955Y-93547041D01*
X67258734Y-99758259D02*
X67275206Y-99612051D01*
X73646742Y-93105053D02*
X73703034Y-93135149D01*
X67250000Y-101065000D02*
X67250000Y-99978728D01*
X67613225Y-98646017D02*
X67691503Y-98521435D01*
X73336730Y-93043381D02*
X73368647Y-93043048D01*
X83030150Y-93750000D02*
X83064771Y-93715380D01*
X67250486Y-99905161D02*
X67258734Y-99758259D01*
X67542055Y-98774793D02*
X67613225Y-98646017D01*
X73210597Y-93062084D02*
X73273204Y-93049634D01*
X67776644Y-98401438D02*
X67868379Y-98286404D01*
X73756104Y-93170616D02*
X73805443Y-93211116D01*
X67275206Y-99612051D02*
X67299850Y-99466996D01*
X73587772Y-93080621D02*
X73646742Y-93105053D01*
X73090536Y-93105037D02*
X73149511Y-93080611D01*
X67299850Y-99466996D02*
X67332589Y-99323551D01*
X73805443Y-93211116D02*
X73828266Y-93233428D01*
X74844728Y-93750000D02*
X83030150Y-93750000D01*
X73273204Y-93049634D02*
X73336730Y-93043381D01*
X83064771Y-93715380D02*
X84265992Y-93715381D01*
X67966420Y-98176694D02*
X68018110Y-98124345D01*
X73703034Y-93135149D02*
X73756104Y-93170616D01*
X74025172Y-93429749D02*
X74097259Y-93491318D01*
X73400563Y-93043367D02*
X73464086Y-93049629D01*
X72909027Y-93233428D02*
X72931820Y-93211084D01*
X73828266Y-93233428D02*
X73991362Y-93396524D01*
X74797327Y-93749580D02*
X74844728Y-93750000D01*
X74173955Y-93547041D02*
X74254786Y-93596574D01*
X73526690Y-93062087D02*
X73587772Y-93080621D01*
X74426840Y-93675891D02*
X74517002Y-93705185D01*
X73991362Y-93396524D02*
X74025172Y-93429749D01*
X68018110Y-98124345D02*
X72909027Y-93233428D01*
X84300610Y-93750000D02*
X87565000Y-93750000D01*
X67691503Y-98521435D02*
X67776644Y-98401438D01*
X67478217Y-98907356D02*
X67542055Y-98774793D01*
X74254786Y-93596574D02*
X74339255Y-93639613D01*
X73149511Y-93080611D02*
X73210597Y-93062084D01*
D69*
%TO.N,/Gate_Driver/SOA*%
X86926776Y-91250000D02*
X87565000Y-91250000D01*
X61996873Y-106250000D02*
X64065000Y-106250000D01*
X61698130Y-106425000D02*
X61785630Y-106337500D01*
X86625000Y-91125000D02*
X86500000Y-91000000D01*
X61996873Y-106250000D02*
G75*
G03*
X61785652Y-106337522I27J-298700D01*
G01*
X86625000Y-91125000D02*
G75*
G03*
X86926776Y-91250010I301800J301800D01*
G01*
%TO.N,/Gate_Driver/INHC*%
X74500000Y-103000000D02*
X75000000Y-103500000D01*
X72471752Y-103750000D02*
X73221752Y-103000000D01*
X89668135Y-99662624D02*
X85115383Y-104215377D01*
X90250000Y-98257880D02*
X90250000Y-97435000D01*
X73221752Y-103000000D02*
X74500000Y-103000000D01*
X70935000Y-103750000D02*
X72471752Y-103750000D01*
X89668135Y-99662624D02*
G75*
G03*
X90249988Y-98257880I-1404735J1404724D01*
G01*
%TO.N,/Gate_Driver/SOB*%
X88250000Y-90407500D02*
X88250000Y-90362500D01*
X86500000Y-90000000D02*
X86670000Y-89830000D01*
X88250000Y-90407500D02*
X88250000Y-90250000D01*
X60996873Y-105750000D02*
X64065000Y-105750000D01*
X88106810Y-90016810D02*
X88000000Y-89910000D01*
X60785630Y-105837500D02*
X60698130Y-105925000D01*
X87396446Y-89660000D02*
X87080416Y-89660000D01*
X88250000Y-90407500D02*
X88250000Y-90407500D01*
X87396446Y-89660000D02*
G75*
G02*
X88000016Y-89909984I54J-853500D01*
G01*
X87080416Y-89660000D02*
G75*
G03*
X86669995Y-89829995I-16J-580400D01*
G01*
X88106810Y-90016810D02*
G75*
G02*
X88249994Y-90362500I-345710J-345690D01*
G01*
X60785630Y-105837500D02*
G75*
G02*
X60996873Y-105749969I211270J-211200D01*
G01*
D72*
%TO.N,/Gate_Driver/Enable*%
X85000000Y-95250000D02*
X82000000Y-98250000D01*
X70935000Y-105750000D02*
X72852942Y-105750000D01*
X87565000Y-95250000D02*
X85000000Y-95250000D01*
X74420602Y-105294238D02*
X77294241Y-105294238D01*
X73051942Y-105949000D02*
X73765840Y-105949000D01*
X72852942Y-105750000D02*
X73051942Y-105949000D01*
X82000000Y-98250000D02*
X82000000Y-99000000D01*
X73765840Y-105949000D02*
X74420602Y-105294238D01*
%TO.N,/Gate_Driver/INHA*%
X85500000Y-99750000D02*
X85935000Y-99750000D01*
X73038652Y-104750000D02*
X73139652Y-104649000D01*
X76101000Y-104649000D02*
X76250000Y-104500000D01*
X73139652Y-104649000D02*
X76101000Y-104649000D01*
X70935000Y-104750000D02*
X73038652Y-104750000D01*
X85935000Y-99750000D02*
X88250000Y-97435000D01*
D69*
%TO.N,/Gate_Driver/SOC*%
X88514886Y-89664886D02*
X88362500Y-89512500D01*
X59962912Y-105425000D02*
X60050412Y-105337500D01*
X88750000Y-90232500D02*
X88750000Y-90565000D01*
X87426992Y-89125000D02*
X86500000Y-89125000D01*
X60261655Y-105250000D02*
X64065000Y-105250000D01*
X87426992Y-89125000D02*
G75*
G02*
X88362502Y-89512498I8J-1323000D01*
G01*
X60050412Y-105337500D02*
G75*
G02*
X60261655Y-105249956I211288J-211200D01*
G01*
X88514886Y-89664886D02*
G75*
G02*
X88750008Y-90232500I-567586J-567614D01*
G01*
D72*
%TO.N,/Gate_Driver/SCLK*%
X68250420Y-100301598D02*
X68257733Y-100190033D01*
X84234924Y-94250000D02*
X87565000Y-94250000D01*
X74095998Y-94257805D02*
X74199381Y-94250411D01*
X68569274Y-99362315D02*
X68637338Y-99273616D01*
X68323077Y-99861536D02*
X68359016Y-99755666D01*
X68711057Y-99189559D02*
X68750277Y-99149721D01*
X68359016Y-99755666D02*
X68401803Y-99652373D01*
X68250000Y-100357500D02*
X68250420Y-100301598D01*
X83230456Y-94115380D02*
X84100305Y-94115380D01*
X73695568Y-94360010D02*
X73792679Y-94323789D01*
X73340154Y-94570892D02*
X73423126Y-94508777D01*
X68250000Y-101065000D02*
X68250000Y-100357500D01*
X73601287Y-94403067D02*
X73695568Y-94360010D01*
X68507158Y-99455275D02*
X68569274Y-99362315D01*
X68401803Y-99652373D02*
X68451254Y-99552099D01*
X68637338Y-99273616D02*
X68711057Y-99189559D01*
X68750277Y-99149721D02*
X73224883Y-94675116D01*
X68272327Y-100079186D02*
X68294139Y-99969530D01*
X68294139Y-99969530D02*
X68323077Y-99861536D01*
X74251204Y-94250000D02*
X83095835Y-94250000D01*
X73224883Y-94675116D02*
X73261824Y-94638767D01*
X84100305Y-94115380D02*
X84234924Y-94250000D01*
X73993406Y-94272555D02*
X74095998Y-94257805D01*
X74199381Y-94250411D02*
X74251204Y-94250000D01*
X73510319Y-94452741D02*
X73601287Y-94403067D01*
X68451254Y-99552099D02*
X68507158Y-99455275D01*
X73261824Y-94638767D02*
X73340154Y-94570892D01*
X73892128Y-94294587D02*
X73993406Y-94272555D01*
X73423126Y-94508777D02*
X73510319Y-94452741D01*
X83095835Y-94250000D02*
X83230456Y-94115380D01*
X68257733Y-100190033D02*
X68272327Y-100079186D01*
X73792679Y-94323789D02*
X73892128Y-94294587D01*
%TO.N,/Gate_Driver/INLC*%
X67250000Y-110250000D02*
X67250000Y-107935000D01*
X90162210Y-100076032D02*
X90249403Y-99966693D01*
X90069023Y-100180310D02*
X90162210Y-100076032D01*
X83946141Y-105715380D02*
X84534619Y-105715380D01*
X90249403Y-99966693D02*
X90330329Y-99852638D01*
X90750000Y-98467500D02*
X90750000Y-97435000D01*
X90586574Y-99356622D02*
X90632763Y-99224621D01*
X90741680Y-98677053D02*
X90749521Y-98537424D01*
X90632763Y-99224621D02*
X90671478Y-99090238D01*
X90726022Y-98816022D02*
X90741680Y-98677053D01*
X90019912Y-100230087D02*
X90069023Y-100180310D01*
X83250000Y-107000000D02*
X83250000Y-106411521D01*
X90749521Y-98537424D02*
X90750000Y-98467500D01*
X90671478Y-99090238D02*
X90702597Y-98953895D01*
X90404733Y-99734224D02*
X90472379Y-99611825D01*
X84534619Y-105715380D02*
X90019912Y-100230087D01*
X90702597Y-98953895D02*
X90726022Y-98816022D01*
X83250000Y-106411521D02*
X83946141Y-105715380D01*
X90472379Y-99611825D02*
X90533057Y-99485825D01*
X90330329Y-99852638D02*
X90404733Y-99734224D01*
X90533057Y-99485825D02*
X90586574Y-99356622D01*
D69*
%TO.N,/Gate_Driver/INHB*%
X84865013Y-102783946D02*
X88909188Y-98739771D01*
X73289152Y-103975000D02*
X73315945Y-103975000D01*
X73315945Y-103975000D02*
X73390945Y-103900000D01*
X72953094Y-104250000D02*
X73078094Y-104125000D01*
X70935000Y-104250000D02*
X72953094Y-104250000D01*
X89250000Y-97916980D02*
X89250000Y-97435000D01*
X84183946Y-103066053D02*
X83169194Y-104080805D01*
X73139152Y-104125000D02*
X73289152Y-103975000D01*
X73078094Y-104125000D02*
X73139152Y-104125000D01*
X83125000Y-104187500D02*
X83125000Y-104250000D01*
X83125000Y-104187500D02*
G75*
G02*
X83169192Y-104080803I150900J0D01*
G01*
X89250000Y-97916980D02*
G75*
G02*
X88909198Y-98739781I-1163600J-20D01*
G01*
X84183946Y-103066053D02*
G75*
G02*
X84524480Y-102924989I340554J-340547D01*
G01*
X84865013Y-102783946D02*
G75*
G02*
X84524480Y-102924981I-340513J340546D01*
G01*
D72*
%TO.N,/Gate_Driver/INLA*%
X63168198Y-102250000D02*
X64065000Y-102250000D01*
X84902542Y-101750000D02*
X88750000Y-97902542D01*
X62625000Y-102475000D02*
X62400000Y-102700000D01*
X88750000Y-97902542D02*
X88750000Y-97435000D01*
X83000000Y-101750000D02*
X84902542Y-101750000D01*
X63168198Y-102250000D02*
G75*
G03*
X62625001Y-102475001I2J-768200D01*
G01*
%TO.N,/Gate_Driver/INLB*%
X66675000Y-109384311D02*
X66600000Y-109459311D01*
X89316359Y-99095161D02*
X84496665Y-103914855D01*
X84434100Y-104065899D02*
X82765165Y-105734834D01*
X66750000Y-109203244D02*
X66750000Y-107935000D01*
X82125000Y-106000000D02*
X81750000Y-106000000D01*
X89750000Y-98048260D02*
X89750000Y-97435000D01*
X84465383Y-103990377D02*
G75*
G02*
X84434107Y-104065906I-106783J-23D01*
G01*
X84465383Y-103990377D02*
G75*
G02*
X84496674Y-103914864I106817J-23D01*
G01*
X89316359Y-99095161D02*
G75*
G03*
X89749984Y-98048260I-1046859J1046861D01*
G01*
X66675000Y-109384311D02*
G75*
G03*
X66750022Y-109203244I-181100J181111D01*
G01*
X82125000Y-106000000D02*
G75*
G03*
X82765159Y-105734828I0J905300D01*
G01*
%TO.N,/Gate_Driver/CAL*%
X85065686Y-95750000D02*
X83334620Y-97481066D01*
X73298705Y-105250000D02*
X73351350Y-105302645D01*
X87565000Y-95750000D02*
X85065686Y-95750000D01*
X83334620Y-97481066D02*
X83334620Y-97834620D01*
X70935000Y-105250000D02*
X73298705Y-105250000D01*
D69*
%TO.N,Net-(U3-PB12)*%
X70935000Y-107250000D02*
X72479110Y-107250000D01*
X72479110Y-107250000D02*
X72503110Y-107274000D01*
X76875652Y-107174000D02*
X76876950Y-107175298D01*
X76876950Y-107194806D02*
X76854102Y-107217654D01*
X76876950Y-107175298D02*
X76876950Y-107194806D01*
X76797756Y-107274000D02*
X76854102Y-107217654D01*
X72503110Y-107274000D02*
X76797756Y-107274000D01*
%TO.N,Net-(U3-PB13)*%
X72689506Y-106824000D02*
X74128276Y-106824000D01*
X72615506Y-106750000D02*
X72689506Y-106824000D01*
X74452276Y-106500000D02*
X77338061Y-106500000D01*
X74128276Y-106824000D02*
X74452276Y-106500000D01*
X77338061Y-106500000D02*
X77438061Y-106600000D01*
X70935000Y-106750000D02*
X72615506Y-106750000D01*
%TO.N,Net-(U3-PB14)*%
X77839126Y-105925000D02*
X78007425Y-105756701D01*
X74390880Y-105925000D02*
X77839126Y-105925000D01*
X78007425Y-105728067D02*
X78007425Y-105756701D01*
X70935000Y-106250000D02*
X72751902Y-106250000D01*
X72875902Y-106374000D02*
X73941880Y-106374000D01*
X73941880Y-106374000D02*
X74390880Y-105925000D01*
X72751902Y-106250000D02*
X72875902Y-106374000D01*
X77979358Y-105700000D02*
X78007425Y-105728067D01*
D70*
%TO.N,Net-(U3-PF1-OSC_OUT)*%
X59187500Y-103937500D02*
X59234375Y-103984375D01*
X59015625Y-103765625D02*
X59062500Y-103812500D01*
D69*
X59676776Y-104250000D02*
X64065000Y-104250000D01*
D70*
X58875000Y-103625000D02*
X58890625Y-103640625D01*
X59375000Y-104125000D02*
X59359375Y-104109375D01*
X59296875Y-104046875D02*
X59328125Y-104078125D01*
X59234375Y-103984375D02*
X59265625Y-104015625D01*
X58500000Y-102719669D02*
X58500000Y-101520000D01*
X58984375Y-103734375D02*
X59015625Y-103765625D01*
X58921875Y-103671875D02*
X58953125Y-103703125D01*
X59328125Y-104078125D02*
X59359375Y-104109375D01*
X59265625Y-104015625D02*
X59296875Y-104046875D01*
X58953125Y-103703125D02*
X58984375Y-103734375D01*
X59062500Y-103812500D02*
X59187500Y-103937500D01*
X58890625Y-103640625D02*
X58921875Y-103671875D01*
D69*
X59676776Y-104250000D02*
G75*
G02*
X59375007Y-104124993I24J426800D01*
G01*
D70*
X58500000Y-102719669D02*
G75*
G03*
X58874991Y-103625009I1280300J-31D01*
G01*
%TO.N,Net-(R23-Pad1)*%
X116087500Y-132750000D02*
X116087500Y-135000000D01*
D72*
%TO.N,/MCU/D-*%
X70227176Y-135076000D02*
X69960000Y-134808824D01*
X70960000Y-134200000D02*
X70960000Y-134808824D01*
X69960000Y-130200001D02*
X69260000Y-129500001D01*
X69960000Y-134808824D02*
X69960000Y-134200000D01*
X70692824Y-135076000D02*
X70227176Y-135076000D01*
X70960000Y-134808824D02*
X70692824Y-135076000D01*
X69960000Y-134200000D02*
X69960000Y-130200001D01*
X69260000Y-129500001D02*
X69260000Y-128600000D01*
%TO.N,/MCU/D+*%
X71460000Y-134200000D02*
X71460000Y-133591176D01*
X70460000Y-133591176D02*
X70460000Y-134200000D01*
X70727176Y-133324000D02*
X70460000Y-133591176D01*
X71460000Y-133591176D02*
X71192824Y-133324000D01*
X70460000Y-130200001D02*
X71160000Y-129500001D01*
X71192824Y-133324000D02*
X70727176Y-133324000D01*
X70460000Y-134200000D02*
X70460000Y-130200001D01*
X71160000Y-129500001D02*
X71160000Y-128600000D01*
D69*
X71448000Y-134188000D02*
G75*
G02*
X71435988Y-134159029I29000J29000D01*
G01*
X71448000Y-134188000D02*
G75*
G03*
X71460071Y-134183029I5000J5000D01*
G01*
D70*
%TO.N,/MCU/I2C1_SDA*%
X101321875Y-131540625D02*
X101040625Y-131821875D01*
X100900000Y-132161373D02*
X100900000Y-135900000D01*
X99250000Y-130750000D02*
X99750000Y-130750000D01*
X101040625Y-131540625D02*
X100603553Y-131103553D01*
D69*
X66250000Y-97176778D02*
X66250000Y-101065000D01*
D70*
X101321875Y-131540625D02*
X101962500Y-130900000D01*
D69*
X66500002Y-95500000D02*
X66500002Y-96573219D01*
D70*
X101040625Y-131540625D02*
G75*
G02*
X101040675Y-131821925I-140625J-140675D01*
G01*
X101040625Y-131540625D02*
G75*
G03*
X101321875Y-131540625I140625J140628D01*
G01*
D69*
X66375001Y-96874999D02*
G75*
G03*
X66249990Y-97176778I301799J-301801D01*
G01*
D70*
X100603553Y-131103553D02*
G75*
G03*
X99750000Y-130749998I-853553J-853547D01*
G01*
X100900000Y-132161373D02*
G75*
G02*
X101040643Y-131821893I480100J-27D01*
G01*
D69*
X66375001Y-96874999D02*
G75*
G03*
X66500010Y-96573219I-301801J301799D01*
G01*
%TO.N,/MCU/CAN-*%
X86150000Y-133960247D02*
X86150000Y-135900000D01*
X86000000Y-132295818D02*
X86000000Y-130500000D01*
X85793750Y-133206250D02*
X85868750Y-133281250D01*
X86150000Y-133960247D02*
G75*
G03*
X85868764Y-133281236I-960200J47D01*
G01*
X86000000Y-132295818D02*
G75*
G02*
X85793745Y-132793745I-704200J18D01*
G01*
X85793750Y-133206250D02*
G75*
G02*
X85793750Y-132793750I206250J206250D01*
G01*
%TO.N,/MCU/CAN+*%
X86650000Y-131698331D02*
X86650000Y-130500000D01*
X87406250Y-132993750D02*
X87031250Y-132618750D01*
X87400000Y-133021338D02*
X87400000Y-135900000D01*
X87406250Y-132993750D02*
G75*
G02*
X87406250Y-133006250I-6250J-6250D01*
G01*
X86650000Y-131698331D02*
G75*
G03*
X87031259Y-132618741I1301700J31D01*
G01*
X87400000Y-133021338D02*
G75*
G02*
X87406239Y-133006239I21300J38D01*
G01*
%TO.N,Net-(Q11-G)*%
X74750000Y-83646446D02*
X74750000Y-67739478D01*
X75757400Y-65307400D02*
X76764800Y-64300000D01*
X75603553Y-84500000D02*
X76281800Y-84500000D01*
X74750000Y-83646446D02*
G75*
G03*
X74999984Y-84250016I853500J-54D01*
G01*
X74750000Y-67739478D02*
G75*
G02*
X75757406Y-65307406I3439500J-22D01*
G01*
X75603553Y-84500000D02*
G75*
G02*
X75000014Y-84249986I47J853600D01*
G01*
%TO.N,Net-(Q12-G)*%
X72469669Y-70750000D02*
X71414200Y-70750000D01*
X73750000Y-72030330D02*
X73750000Y-85469669D01*
X75030330Y-86750000D02*
X76281800Y-86750000D01*
X72469669Y-70750000D02*
G75*
G02*
X73375009Y-71124991I31J-1280300D01*
G01*
X75030330Y-86750000D02*
G75*
G02*
X74124991Y-86375009I-30J1280300D01*
G01*
X73750000Y-72030330D02*
G75*
G03*
X73375009Y-71124991I-1280300J30D01*
G01*
X73750000Y-85469669D02*
G75*
G03*
X74124991Y-86375009I1280300J-31D01*
G01*
%TO.N,/Gate_Driver/SPA*%
X108231800Y-81367100D02*
X108231800Y-80716000D01*
X107771402Y-82478597D02*
X99937194Y-90312805D01*
X96467500Y-91750000D02*
X94435000Y-91750000D01*
X107771402Y-82478597D02*
G75*
G03*
X108231798Y-81367100I-1111502J1111497D01*
G01*
X99937194Y-90312805D02*
G75*
G02*
X96467500Y-91749996I-3469694J3469705D01*
G01*
%TO.N,GND2*%
X66772313Y-134392686D02*
X66390000Y-134775000D01*
D70*
X65425000Y-129250000D02*
X65425000Y-131760000D01*
D69*
X74647686Y-134392686D02*
X75030000Y-134775000D01*
D70*
X55220000Y-101312500D02*
X55766250Y-101312500D01*
X73837500Y-129825000D02*
X73600000Y-129825000D01*
X65425000Y-132067500D02*
X67510000Y-134152500D01*
X83300000Y-135900000D02*
X84900000Y-135900000D01*
D78*
X58500000Y-119585660D02*
X58500000Y-123875000D01*
D70*
X75300000Y-128600000D02*
X74242937Y-129657062D01*
D69*
X87500000Y-126250000D02*
X86968198Y-126781801D01*
D70*
X80568629Y-134768629D02*
X78900000Y-133100000D01*
D78*
X59250000Y-117775000D02*
X60000000Y-117025000D01*
D69*
X63600000Y-116900000D02*
X63428750Y-117071250D01*
D70*
X50300000Y-90805025D02*
X50300000Y-90000000D01*
D69*
X63015315Y-117242500D02*
X61870000Y-117242500D01*
X78900000Y-133100000D02*
X78750000Y-132950000D01*
D70*
X72206250Y-109206250D02*
X71800000Y-108800000D01*
D69*
X74182500Y-134200000D02*
X74046250Y-134200000D01*
D70*
X56698757Y-101698757D02*
X57011091Y-102011091D01*
D69*
X74234350Y-132800000D02*
X78387867Y-132800000D01*
D70*
X99450000Y-133700000D02*
X99250000Y-133500000D01*
D69*
X73910000Y-134063750D02*
X73910000Y-133124350D01*
D70*
X58273591Y-104373591D02*
X57788908Y-103888908D01*
D69*
X65425000Y-131760000D02*
X65425000Y-132067500D01*
X67237500Y-134200000D02*
X67510000Y-134200000D01*
D70*
X51000000Y-92000000D02*
X50650000Y-91650000D01*
X99650000Y-134182842D02*
X99650000Y-135900000D01*
D69*
X86650000Y-127550000D02*
X86650000Y-128000000D01*
D70*
X56179342Y-111520657D02*
X59200000Y-108500000D01*
X52430000Y-112500000D02*
X53815000Y-112500000D01*
X58566117Y-104450000D02*
X58458058Y-104450000D01*
X73187024Y-109612500D02*
X74000000Y-109612500D01*
X58458058Y-104450000D02*
G75*
G02*
X58273607Y-104373575I42J260900D01*
G01*
D69*
X63015315Y-117242500D02*
G75*
G03*
X63428745Y-117071245I-15J584700D01*
G01*
X74005000Y-132895000D02*
G75*
G03*
X73910021Y-133124350I229300J-229300D01*
G01*
D70*
X56698757Y-101698757D02*
G75*
G03*
X55766250Y-101312546I-932457J-932543D01*
G01*
X57011091Y-102011091D02*
G75*
G02*
X57400005Y-102950000I-938891J-938909D01*
G01*
X56179342Y-111520657D02*
G75*
G02*
X53815000Y-112499995I-2364342J2364357D01*
G01*
X80568629Y-134768629D02*
G75*
G03*
X83300000Y-135900012I2731371J2731329D01*
G01*
X99450000Y-133700000D02*
G75*
G02*
X99649982Y-134182842I-482800J-482800D01*
G01*
X50300000Y-90805025D02*
G75*
G03*
X50650007Y-91649993I1195000J25D01*
G01*
X57400000Y-102950000D02*
G75*
G03*
X57788912Y-103888904I1327800J0D01*
G01*
D69*
X73910000Y-134063750D02*
G75*
G03*
X74046250Y-134200000I136200J-50D01*
G01*
X67237500Y-134200000D02*
G75*
G03*
X66772308Y-134392681I0J-657900D01*
G01*
X74182500Y-134200000D02*
G75*
G02*
X74647692Y-134392680I0J-657900D01*
G01*
D70*
X74242937Y-129657062D02*
G75*
G02*
X73837500Y-129824992I-405437J405462D01*
G01*
D69*
X78387867Y-132800000D02*
G75*
G02*
X78750009Y-132949991I33J-512100D01*
G01*
X74234350Y-132800000D02*
G75*
G03*
X74004985Y-132894985I-50J-324300D01*
G01*
D70*
X72206250Y-109206250D02*
G75*
G03*
X73187024Y-109612490I980750J980750D01*
G01*
D78*
X58500000Y-119585660D02*
G75*
G02*
X59250032Y-117775032I2560600J-40D01*
G01*
D69*
X86968198Y-126781801D02*
G75*
G03*
X86650000Y-127550000I768202J-768199D01*
G01*
D72*
%TO.N,/Gate_Driver/nSCS*%
X83934619Y-94515380D02*
X83396141Y-94515380D01*
D69*
X69250000Y-108906295D02*
X69423811Y-109080106D01*
D72*
X83396141Y-94515380D02*
X82951171Y-94960350D01*
D69*
X69250000Y-107935000D02*
X69250000Y-108906295D01*
D72*
X84169239Y-94750000D02*
X83934619Y-94515380D01*
X82951171Y-94960350D02*
X82840476Y-94960350D01*
X87565000Y-94750000D02*
X84169239Y-94750000D01*
D69*
%TO.N,Net-(J2-CC2)*%
X72460000Y-134200000D02*
X72460000Y-133210000D01*
X67500000Y-132500000D02*
X67500000Y-132010000D01*
X67500000Y-132010000D02*
X67250000Y-131760000D01*
X72460000Y-133210000D02*
X72000000Y-132750000D01*
%TO.N,Net-(J2-CC1)*%
X69460000Y-134200000D02*
X69460000Y-132210000D01*
X67250000Y-130500000D02*
X67250000Y-129250000D01*
X69460000Y-132210000D02*
X69000000Y-131750000D01*
%TD*%
%TA.AperFunction,Conductor*%
%TO.N,/Gate_Driver/SPC*%
G36*
X70561971Y-70002381D02*
G01*
X70602346Y-70010412D01*
X70647043Y-70028927D01*
X70670913Y-70044877D01*
X70676805Y-70050769D01*
X70681537Y-70052829D01*
X70705122Y-70079086D01*
X70721072Y-70102956D01*
X70739588Y-70147655D01*
X70747617Y-70188020D01*
X70750000Y-70212210D01*
X70750000Y-71500000D01*
X70806968Y-71551789D01*
X70806971Y-71551792D01*
X70815464Y-71559513D01*
X70815465Y-71559514D01*
X73283912Y-73803556D01*
X73320275Y-73863215D01*
X73324500Y-73895307D01*
X73324500Y-82626000D01*
X73304815Y-82693039D01*
X73252011Y-82738794D01*
X73200500Y-82750000D01*
X67212211Y-82750000D01*
X67188020Y-82747617D01*
X67172744Y-82744578D01*
X67147656Y-82739588D01*
X67102956Y-82721072D01*
X67079086Y-82705122D01*
X67044877Y-82670913D01*
X67028927Y-82647043D01*
X67010412Y-82602346D01*
X67002381Y-82561971D01*
X67000000Y-82537789D01*
X67000000Y-70212210D01*
X67002381Y-70188029D01*
X67010412Y-70147651D01*
X67028927Y-70102956D01*
X67044877Y-70079086D01*
X67079086Y-70044877D01*
X67102956Y-70028927D01*
X67147653Y-70010412D01*
X67188027Y-70002381D01*
X67212211Y-70000000D01*
X70537789Y-70000000D01*
X70561971Y-70002381D01*
G37*
%TD.AperFunction*%
%TD*%
%TA.AperFunction,Conductor*%
%TO.N,GND2*%
G36*
X60908059Y-122801061D02*
G01*
X61013223Y-122814906D01*
X61044491Y-122823284D01*
X61134918Y-122860740D01*
X61162952Y-122876925D01*
X61240602Y-122936509D01*
X61263491Y-122959398D01*
X61323074Y-123037048D01*
X61339259Y-123065081D01*
X61376715Y-123155508D01*
X61385093Y-123186775D01*
X61398939Y-123291939D01*
X61400000Y-123308125D01*
X61400000Y-124291874D01*
X61398939Y-124308059D01*
X61398939Y-124308060D01*
X61385093Y-124413224D01*
X61376715Y-124444491D01*
X61339259Y-124534918D01*
X61323074Y-124562951D01*
X61263491Y-124640601D01*
X61240601Y-124663491D01*
X61162951Y-124723074D01*
X61134918Y-124739259D01*
X61044491Y-124776715D01*
X61013224Y-124785093D01*
X60919398Y-124797446D01*
X60908058Y-124798939D01*
X60891874Y-124800000D01*
X58208126Y-124800000D01*
X58191941Y-124798939D01*
X58178917Y-124797224D01*
X58086775Y-124785093D01*
X58055508Y-124776715D01*
X57965081Y-124739259D01*
X57937048Y-124723074D01*
X57859398Y-124663491D01*
X57836508Y-124640601D01*
X57776925Y-124562951D01*
X57760740Y-124534918D01*
X57723284Y-124444491D01*
X57714906Y-124413223D01*
X57701061Y-124308059D01*
X57700000Y-124291874D01*
X57700000Y-123308125D01*
X57701061Y-123291940D01*
X57714906Y-123186776D01*
X57714906Y-123186775D01*
X57723284Y-123155508D01*
X57760740Y-123065081D01*
X57776923Y-123037050D01*
X57836513Y-122959392D01*
X57859392Y-122936513D01*
X57937050Y-122876923D01*
X57965079Y-122860740D01*
X58055509Y-122823283D01*
X58086775Y-122814906D01*
X58191941Y-122801061D01*
X58208126Y-122800000D01*
X60891874Y-122800000D01*
X60908059Y-122801061D01*
G37*
%TD.AperFunction*%
%TD*%
%TA.AperFunction,Conductor*%
%TO.N,GND2*%
G36*
X99508059Y-116751061D02*
G01*
X99613223Y-116764906D01*
X99644491Y-116773284D01*
X99734918Y-116810740D01*
X99762952Y-116826925D01*
X99840602Y-116886509D01*
X99863491Y-116909398D01*
X99923074Y-116987048D01*
X99939259Y-117015081D01*
X99976715Y-117105508D01*
X99985093Y-117136775D01*
X99998939Y-117241939D01*
X100000000Y-117258125D01*
X100000000Y-123991874D01*
X99998939Y-124008059D01*
X99998939Y-124008060D01*
X99985093Y-124113224D01*
X99976715Y-124144491D01*
X99939259Y-124234918D01*
X99923074Y-124262951D01*
X99863491Y-124340601D01*
X99840601Y-124363491D01*
X99762951Y-124423074D01*
X99734918Y-124439259D01*
X99644491Y-124476715D01*
X99613224Y-124485093D01*
X99519398Y-124497446D01*
X99508058Y-124498939D01*
X99491874Y-124500000D01*
X99008126Y-124500000D01*
X98991941Y-124498939D01*
X98978917Y-124497224D01*
X98886775Y-124485093D01*
X98855508Y-124476715D01*
X98765081Y-124439259D01*
X98737048Y-124423074D01*
X98659398Y-124363491D01*
X98636508Y-124340601D01*
X98576925Y-124262951D01*
X98560740Y-124234918D01*
X98523284Y-124144491D01*
X98514906Y-124113223D01*
X98501061Y-124008059D01*
X98500000Y-123991874D01*
X98500000Y-117258125D01*
X98501061Y-117241940D01*
X98514906Y-117136776D01*
X98514906Y-117136775D01*
X98523284Y-117105508D01*
X98560740Y-117015081D01*
X98576923Y-116987050D01*
X98636513Y-116909392D01*
X98659392Y-116886513D01*
X98737050Y-116826923D01*
X98765079Y-116810740D01*
X98855509Y-116773283D01*
X98886775Y-116764906D01*
X98991941Y-116751061D01*
X99008126Y-116750000D01*
X99491874Y-116750000D01*
X99508059Y-116751061D01*
G37*
%TD.AperFunction*%
%TD*%
%TA.AperFunction,Conductor*%
%TO.N,GND2*%
G36*
X63008059Y-96501061D02*
G01*
X63113223Y-96514906D01*
X63144491Y-96523284D01*
X63234918Y-96560740D01*
X63262952Y-96576925D01*
X63340602Y-96636509D01*
X63363491Y-96659398D01*
X63423074Y-96737048D01*
X63439259Y-96765081D01*
X63476715Y-96855508D01*
X63485093Y-96886775D01*
X63498939Y-96991939D01*
X63500000Y-97008125D01*
X63500000Y-99991874D01*
X63498939Y-100008060D01*
X63485093Y-100113224D01*
X63476715Y-100144491D01*
X63439259Y-100234918D01*
X63423074Y-100262951D01*
X63363491Y-100340601D01*
X63340601Y-100363491D01*
X63262951Y-100423074D01*
X63234918Y-100439259D01*
X63144491Y-100476715D01*
X63113224Y-100485093D01*
X63019398Y-100497446D01*
X63008058Y-100498939D01*
X62991874Y-100500000D01*
X62554768Y-100500000D01*
X62509278Y-100491354D01*
X62366082Y-100434884D01*
X62366074Y-100434882D01*
X62279619Y-100424500D01*
X62279618Y-100424500D01*
X61720382Y-100424500D01*
X61633924Y-100434882D01*
X61633922Y-100434883D01*
X61602965Y-100447091D01*
X61571674Y-100449915D01*
X61540604Y-100454583D01*
X61535662Y-100453165D01*
X61533378Y-100453372D01*
X61506678Y-100444853D01*
X61473786Y-100430082D01*
X61444376Y-100411531D01*
X61357488Y-100337831D01*
X61345024Y-100325652D01*
X61277778Y-100250001D01*
X61277777Y-100250000D01*
X59631285Y-98397696D01*
X59622012Y-98385896D01*
X59566118Y-98305159D01*
X59552168Y-98278651D01*
X59519957Y-98193930D01*
X59512772Y-98164848D01*
X59500908Y-98067361D01*
X59500000Y-98052381D01*
X59500000Y-97008125D01*
X59501061Y-96991940D01*
X59514906Y-96886776D01*
X59514906Y-96886775D01*
X59523284Y-96855508D01*
X59560740Y-96765081D01*
X59576923Y-96737050D01*
X59636513Y-96659392D01*
X59659392Y-96636513D01*
X59737050Y-96576923D01*
X59765079Y-96560740D01*
X59855509Y-96523283D01*
X59886775Y-96514906D01*
X59991941Y-96501061D01*
X60008126Y-96500000D01*
X62991874Y-96500000D01*
X63008059Y-96501061D01*
G37*
%TD.AperFunction*%
%TD*%
%TA.AperFunction,Conductor*%
%TO.N,/Gate_Driver/SHC*%
G36*
X81311971Y-52252381D02*
G01*
X81352346Y-52260412D01*
X81397043Y-52278927D01*
X81420913Y-52294877D01*
X81426805Y-52300769D01*
X81431537Y-52302829D01*
X81455122Y-52329086D01*
X81471072Y-52352956D01*
X81489588Y-52397655D01*
X81497617Y-52438020D01*
X81500000Y-52462210D01*
X81500000Y-65037789D01*
X81497617Y-65061982D01*
X81489588Y-65102344D01*
X81486397Y-65110046D01*
X81486305Y-65115206D01*
X81471072Y-65147043D01*
X81455122Y-65170913D01*
X81420913Y-65205122D01*
X81397043Y-65221072D01*
X81352344Y-65239588D01*
X81335841Y-65242870D01*
X81311978Y-65247617D01*
X81287789Y-65250000D01*
X77712211Y-65250000D01*
X77688020Y-65247617D01*
X77672744Y-65244578D01*
X77647656Y-65239588D01*
X77602956Y-65221072D01*
X77579086Y-65205122D01*
X77544877Y-65170913D01*
X77528927Y-65147043D01*
X77510412Y-65102346D01*
X77502381Y-65061971D01*
X77500000Y-65037789D01*
X77500000Y-63500000D01*
X77340679Y-63500000D01*
X77273640Y-63480315D01*
X77270604Y-63478301D01*
X77262567Y-63472796D01*
X77262565Y-63472794D01*
X77211178Y-63450104D01*
X77159792Y-63427415D01*
X77134665Y-63424500D01*
X76394943Y-63424500D01*
X76394917Y-63424502D01*
X76369812Y-63427413D01*
X76369808Y-63427415D01*
X76267036Y-63472793D01*
X76258996Y-63478301D01*
X76192564Y-63499946D01*
X76188921Y-63500000D01*
X73750000Y-63500000D01*
X73750000Y-69537789D01*
X73747617Y-69561979D01*
X73747617Y-69561982D01*
X73739588Y-69602344D01*
X73721072Y-69647043D01*
X73705122Y-69670913D01*
X73670913Y-69705122D01*
X73647043Y-69721072D01*
X73602344Y-69739588D01*
X73589279Y-69742187D01*
X73561978Y-69747617D01*
X73537789Y-69750000D01*
X70796630Y-69750000D01*
X70749177Y-69740561D01*
X70735195Y-69734769D01*
X70719261Y-69728169D01*
X70711560Y-69725833D01*
X70661938Y-69710780D01*
X70661939Y-69710780D01*
X70621545Y-69702746D01*
X70621547Y-69702746D01*
X70591913Y-69698352D01*
X70591887Y-69698348D01*
X70567731Y-69695970D01*
X70556082Y-69695398D01*
X70537789Y-69694500D01*
X67212211Y-69694500D01*
X67194881Y-69695351D01*
X67182270Y-69695970D01*
X67158096Y-69698350D01*
X67158078Y-69698352D01*
X67128455Y-69702746D01*
X67128435Y-69702749D01*
X67128426Y-69702751D01*
X67128406Y-69702755D01*
X67088054Y-69710781D01*
X67088045Y-69710783D01*
X67054132Y-69721072D01*
X67030738Y-69728169D01*
X67017388Y-69733698D01*
X67000822Y-69740561D01*
X66992644Y-69742187D01*
X66988304Y-69744977D01*
X66953369Y-69750000D01*
X66712211Y-69750000D01*
X66688020Y-69747617D01*
X66672744Y-69744578D01*
X66647656Y-69739588D01*
X66602956Y-69721072D01*
X66579086Y-69705122D01*
X66544877Y-69670913D01*
X66528927Y-69647043D01*
X66510412Y-69602346D01*
X66502381Y-69561971D01*
X66500000Y-69537789D01*
X66500000Y-52462210D01*
X66502381Y-52438029D01*
X66510412Y-52397651D01*
X66528927Y-52352956D01*
X66544877Y-52329086D01*
X66579086Y-52294877D01*
X66602956Y-52278927D01*
X66647653Y-52260412D01*
X66688027Y-52252381D01*
X66712211Y-52250000D01*
X81287789Y-52250000D01*
X81311971Y-52252381D01*
G37*
%TD.AperFunction*%
%TD*%
%TA.AperFunction,Conductor*%
%TO.N,/Gate_Driver/SPA*%
G36*
X107311971Y-70002381D02*
G01*
X107352346Y-70010412D01*
X107397043Y-70028927D01*
X107420913Y-70044877D01*
X107426805Y-70050769D01*
X107431537Y-70052829D01*
X107455122Y-70079086D01*
X107471072Y-70102956D01*
X107489588Y-70147655D01*
X107497617Y-70188020D01*
X107500000Y-70212210D01*
X107500000Y-71500000D01*
X107545746Y-71550828D01*
X107545750Y-71550834D01*
X109691039Y-73934487D01*
X109704609Y-73952667D01*
X109724722Y-73985501D01*
X109740908Y-74027680D01*
X109747925Y-74065550D01*
X109750000Y-74088137D01*
X109750000Y-81582548D01*
X109747617Y-81606740D01*
X109686850Y-81912228D01*
X109684577Y-81921695D01*
X109580315Y-82291376D01*
X109577307Y-82300636D01*
X109444353Y-82661019D01*
X109440632Y-82670003D01*
X109436991Y-82677903D01*
X109391053Y-82730547D01*
X109324376Y-82750000D01*
X103962211Y-82750000D01*
X103938020Y-82747617D01*
X103922744Y-82744578D01*
X103897656Y-82739588D01*
X103852956Y-82721072D01*
X103829086Y-82705122D01*
X103794877Y-82670913D01*
X103778927Y-82647043D01*
X103760412Y-82602346D01*
X103752381Y-82561971D01*
X103750000Y-82537789D01*
X103750000Y-70212210D01*
X103752381Y-70188029D01*
X103760412Y-70147651D01*
X103778927Y-70102956D01*
X103794877Y-70079086D01*
X103829086Y-70044877D01*
X103852956Y-70028927D01*
X103897653Y-70010412D01*
X103938027Y-70002381D01*
X103962211Y-70000000D01*
X107287789Y-70000000D01*
X107311971Y-70002381D01*
G37*
%TD.AperFunction*%
%TD*%
%TA.AperFunction,Conductor*%
%TO.N,VM*%
G36*
X113793003Y-65519685D02*
G01*
X113830278Y-65556959D01*
X113843931Y-65578203D01*
X113879173Y-65633041D01*
X113879179Y-65633048D01*
X113924923Y-65685840D01*
X113924926Y-65685843D01*
X113924930Y-65685847D01*
X114033664Y-65780067D01*
X114033667Y-65780068D01*
X114033668Y-65780069D01*
X114094993Y-65808076D01*
X114164541Y-65839838D01*
X114231580Y-65859523D01*
X114231584Y-65859524D01*
X114374000Y-65880000D01*
X117705929Y-65880000D01*
X117757791Y-65893369D01*
X117758363Y-65892030D01*
X117800910Y-65910185D01*
X117896481Y-65950968D01*
X117896489Y-65950970D01*
X117896497Y-65950973D01*
X117963984Y-65968964D01*
X117963986Y-65968964D01*
X117963993Y-65968966D01*
X117963994Y-65968966D01*
X117964048Y-65968972D01*
X117969971Y-65969748D01*
X117971247Y-65969824D01*
X117984273Y-65971364D01*
X118106878Y-65985866D01*
X118248736Y-65961826D01*
X118315261Y-65940467D01*
X118352215Y-65922457D01*
X118444590Y-65877440D01*
X118444590Y-65877439D01*
X118444600Y-65877435D01*
X118452094Y-65872349D01*
X118529089Y-65808068D01*
X118563377Y-65773114D01*
X118626162Y-65694902D01*
X118642001Y-65670570D01*
X118688114Y-65581487D01*
X118689419Y-65578202D01*
X118732472Y-65523173D01*
X118798441Y-65500156D01*
X118804652Y-65500000D01*
X128287789Y-65500000D01*
X128311971Y-65502381D01*
X128352346Y-65510412D01*
X128397043Y-65528927D01*
X128420913Y-65544877D01*
X128455122Y-65579086D01*
X128471072Y-65602956D01*
X128489588Y-65647655D01*
X128497617Y-65688022D01*
X128500000Y-65712210D01*
X128500000Y-69540826D01*
X128499572Y-69548798D01*
X128499678Y-69548804D01*
X128499500Y-69552128D01*
X128499500Y-77247863D01*
X128499679Y-77251180D01*
X128499572Y-77251185D01*
X128500000Y-77259156D01*
X128500000Y-79500000D01*
X137787789Y-79500000D01*
X137811971Y-79502381D01*
X137852346Y-79510412D01*
X137897043Y-79528927D01*
X137920913Y-79544877D01*
X137955122Y-79579086D01*
X137971072Y-79602956D01*
X137989588Y-79647655D01*
X137997117Y-79685509D01*
X137999500Y-79709696D01*
X137999500Y-121790302D01*
X137997117Y-121814494D01*
X137989588Y-121852343D01*
X137971072Y-121897043D01*
X137955122Y-121920913D01*
X137920913Y-121955122D01*
X137897043Y-121971072D01*
X137852344Y-121989588D01*
X137835841Y-121992870D01*
X137811978Y-121997617D01*
X137787789Y-122000000D01*
X122212211Y-122000000D01*
X122188020Y-121997617D01*
X122172744Y-121994578D01*
X122147656Y-121989588D01*
X122102956Y-121971072D01*
X122079086Y-121955122D01*
X122044877Y-121920913D01*
X122028927Y-121897043D01*
X122010412Y-121852346D01*
X122002381Y-121811971D01*
X122000000Y-121787789D01*
X122000000Y-79500000D01*
X121800000Y-79500000D01*
X118379500Y-79500000D01*
X118312461Y-79480315D01*
X118266706Y-79427511D01*
X118255500Y-79376000D01*
X118255500Y-74712223D01*
X118255500Y-74712210D01*
X118253064Y-74662648D01*
X118250681Y-74638460D01*
X118243405Y-74589410D01*
X118235376Y-74549043D01*
X118206605Y-74454199D01*
X118188089Y-74409500D01*
X118141375Y-74322108D01*
X118125425Y-74298238D01*
X118062564Y-74221644D01*
X118028355Y-74187435D01*
X117951761Y-74124574D01*
X117951757Y-74124571D01*
X117951753Y-74124568D01*
X117927885Y-74108620D01*
X117840504Y-74061912D01*
X117840497Y-74061909D01*
X117795800Y-74043394D01*
X117700954Y-74014622D01*
X117665866Y-74007644D01*
X117660588Y-74006594D01*
X117660584Y-74006593D01*
X117660572Y-74006591D01*
X117611520Y-73999315D01*
X117611505Y-73999313D01*
X117587329Y-73996933D01*
X117569073Y-73996036D01*
X117537789Y-73994500D01*
X117537777Y-73994500D01*
X115124000Y-73994500D01*
X115056961Y-73974815D01*
X115011206Y-73922011D01*
X115000000Y-73870500D01*
X115000000Y-73500000D01*
X114800000Y-73500000D01*
X114374561Y-73500000D01*
X114362412Y-73499403D01*
X114337331Y-73496933D01*
X114316093Y-73495890D01*
X114287789Y-73494500D01*
X112184560Y-73494500D01*
X112160373Y-73492117D01*
X112147651Y-73489587D01*
X112102956Y-73471072D01*
X112079086Y-73455122D01*
X112044877Y-73420913D01*
X112028927Y-73397043D01*
X112010412Y-73352346D01*
X112002381Y-73311971D01*
X112000000Y-73287789D01*
X112000000Y-65712214D01*
X112002382Y-65688028D01*
X112004308Y-65678343D01*
X112032694Y-65620775D01*
X112097889Y-65546434D01*
X112156886Y-65509013D01*
X112166896Y-65506584D01*
X112188031Y-65502380D01*
X112212213Y-65500000D01*
X113725964Y-65500000D01*
X113793003Y-65519685D01*
G37*
%TD.AperFunction*%
%TD*%
%TA.AperFunction,Conductor*%
%TO.N,/Gate_Driver/SPB*%
G36*
X97977841Y-70002381D02*
G01*
X98018216Y-70010412D01*
X98025913Y-70013600D01*
X98031069Y-70013692D01*
X98062908Y-70028923D01*
X98072987Y-70035657D01*
X98117794Y-70089268D01*
X98128100Y-70138762D01*
X98128100Y-71369856D01*
X98128102Y-71369882D01*
X98131013Y-71394987D01*
X98131014Y-71394988D01*
X98131014Y-71394990D01*
X98131015Y-71394991D01*
X98155304Y-71450001D01*
X98165870Y-71500086D01*
X98165870Y-82537789D01*
X98163487Y-82561982D01*
X98155458Y-82602344D01*
X98136942Y-82647043D01*
X98120992Y-82670913D01*
X98086783Y-82705122D01*
X98062913Y-82721072D01*
X98018214Y-82739588D01*
X98001711Y-82742870D01*
X97977848Y-82747617D01*
X97953659Y-82750000D01*
X92774500Y-82750000D01*
X92707461Y-82730315D01*
X92661706Y-82677511D01*
X92650500Y-82626000D01*
X92650500Y-73509104D01*
X92670185Y-73442065D01*
X92682326Y-73426159D01*
X94364529Y-71557046D01*
X94364529Y-71557045D01*
X94379897Y-71539970D01*
X94379899Y-71539966D01*
X94415870Y-71500000D01*
X94415870Y-70212210D01*
X94418251Y-70188029D01*
X94426282Y-70147651D01*
X94444797Y-70102956D01*
X94460747Y-70079086D01*
X94494956Y-70044877D01*
X94518826Y-70028927D01*
X94563523Y-70010412D01*
X94603897Y-70002381D01*
X94628081Y-70000000D01*
X97953659Y-70000000D01*
X97977841Y-70002381D01*
G37*
%TD.AperFunction*%
%TD*%
%TA.AperFunction,Conductor*%
%TO.N,+3.3VA*%
G36*
X69311971Y-112252381D02*
G01*
X69352346Y-112260412D01*
X69397043Y-112278927D01*
X69420913Y-112294877D01*
X69426805Y-112300769D01*
X69431537Y-112302829D01*
X69455122Y-112329086D01*
X69471072Y-112352956D01*
X69489588Y-112397655D01*
X69497617Y-112438020D01*
X69500000Y-112462210D01*
X69500000Y-119287789D01*
X69497617Y-119311982D01*
X69489588Y-119352344D01*
X69486397Y-119360046D01*
X69486305Y-119365206D01*
X69471072Y-119397043D01*
X69455122Y-119420913D01*
X69420913Y-119455122D01*
X69397043Y-119471072D01*
X69352344Y-119489588D01*
X69335841Y-119492870D01*
X69311978Y-119497617D01*
X69287789Y-119500000D01*
X68212211Y-119500000D01*
X68188020Y-119497617D01*
X68172744Y-119494578D01*
X68147656Y-119489588D01*
X68102956Y-119471072D01*
X68079086Y-119455122D01*
X68044877Y-119420913D01*
X68028927Y-119397043D01*
X68010412Y-119352346D01*
X68002381Y-119311971D01*
X68000000Y-119287789D01*
X68000000Y-112462210D01*
X68002381Y-112438029D01*
X68010412Y-112397651D01*
X68028927Y-112352956D01*
X68044877Y-112329086D01*
X68079086Y-112294877D01*
X68102956Y-112278927D01*
X68147653Y-112260412D01*
X68188027Y-112252381D01*
X68212211Y-112250000D01*
X69287789Y-112250000D01*
X69311971Y-112252381D01*
G37*
%TD.AperFunction*%
%TD*%
%TA.AperFunction,Conductor*%
%TO.N,GND*%
G36*
X93873951Y-90052694D02*
G01*
X93903323Y-90058918D01*
X93916659Y-90061744D01*
X93963657Y-90082601D01*
X93989124Y-90101033D01*
X93999024Y-90108199D01*
X94018268Y-90125454D01*
X94396667Y-90543684D01*
X94396667Y-90543685D01*
X94396668Y-90543685D01*
X94840640Y-91034392D01*
X94854297Y-91052601D01*
X94869253Y-91076909D01*
X94874545Y-91085509D01*
X94890845Y-91127818D01*
X94897910Y-91165807D01*
X94900000Y-91188479D01*
X94900000Y-91195500D01*
X94880315Y-91262539D01*
X94827511Y-91308294D01*
X94776000Y-91319500D01*
X93998482Y-91319500D01*
X93998476Y-91319500D01*
X93998471Y-91319501D01*
X93949988Y-91325884D01*
X93949977Y-91325887D01*
X93843554Y-91375512D01*
X93805386Y-91413681D01*
X93755469Y-91440937D01*
X93750983Y-91450000D01*
X93700000Y-91450000D01*
X93700000Y-91553008D01*
X93700000Y-93757377D01*
X93698738Y-93775023D01*
X93694500Y-93804498D01*
X93694500Y-94195507D01*
X93699289Y-94240041D01*
X93700000Y-94253297D01*
X93700000Y-96437789D01*
X93697617Y-96461982D01*
X93689588Y-96502344D01*
X93671072Y-96547043D01*
X93655122Y-96570913D01*
X93620913Y-96605122D01*
X93597043Y-96621072D01*
X93552344Y-96639588D01*
X93539656Y-96642112D01*
X93511978Y-96647617D01*
X93487789Y-96650000D01*
X91500000Y-96650000D01*
X91500000Y-96667705D01*
X91492901Y-96691877D01*
X91489830Y-96716885D01*
X91482306Y-96727962D01*
X91480315Y-96734744D01*
X91471364Y-96746963D01*
X91461081Y-96759334D01*
X91458553Y-96760514D01*
X91375514Y-96843553D01*
X91355608Y-96886240D01*
X91345364Y-96898567D01*
X91329132Y-96909476D01*
X91316210Y-96924153D01*
X91300731Y-96928564D01*
X91287375Y-96937542D01*
X91267823Y-96937944D01*
X91249016Y-96943305D01*
X91233611Y-96938648D01*
X91217520Y-96938980D01*
X91200853Y-96928746D01*
X91182135Y-96923089D01*
X91171331Y-96910621D01*
X91157977Y-96902422D01*
X91150150Y-96886177D01*
X91137618Y-96871714D01*
X91124486Y-96843553D01*
X91036319Y-96755386D01*
X91002834Y-96694063D01*
X91000000Y-96667705D01*
X91000000Y-96650000D01*
X90800000Y-96650000D01*
X88541326Y-96650000D01*
X88509229Y-96645774D01*
X88495564Y-96642112D01*
X88435904Y-96605745D01*
X88407885Y-96554427D01*
X88404224Y-96540762D01*
X88400000Y-96508673D01*
X88400000Y-96400000D01*
X88275000Y-96400000D01*
X88230513Y-96400000D01*
X88216998Y-96396685D01*
X88206441Y-96397641D01*
X88186888Y-96389302D01*
X88173145Y-96385932D01*
X88160011Y-96379078D01*
X88156447Y-96375514D01*
X88125765Y-96361207D01*
X88123322Y-96359932D01*
X88100072Y-96337541D01*
X88075847Y-96316211D01*
X88075061Y-96313453D01*
X88072996Y-96311465D01*
X88065540Y-96280052D01*
X88056694Y-96249017D01*
X88057523Y-96246273D01*
X88056861Y-96243484D01*
X88067569Y-96213034D01*
X88076909Y-96182136D01*
X88079106Y-96180232D01*
X88080042Y-96177571D01*
X88101034Y-96161230D01*
X88128284Y-96137618D01*
X88156447Y-96124486D01*
X88194614Y-96086319D01*
X88255937Y-96052834D01*
X88282295Y-96050000D01*
X88400000Y-96050000D01*
X88400000Y-92400000D01*
X88230513Y-92400000D01*
X88216998Y-92396685D01*
X88206441Y-92397641D01*
X88186888Y-92389302D01*
X88173145Y-92385932D01*
X88160011Y-92379078D01*
X88156447Y-92375514D01*
X88125765Y-92361207D01*
X88123322Y-92359932D01*
X88100072Y-92337541D01*
X88075847Y-92316211D01*
X88075061Y-92313453D01*
X88072996Y-92311465D01*
X88065540Y-92280052D01*
X88056694Y-92249017D01*
X88057523Y-92246273D01*
X88056861Y-92243484D01*
X88067569Y-92213034D01*
X88076909Y-92182136D01*
X88079106Y-92180232D01*
X88080042Y-92177571D01*
X88101034Y-92161230D01*
X88128284Y-92137618D01*
X88156447Y-92124486D01*
X88194614Y-92086319D01*
X88255937Y-92052834D01*
X88282295Y-92050000D01*
X88400000Y-92050000D01*
X88400000Y-91612210D01*
X88402381Y-91588029D01*
X88410412Y-91547651D01*
X88428927Y-91502956D01*
X88444877Y-91479086D01*
X88479086Y-91444877D01*
X88502956Y-91428927D01*
X88547653Y-91410412D01*
X88588027Y-91402381D01*
X88612211Y-91400000D01*
X89050000Y-91400000D01*
X89050000Y-91282295D01*
X89069685Y-91215256D01*
X89086319Y-91194614D01*
X89092454Y-91188479D01*
X89124486Y-91156447D01*
X89137618Y-91128284D01*
X89140320Y-91125215D01*
X89141191Y-91121222D01*
X89163208Y-91099221D01*
X89183789Y-91075847D01*
X89187721Y-91074725D01*
X89190615Y-91071835D01*
X89221047Y-91065226D01*
X89250983Y-91056694D01*
X89254896Y-91057876D01*
X89258893Y-91057009D01*
X89288062Y-91067901D01*
X89317864Y-91076909D01*
X89320580Y-91080044D01*
X89324348Y-91081451D01*
X89349295Y-91106417D01*
X89356968Y-91116676D01*
X89375514Y-91156447D01*
X89419970Y-91200903D01*
X89425295Y-91208022D01*
X89449687Y-91273496D01*
X89450000Y-91282295D01*
X89450000Y-91400000D01*
X93350000Y-91400000D01*
X93499016Y-91400000D01*
X93550000Y-91400000D01*
X93550000Y-91282295D01*
X93569685Y-91215256D01*
X93586319Y-91194614D01*
X93592454Y-91188479D01*
X93624486Y-91156447D01*
X93674115Y-91050016D01*
X93680500Y-91001518D01*
X93680500Y-90174000D01*
X93683050Y-90165314D01*
X93681762Y-90156353D01*
X93692740Y-90132312D01*
X93700185Y-90106961D01*
X93707025Y-90101033D01*
X93710787Y-90092797D01*
X93733021Y-90078507D01*
X93752989Y-90061206D01*
X93763503Y-90058918D01*
X93769565Y-90055023D01*
X93804500Y-90050000D01*
X93848246Y-90050000D01*
X93873951Y-90052694D01*
G37*
%TD.AperFunction*%
%TD*%
%TA.AperFunction,Conductor*%
%TO.N,/Gate_Driver/FB*%
G36*
X98693039Y-97769685D02*
G01*
X98738794Y-97822489D01*
X98750000Y-97874000D01*
X98750000Y-100873582D01*
X98747460Y-100882229D01*
X98748749Y-100891148D01*
X98737771Y-100915227D01*
X98730315Y-100940621D01*
X98723504Y-100946522D01*
X98719766Y-100954723D01*
X98697509Y-100969046D01*
X98677511Y-100986376D01*
X98667038Y-100988657D01*
X98661013Y-100992536D01*
X98626082Y-100997582D01*
X98544051Y-100997636D01*
X98476998Y-100977996D01*
X98456288Y-100961317D01*
X98455265Y-100960294D01*
X98352492Y-100914915D01*
X98327365Y-100912000D01*
X97217643Y-100912000D01*
X97217617Y-100912002D01*
X97192512Y-100914913D01*
X97192508Y-100914915D01*
X97089736Y-100960293D01*
X97089734Y-100960294D01*
X97087677Y-100962352D01*
X97083015Y-100964896D01*
X97080255Y-100966788D01*
X97080063Y-100966508D01*
X97026352Y-100995834D01*
X97000083Y-100998666D01*
X95124083Y-100999917D01*
X95057030Y-100980277D01*
X95011240Y-100927504D01*
X95000000Y-100875917D01*
X95000000Y-98114500D01*
X95019685Y-98047461D01*
X95072489Y-98001706D01*
X95124000Y-97990500D01*
X97409830Y-97990500D01*
X97409833Y-97990501D01*
X97419652Y-97990500D01*
X97419653Y-97990501D01*
X97471011Y-97990501D01*
X97471011Y-97990502D01*
X97622891Y-97990501D01*
X97622894Y-97990501D01*
X97622894Y-97990500D01*
X97924743Y-97956490D01*
X98220888Y-97888895D01*
X98507604Y-97788569D01*
X98546817Y-97769685D01*
X98562194Y-97762280D01*
X98615996Y-97750000D01*
X98626000Y-97750000D01*
X98693039Y-97769685D01*
G37*
%TD.AperFunction*%
%TD*%
%TA.AperFunction,Conductor*%
%TO.N,GND2*%
G36*
X55758059Y-98501061D02*
G01*
X55863223Y-98514906D01*
X55894491Y-98523284D01*
X55984918Y-98560740D01*
X56012952Y-98576925D01*
X56090602Y-98636509D01*
X56113491Y-98659398D01*
X56173074Y-98737048D01*
X56189259Y-98765081D01*
X56226715Y-98855508D01*
X56235093Y-98886775D01*
X56248939Y-98991939D01*
X56250000Y-99008125D01*
X56250000Y-101741874D01*
X56248939Y-101758060D01*
X56235093Y-101863224D01*
X56226715Y-101894491D01*
X56189259Y-101984918D01*
X56173074Y-102012951D01*
X56113491Y-102090601D01*
X56090601Y-102113491D01*
X56012951Y-102173074D01*
X55984918Y-102189259D01*
X55894491Y-102226715D01*
X55863224Y-102235093D01*
X55769398Y-102247446D01*
X55758058Y-102248939D01*
X55741874Y-102250000D01*
X54500000Y-102250000D01*
X54317634Y-102386775D01*
X54166667Y-102500000D01*
X53641330Y-102894001D01*
X53624480Y-102904637D01*
X53509271Y-102965002D01*
X53471584Y-102977565D01*
X53425195Y-102985093D01*
X53343197Y-102998399D01*
X53323337Y-103000000D01*
X52008126Y-103000000D01*
X51991941Y-102998939D01*
X51978917Y-102997224D01*
X51886775Y-102985093D01*
X51855508Y-102976715D01*
X51765081Y-102939259D01*
X51737048Y-102923074D01*
X51659398Y-102863491D01*
X51636508Y-102840601D01*
X51576925Y-102762951D01*
X51560740Y-102734918D01*
X51523284Y-102644491D01*
X51514906Y-102613224D01*
X51502130Y-102516179D01*
X51502130Y-102483820D01*
X51514906Y-102386773D01*
X51523284Y-102355508D01*
X51560740Y-102265081D01*
X51576923Y-102237050D01*
X51636513Y-102159392D01*
X51659392Y-102136513D01*
X51737050Y-102076923D01*
X51765079Y-102060740D01*
X51855509Y-102023283D01*
X51886775Y-102014906D01*
X51991941Y-102001061D01*
X52008126Y-102000000D01*
X53000000Y-102000000D01*
X54250000Y-101250000D01*
X54250000Y-99008125D01*
X54251061Y-98991940D01*
X54264906Y-98886776D01*
X54264906Y-98886775D01*
X54273284Y-98855508D01*
X54310740Y-98765081D01*
X54326923Y-98737050D01*
X54386513Y-98659392D01*
X54409392Y-98636513D01*
X54487050Y-98576923D01*
X54515079Y-98560740D01*
X54605509Y-98523283D01*
X54636775Y-98514906D01*
X54741941Y-98501061D01*
X54758126Y-98500000D01*
X55741874Y-98500000D01*
X55758059Y-98501061D01*
G37*
%TD.AperFunction*%
%TD*%
%TA.AperFunction,Conductor*%
%TO.N,MCU_PWR*%
G36*
X85508059Y-109751061D02*
G01*
X85613223Y-109764906D01*
X85644491Y-109773284D01*
X85734918Y-109810740D01*
X85762952Y-109826925D01*
X85840602Y-109886509D01*
X85863491Y-109909398D01*
X85923074Y-109987048D01*
X85939259Y-110015081D01*
X85976715Y-110105508D01*
X85985093Y-110136775D01*
X85998939Y-110241939D01*
X86000000Y-110258125D01*
X86000000Y-118300500D01*
X85980315Y-118367539D01*
X85927511Y-118413294D01*
X85876000Y-118424500D01*
X85520381Y-118424500D01*
X85433925Y-118434882D01*
X85433924Y-118434882D01*
X85296339Y-118489139D01*
X85178499Y-118578499D01*
X85089139Y-118696339D01*
X85034882Y-118833924D01*
X85034882Y-118833925D01*
X85024500Y-118920381D01*
X85024500Y-119479618D01*
X85034882Y-119566074D01*
X85034883Y-119566078D01*
X85040575Y-119580511D01*
X85046856Y-119650098D01*
X85014518Y-119712034D01*
X84953829Y-119746655D01*
X84925220Y-119750000D01*
X80258126Y-119750000D01*
X80241941Y-119748939D01*
X80224592Y-119746655D01*
X80136775Y-119735093D01*
X80105508Y-119726715D01*
X80015081Y-119689259D01*
X79987048Y-119673074D01*
X79909398Y-119613491D01*
X79886508Y-119590601D01*
X79826925Y-119512951D01*
X79810740Y-119484918D01*
X79773284Y-119394491D01*
X79764906Y-119363223D01*
X79751061Y-119258059D01*
X79750000Y-119241874D01*
X79750000Y-118920826D01*
X79769685Y-118853787D01*
X79822489Y-118808032D01*
X79891647Y-118798088D01*
X79914945Y-118803782D01*
X80040301Y-118847646D01*
X80040300Y-118847646D01*
X80070730Y-118850500D01*
X80070734Y-118850500D01*
X81204270Y-118850500D01*
X81234699Y-118847646D01*
X81234701Y-118847646D01*
X81298790Y-118825219D01*
X81362882Y-118802793D01*
X81472150Y-118722150D01*
X81552793Y-118612882D01*
X81575219Y-118548790D01*
X81597646Y-118484701D01*
X81597646Y-118484699D01*
X81600500Y-118454269D01*
X81600500Y-118045730D01*
X81597646Y-118015300D01*
X81597646Y-118015298D01*
X81552793Y-117887119D01*
X81552792Y-117887117D01*
X81472150Y-117777850D01*
X81362882Y-117697207D01*
X81362880Y-117697206D01*
X81234700Y-117652353D01*
X81204270Y-117649500D01*
X81204266Y-117649500D01*
X80070734Y-117649500D01*
X80070730Y-117649500D01*
X80040300Y-117652353D01*
X80040298Y-117652354D01*
X79914955Y-117696214D01*
X79845176Y-117699776D01*
X79784549Y-117665048D01*
X79752321Y-117603054D01*
X79750000Y-117579173D01*
X79750000Y-117258125D01*
X79751061Y-117241940D01*
X79764906Y-117136776D01*
X79773284Y-117105508D01*
X79810740Y-117015081D01*
X79826923Y-116987050D01*
X79886513Y-116909392D01*
X79909392Y-116886513D01*
X79987050Y-116826923D01*
X80015079Y-116810740D01*
X80105509Y-116773283D01*
X80136775Y-116764906D01*
X80241941Y-116751061D01*
X80258126Y-116750000D01*
X83000000Y-116750000D01*
X83000000Y-110258125D01*
X83001061Y-110241940D01*
X83014906Y-110136776D01*
X83014906Y-110136775D01*
X83023284Y-110105508D01*
X83060740Y-110015081D01*
X83076923Y-109987050D01*
X83136513Y-109909392D01*
X83159392Y-109886513D01*
X83237050Y-109826923D01*
X83265079Y-109810740D01*
X83355509Y-109773283D01*
X83386775Y-109764906D01*
X83491941Y-109751061D01*
X83508126Y-109750000D01*
X85491874Y-109750000D01*
X85508059Y-109751061D01*
G37*
%TD.AperFunction*%
%TD*%
%TA.AperFunction,Conductor*%
%TO.N,+3.3V*%
G36*
X73133086Y-118269685D02*
G01*
X73178841Y-118322489D01*
X73188785Y-118391647D01*
X73159760Y-118455203D01*
X73153728Y-118461681D01*
X71901728Y-119713681D01*
X71840405Y-119747166D01*
X71814047Y-119750000D01*
X69874000Y-119750000D01*
X69865314Y-119747449D01*
X69856353Y-119748738D01*
X69832312Y-119737759D01*
X69806961Y-119730315D01*
X69801033Y-119723474D01*
X69792797Y-119719713D01*
X69778507Y-119697478D01*
X69761206Y-119677511D01*
X69758918Y-119666996D01*
X69755023Y-119660935D01*
X69750000Y-119626000D01*
X69750000Y-119550040D01*
X69761601Y-119498933D01*
X69761146Y-119498732D01*
X69764527Y-119491094D01*
X69769163Y-119480626D01*
X69769656Y-119478223D01*
X69772455Y-119467194D01*
X69789217Y-119411948D01*
X69797246Y-119371586D01*
X69801646Y-119341929D01*
X69804029Y-119317736D01*
X69805500Y-119287789D01*
X69805500Y-118374000D01*
X69825185Y-118306961D01*
X69877989Y-118261206D01*
X69929500Y-118250000D01*
X73066047Y-118250000D01*
X73133086Y-118269685D01*
G37*
%TD.AperFunction*%
%TA.AperFunction,Conductor*%
G36*
X79197502Y-118269685D02*
G01*
X79243257Y-118322489D01*
X79254380Y-118369456D01*
X79299806Y-119608353D01*
X79300287Y-119621456D01*
X79283072Y-119689172D01*
X79231980Y-119736831D01*
X79176370Y-119750000D01*
X73933953Y-119750000D01*
X73866914Y-119730315D01*
X73821159Y-119677511D01*
X73811215Y-119608353D01*
X73840240Y-119544797D01*
X73846272Y-119538319D01*
X75098272Y-118286319D01*
X75159595Y-118252834D01*
X75185953Y-118250000D01*
X79130463Y-118250000D01*
X79197502Y-118269685D01*
G37*
%TD.AperFunction*%
%TD*%
%TA.AperFunction,Conductor*%
%TO.N,/Gate_Driver/SHB*%
G36*
X101066281Y-52254210D02*
G01*
X101094871Y-52261856D01*
X101118346Y-52268134D01*
X101132204Y-52276119D01*
X101145589Y-52279012D01*
X101173868Y-52300123D01*
X101182605Y-52308836D01*
X101200084Y-52326268D01*
X101232222Y-52381701D01*
X101246288Y-52433724D01*
X101250586Y-52465752D01*
X101297622Y-69787224D01*
X101295297Y-69811462D01*
X101287351Y-69851914D01*
X101284156Y-69859669D01*
X101284073Y-69864867D01*
X101268894Y-69896730D01*
X101252962Y-69920661D01*
X101218739Y-69954977D01*
X101194847Y-69970976D01*
X101150088Y-69989552D01*
X101136880Y-69992184D01*
X101109652Y-69997609D01*
X101085424Y-70000000D01*
X99379933Y-70000000D01*
X99312894Y-69980315D01*
X99292252Y-69963681D01*
X99251365Y-69922794D01*
X99148592Y-69877415D01*
X99123468Y-69874500D01*
X98393599Y-69874500D01*
X98326560Y-69854815D01*
X98311108Y-69842234D01*
X98310690Y-69842701D01*
X98242702Y-69781634D01*
X98232641Y-69774912D01*
X98232622Y-69774900D01*
X98194749Y-69753336D01*
X98194750Y-69753336D01*
X98162916Y-69738107D01*
X98146493Y-69730836D01*
X98146488Y-69730834D01*
X98144101Y-69730344D01*
X98133082Y-69727546D01*
X98077817Y-69710782D01*
X98037415Y-69702746D01*
X98037417Y-69702746D01*
X98007783Y-69698352D01*
X98007757Y-69698348D01*
X97983601Y-69695970D01*
X97971952Y-69695398D01*
X97953659Y-69694500D01*
X94628081Y-69694500D01*
X94610751Y-69695351D01*
X94598140Y-69695970D01*
X94573966Y-69698350D01*
X94573948Y-69698352D01*
X94544325Y-69702746D01*
X94544305Y-69702749D01*
X94544296Y-69702751D01*
X94544276Y-69702755D01*
X94503924Y-69710781D01*
X94503915Y-69710783D01*
X94446604Y-69728170D01*
X94401910Y-69746684D01*
X94401903Y-69746687D01*
X94349100Y-69774912D01*
X94325224Y-69790866D01*
X94278937Y-69828854D01*
X94278933Y-69828857D01*
X94244727Y-69863063D01*
X94244724Y-69863067D01*
X94206737Y-69909352D01*
X94190787Y-69933222D01*
X94190785Y-69933226D01*
X94190125Y-69934462D01*
X94189919Y-69934670D01*
X94189222Y-69935835D01*
X94188941Y-69935666D01*
X94141158Y-69984302D01*
X94080771Y-70000000D01*
X93510412Y-70000000D01*
X93486221Y-69997617D01*
X93470945Y-69994578D01*
X93445857Y-69989588D01*
X93401157Y-69971072D01*
X93377287Y-69955122D01*
X93343078Y-69920913D01*
X93327128Y-69897043D01*
X93308613Y-69852346D01*
X93300582Y-69811971D01*
X93298201Y-69787789D01*
X93298201Y-65000000D01*
X93098201Y-65000000D01*
X91063959Y-65000000D01*
X91000000Y-65000000D01*
X90999999Y-65000000D01*
X90943708Y-65040104D01*
X90943699Y-65040111D01*
X90719280Y-65200000D01*
X90547840Y-65322143D01*
X90358119Y-65457310D01*
X90341691Y-65467194D01*
X90330686Y-65472705D01*
X90261929Y-65485122D01*
X90197373Y-65458394D01*
X90187482Y-65449511D01*
X90160765Y-65422794D01*
X90057992Y-65377415D01*
X90032868Y-65374500D01*
X86421294Y-65374500D01*
X86412827Y-65372013D01*
X86404095Y-65373302D01*
X86379813Y-65362319D01*
X86354255Y-65354815D01*
X86348476Y-65348146D01*
X86340434Y-65344509D01*
X86325944Y-65322143D01*
X86308500Y-65302011D01*
X86306244Y-65291734D01*
X86302445Y-65285869D01*
X86297295Y-65250953D01*
X86297277Y-65246260D01*
X86296974Y-65162808D01*
X86316412Y-65095702D01*
X86333284Y-65074686D01*
X86360206Y-65047765D01*
X86405585Y-64944991D01*
X86408500Y-64919865D01*
X86408499Y-63680136D01*
X86408497Y-63680117D01*
X86405586Y-63655012D01*
X86405585Y-63655010D01*
X86405585Y-63655009D01*
X86360206Y-63552235D01*
X86326995Y-63519024D01*
X86293510Y-63457701D01*
X86290677Y-63431794D01*
X86250774Y-52462965D01*
X86253078Y-52438722D01*
X86260999Y-52398228D01*
X86279434Y-52353380D01*
X86295363Y-52329423D01*
X86329584Y-52295075D01*
X86353489Y-52279055D01*
X86398266Y-52260460D01*
X86438729Y-52252392D01*
X86462969Y-52250000D01*
X101034244Y-52250000D01*
X101066281Y-52254210D01*
G37*
%TD.AperFunction*%
%TD*%
%TA.AperFunction,Conductor*%
%TO.N,GND2*%
G36*
X120195529Y-134301095D02*
G01*
X120215126Y-134303716D01*
X120302324Y-134315380D01*
X120334046Y-134324022D01*
X120425661Y-134362642D01*
X120453996Y-134379319D01*
X120470902Y-134392573D01*
X120532234Y-134440659D01*
X120555192Y-134464198D01*
X120614557Y-134543945D01*
X120630521Y-134572692D01*
X120666836Y-134665233D01*
X120674684Y-134697166D01*
X120686297Y-134804288D01*
X120686980Y-134820751D01*
X120612813Y-137787503D01*
X120612813Y-137787505D01*
X120612428Y-137802895D01*
X120610473Y-137821942D01*
X120588139Y-137944973D01*
X120575616Y-137981045D01*
X120521470Y-138082867D01*
X120498566Y-138113417D01*
X120416009Y-138193936D01*
X120414418Y-138195067D01*
X120413893Y-138195952D01*
X120384894Y-138216070D01*
X120281753Y-138267652D01*
X120245381Y-138279269D01*
X120121836Y-138298521D01*
X120102744Y-138300000D01*
X117720911Y-138300000D01*
X117704470Y-138298905D01*
X117701599Y-138298521D01*
X117692698Y-138297330D01*
X117597677Y-138284619D01*
X117565950Y-138275976D01*
X117474341Y-138237358D01*
X117446001Y-138220679D01*
X117367765Y-138159340D01*
X117344807Y-138135801D01*
X117285442Y-138056054D01*
X117269478Y-138027307D01*
X117244630Y-137963986D01*
X117233162Y-137934765D01*
X117225315Y-137902834D01*
X117213700Y-137795701D01*
X117213018Y-137779251D01*
X117287188Y-134812496D01*
X117287572Y-134797105D01*
X117289527Y-134778052D01*
X117311861Y-134655021D01*
X117324381Y-134618959D01*
X117378532Y-134517127D01*
X117401429Y-134486586D01*
X117483992Y-134406061D01*
X117515102Y-134383930D01*
X117618248Y-134332346D01*
X117654612Y-134320731D01*
X117778176Y-134301477D01*
X117797256Y-134300000D01*
X120179089Y-134300000D01*
X120195529Y-134301095D01*
G37*
%TD.AperFunction*%
%TD*%
%TA.AperFunction,Conductor*%
%TO.N,GND2*%
G36*
X75603442Y-133305714D02*
G01*
X75709347Y-133318735D01*
X75740852Y-133326914D01*
X75832083Y-133363955D01*
X75860379Y-133380058D01*
X75904335Y-133413408D01*
X75938813Y-133439566D01*
X75961945Y-133462483D01*
X76022183Y-133540356D01*
X76038551Y-133568502D01*
X76071155Y-133646699D01*
X76076440Y-133659372D01*
X76084917Y-133690812D01*
X76098927Y-133796593D01*
X76100000Y-133812874D01*
X76100000Y-140491874D01*
X76098939Y-140508059D01*
X76098939Y-140508060D01*
X76085093Y-140613224D01*
X76076715Y-140644491D01*
X76039259Y-140734918D01*
X76023074Y-140762951D01*
X75963491Y-140840601D01*
X75940601Y-140863491D01*
X75862951Y-140923074D01*
X75834918Y-140939259D01*
X75744491Y-140976715D01*
X75713224Y-140985093D01*
X75623822Y-140996863D01*
X75611856Y-140998439D01*
X75595672Y-140999500D01*
X65904328Y-140999500D01*
X65888143Y-140998439D01*
X65874424Y-140996632D01*
X65786775Y-140985093D01*
X65755508Y-140976715D01*
X65665081Y-140939259D01*
X65637048Y-140923074D01*
X65559398Y-140863491D01*
X65536508Y-140840601D01*
X65476925Y-140762951D01*
X65460740Y-140734918D01*
X65423284Y-140644491D01*
X65414906Y-140613223D01*
X65401061Y-140508059D01*
X65400000Y-140491874D01*
X65400000Y-133903429D01*
X65401048Y-133887341D01*
X65402344Y-133877432D01*
X65414731Y-133782774D01*
X65423008Y-133751691D01*
X65460038Y-133661700D01*
X65476033Y-133633793D01*
X65534973Y-133556358D01*
X65557611Y-133533507D01*
X65634493Y-133473845D01*
X65662251Y-133457589D01*
X65751887Y-133419722D01*
X65782898Y-133411152D01*
X65887331Y-133396493D01*
X65903392Y-133395295D01*
X67647045Y-133378999D01*
X67714264Y-133398057D01*
X67760510Y-133450431D01*
X67771099Y-133519493D01*
X67760263Y-133553343D01*
X67760276Y-133553348D01*
X67760114Y-133553808D01*
X67757835Y-133560931D01*
X67757206Y-133562120D01*
X67712353Y-133690298D01*
X67712353Y-133690300D01*
X67709500Y-133720730D01*
X67709500Y-134613657D01*
X67689815Y-134680696D01*
X67637011Y-134726451D01*
X67617599Y-134733430D01*
X67597867Y-134738717D01*
X67597865Y-134738718D01*
X67466635Y-134814485D01*
X67466632Y-134814487D01*
X67359487Y-134921632D01*
X67359485Y-134921635D01*
X67283719Y-135052863D01*
X67244500Y-135199234D01*
X67244500Y-135350765D01*
X67283719Y-135497136D01*
X67321602Y-135562750D01*
X67359485Y-135628365D01*
X67466635Y-135735515D01*
X67597865Y-135811281D01*
X67744234Y-135850500D01*
X67744236Y-135850500D01*
X67895764Y-135850500D01*
X67895766Y-135850500D01*
X68042135Y-135811281D01*
X68173365Y-135735515D01*
X68280515Y-135628365D01*
X68356281Y-135497135D01*
X68395500Y-135350766D01*
X68395500Y-135199390D01*
X68415185Y-135132351D01*
X68467989Y-135086596D01*
X68487546Y-135079578D01*
X68502837Y-135075500D01*
X68514266Y-135075500D01*
X68544699Y-135072646D01*
X68644570Y-135037699D01*
X68649117Y-135036487D01*
X68679517Y-135037246D01*
X68709894Y-135035695D01*
X68716808Y-135038177D01*
X68718965Y-135038231D01*
X68721219Y-135039760D01*
X68735532Y-135044899D01*
X68776372Y-135064865D01*
X68776373Y-135064865D01*
X68776375Y-135064866D01*
X68849364Y-135075500D01*
X68849370Y-135075500D01*
X69070630Y-135075500D01*
X69070636Y-135075500D01*
X69143625Y-135064866D01*
X69155539Y-135059041D01*
X69224408Y-135047281D01*
X69264458Y-135059040D01*
X69276375Y-135064866D01*
X69349364Y-135075500D01*
X69349370Y-135075500D01*
X69570631Y-135075500D01*
X69570636Y-135075500D01*
X69587316Y-135073069D01*
X69656490Y-135082880D01*
X69692875Y-135108092D01*
X69981263Y-135396480D01*
X70072588Y-135449207D01*
X70174449Y-135476500D01*
X70174451Y-135476500D01*
X70745549Y-135476500D01*
X70745551Y-135476500D01*
X70847412Y-135449207D01*
X70938737Y-135396480D01*
X71227126Y-135108089D01*
X71288445Y-135074607D01*
X71332679Y-135073069D01*
X71349364Y-135075500D01*
X71349367Y-135075500D01*
X71570630Y-135075500D01*
X71570636Y-135075500D01*
X71643625Y-135064866D01*
X71655539Y-135059041D01*
X71724408Y-135047281D01*
X71764458Y-135059040D01*
X71776375Y-135064866D01*
X71849364Y-135075500D01*
X71849370Y-135075500D01*
X72070630Y-135075500D01*
X72070636Y-135075500D01*
X72143625Y-135064866D01*
X72155539Y-135059041D01*
X72224408Y-135047281D01*
X72264458Y-135059040D01*
X72276375Y-135064866D01*
X72349364Y-135075500D01*
X72349370Y-135075500D01*
X72570630Y-135075500D01*
X72570636Y-135075500D01*
X72643625Y-135064866D01*
X72684466Y-135044899D01*
X72710593Y-135040438D01*
X72735831Y-135032338D01*
X72747392Y-135034154D01*
X72753337Y-135033139D01*
X72770881Y-135036487D01*
X72775435Y-135037701D01*
X72875301Y-135072646D01*
X72905734Y-135075500D01*
X72917163Y-135075500D01*
X72932454Y-135079578D01*
X72951378Y-135091083D01*
X72972320Y-135098306D01*
X72980654Y-135108880D01*
X72992156Y-135115873D01*
X73001856Y-135135783D01*
X73015569Y-135153182D01*
X73019011Y-135170992D01*
X73022759Y-135178684D01*
X73021900Y-135185938D01*
X73024500Y-135199390D01*
X73024500Y-135350765D01*
X73063719Y-135497136D01*
X73101602Y-135562750D01*
X73139485Y-135628365D01*
X73246635Y-135735515D01*
X73377865Y-135811281D01*
X73524234Y-135850500D01*
X73524236Y-135850500D01*
X73675764Y-135850500D01*
X73675766Y-135850500D01*
X73822135Y-135811281D01*
X73953365Y-135735515D01*
X74060515Y-135628365D01*
X74136281Y-135497135D01*
X74175500Y-135350766D01*
X74175500Y-135199234D01*
X74136281Y-135052865D01*
X74060515Y-134921635D01*
X73953365Y-134814485D01*
X73887750Y-134776602D01*
X73822136Y-134738719D01*
X73814320Y-134736625D01*
X73802404Y-134733432D01*
X73742745Y-134697067D01*
X73712217Y-134634220D01*
X73710500Y-134613658D01*
X73710500Y-133720730D01*
X73707646Y-133690302D01*
X73707645Y-133690300D01*
X73667458Y-133575449D01*
X73666763Y-133571359D01*
X73665523Y-133569430D01*
X73660500Y-133534495D01*
X73660500Y-133445645D01*
X73680185Y-133378606D01*
X73732989Y-133332851D01*
X73783334Y-133321651D01*
X75587162Y-133304793D01*
X75603442Y-133305714D01*
G37*
%TD.AperFunction*%
%TD*%
%TA.AperFunction,Conductor*%
%TO.N,GND2*%
G36*
X70761929Y-110269685D02*
G01*
X70782571Y-110286319D01*
X71213681Y-110717429D01*
X71247166Y-110778752D01*
X71250000Y-110805110D01*
X71250000Y-117626000D01*
X71230315Y-117693039D01*
X71177511Y-117738794D01*
X71126000Y-117750000D01*
X69929500Y-117750000D01*
X69862461Y-117730315D01*
X69816706Y-117677511D01*
X69805500Y-117626000D01*
X69805500Y-112462222D01*
X69805500Y-112462210D01*
X69804028Y-112432260D01*
X69801645Y-112408070D01*
X69797247Y-112378421D01*
X69789218Y-112338056D01*
X69771831Y-112280739D01*
X69759438Y-112250822D01*
X69750000Y-112203371D01*
X69750000Y-110374000D01*
X69769685Y-110306961D01*
X69822489Y-110261206D01*
X69874000Y-110250000D01*
X70694890Y-110250000D01*
X70761929Y-110269685D01*
G37*
%TD.AperFunction*%
%TD*%
%TA.AperFunction,Conductor*%
%TO.N,GND*%
G36*
X114311971Y-74002381D02*
G01*
X114352346Y-74010412D01*
X114397043Y-74028927D01*
X114420913Y-74044877D01*
X114426805Y-74050769D01*
X114431537Y-74052829D01*
X114455122Y-74079086D01*
X114471072Y-74102956D01*
X114489588Y-74147655D01*
X114497617Y-74188020D01*
X114500000Y-74212210D01*
X114500000Y-74500000D01*
X117537789Y-74500000D01*
X117561971Y-74502381D01*
X117602346Y-74510412D01*
X117647043Y-74528927D01*
X117670913Y-74544877D01*
X117705122Y-74579086D01*
X117721072Y-74602956D01*
X117739588Y-74647655D01*
X117747617Y-74688022D01*
X117750000Y-74712210D01*
X117750000Y-82287789D01*
X117747617Y-82311979D01*
X117747617Y-82311982D01*
X117739588Y-82352344D01*
X117721072Y-82397043D01*
X117705122Y-82420913D01*
X117670913Y-82455122D01*
X117647043Y-82471072D01*
X117602344Y-82489588D01*
X117585841Y-82492870D01*
X117561978Y-82497617D01*
X117537789Y-82500000D01*
X111712211Y-82500000D01*
X111688020Y-82497617D01*
X111672744Y-82494578D01*
X111647656Y-82489588D01*
X111602956Y-82471072D01*
X111579086Y-82455122D01*
X111544877Y-82420913D01*
X111528927Y-82397043D01*
X111510412Y-82352346D01*
X111502381Y-82311971D01*
X111500000Y-82287789D01*
X111500000Y-74212210D01*
X111502381Y-74188029D01*
X111510412Y-74147651D01*
X111528927Y-74102956D01*
X111544877Y-74079086D01*
X111579086Y-74044877D01*
X111602956Y-74028927D01*
X111647653Y-74010412D01*
X111688027Y-74002381D01*
X111712211Y-74000000D01*
X114287789Y-74000000D01*
X114311971Y-74002381D01*
G37*
%TD.AperFunction*%
%TD*%
%TA.AperFunction,Conductor*%
%TO.N,VM*%
G36*
X102468984Y-93597416D02*
G01*
X102498575Y-93660710D01*
X102500000Y-93679452D01*
X102500000Y-95376000D01*
X102480315Y-95443039D01*
X102427511Y-95488794D01*
X102376000Y-95500000D01*
X97628110Y-95500000D01*
X97561071Y-95480315D01*
X97540429Y-95463681D01*
X97165371Y-95088623D01*
X97132754Y-95031016D01*
X97000000Y-94500000D01*
X96292030Y-94500000D01*
X96251075Y-94493041D01*
X96047097Y-94421665D01*
X96047085Y-94421661D01*
X95828528Y-94371777D01*
X95763891Y-94357024D01*
X95763887Y-94357023D01*
X95763878Y-94357022D01*
X95475243Y-94324500D01*
X95475239Y-94324500D01*
X95386018Y-94324500D01*
X94917623Y-94324500D01*
X94901437Y-94323439D01*
X94871525Y-94319500D01*
X94871518Y-94319500D01*
X94124000Y-94319500D01*
X94056961Y-94299815D01*
X94011206Y-94247011D01*
X94000000Y-94195500D01*
X94000000Y-93804500D01*
X94019685Y-93737461D01*
X94072489Y-93691706D01*
X94124000Y-93680500D01*
X94871511Y-93680500D01*
X94871518Y-93680500D01*
X94901437Y-93676560D01*
X94917623Y-93675500D01*
X101604207Y-93675500D01*
X101604591Y-93675474D01*
X101679793Y-93675475D01*
X101957863Y-93648090D01*
X102231911Y-93593581D01*
X102340008Y-93560790D01*
X102409872Y-93560168D01*
X102468984Y-93597416D01*
G37*
%TD.AperFunction*%
%TD*%
%TA.AperFunction,Conductor*%
%TO.N,/Gate_Driver/SENS1*%
G36*
X109715559Y-100301061D02*
G01*
X109820723Y-100314906D01*
X109851991Y-100323284D01*
X109942418Y-100360740D01*
X109970452Y-100376925D01*
X110048102Y-100436509D01*
X110070991Y-100459398D01*
X110130574Y-100537048D01*
X110146759Y-100565081D01*
X110184215Y-100655508D01*
X110192593Y-100686775D01*
X110206439Y-100791939D01*
X110207500Y-100808125D01*
X110207500Y-103491874D01*
X110206439Y-103508059D01*
X110206439Y-103508060D01*
X110192593Y-103613224D01*
X110184215Y-103644491D01*
X110146759Y-103734918D01*
X110130574Y-103762951D01*
X110070991Y-103840601D01*
X110048101Y-103863491D01*
X109970451Y-103923074D01*
X109942418Y-103939259D01*
X109851991Y-103976715D01*
X109820724Y-103985093D01*
X109726898Y-103997446D01*
X109715558Y-103998939D01*
X109699374Y-104000000D01*
X109215626Y-104000000D01*
X109199441Y-103998939D01*
X109186417Y-103997224D01*
X109094275Y-103985093D01*
X109063008Y-103976715D01*
X108972581Y-103939259D01*
X108944548Y-103923074D01*
X108866898Y-103863491D01*
X108844008Y-103840601D01*
X108784425Y-103762951D01*
X108768240Y-103734918D01*
X108730784Y-103644491D01*
X108722406Y-103613223D01*
X108708561Y-103508059D01*
X108707500Y-103491874D01*
X108707500Y-100808125D01*
X108708561Y-100791940D01*
X108722406Y-100686776D01*
X108722406Y-100686775D01*
X108730784Y-100655508D01*
X108768240Y-100565081D01*
X108784423Y-100537050D01*
X108844013Y-100459392D01*
X108866892Y-100436513D01*
X108944550Y-100376923D01*
X108972579Y-100360740D01*
X109063009Y-100323283D01*
X109094275Y-100314906D01*
X109199441Y-100301061D01*
X109215626Y-100300000D01*
X109699374Y-100300000D01*
X109715559Y-100301061D01*
G37*
%TD.AperFunction*%
%TD*%
%TA.AperFunction,Conductor*%
%TO.N,/Gate_Driver/kdk*%
G36*
X98193039Y-109269685D02*
G01*
X98238794Y-109322489D01*
X98250000Y-109374000D01*
X98250000Y-114876000D01*
X98230315Y-114943039D01*
X98177511Y-114988794D01*
X98126000Y-115000000D01*
X88874000Y-115000000D01*
X88806961Y-114980315D01*
X88761206Y-114927511D01*
X88750000Y-114876000D01*
X88750000Y-109374000D01*
X88769685Y-109306961D01*
X88822489Y-109261206D01*
X88874000Y-109250000D01*
X98126000Y-109250000D01*
X98193039Y-109269685D01*
G37*
%TD.AperFunction*%
%TD*%
%TA.AperFunction,Conductor*%
%TO.N,GND2*%
G36*
X62103813Y-116305323D02*
G01*
X62209673Y-116318415D01*
X62241159Y-116326612D01*
X62332317Y-116363687D01*
X62360595Y-116379798D01*
X62438963Y-116439312D01*
X62462074Y-116462226D01*
X62522257Y-116540080D01*
X62538611Y-116568220D01*
X62576462Y-116659050D01*
X62584930Y-116690474D01*
X62598927Y-116796204D01*
X62600000Y-116812478D01*
X62600000Y-117591874D01*
X62598939Y-117608059D01*
X62598939Y-117608060D01*
X62585093Y-117713224D01*
X62576715Y-117744491D01*
X62539259Y-117834918D01*
X62523074Y-117862951D01*
X62463491Y-117940601D01*
X62440601Y-117963491D01*
X62362951Y-118023074D01*
X62334918Y-118039259D01*
X62244491Y-118076715D01*
X62213224Y-118085093D01*
X62119398Y-118097446D01*
X62108058Y-118098939D01*
X62091874Y-118100000D01*
X59608126Y-118100000D01*
X59591941Y-118098939D01*
X59578917Y-118097224D01*
X59486775Y-118085093D01*
X59455508Y-118076715D01*
X59365081Y-118039259D01*
X59337048Y-118023074D01*
X59259398Y-117963491D01*
X59236508Y-117940601D01*
X59176925Y-117862951D01*
X59160740Y-117834918D01*
X59123284Y-117744491D01*
X59114906Y-117713223D01*
X59101061Y-117608059D01*
X59100000Y-117591874D01*
X59100000Y-116833818D01*
X59101049Y-116817721D01*
X59103866Y-116796204D01*
X59114746Y-116713100D01*
X59123031Y-116682005D01*
X59160096Y-116591978D01*
X59176104Y-116564065D01*
X59235104Y-116486604D01*
X59257761Y-116463753D01*
X59334703Y-116404100D01*
X59362483Y-116387848D01*
X59452188Y-116350013D01*
X59483217Y-116341461D01*
X59587721Y-116326866D01*
X59603785Y-116325681D01*
X62087545Y-116304392D01*
X62103813Y-116305323D01*
G37*
%TD.AperFunction*%
%TD*%
%TA.AperFunction,Conductor*%
%TO.N,/Gate_Driver/SHA*%
G36*
X117819395Y-52504122D02*
G01*
X117870988Y-52517770D01*
X117884673Y-52525554D01*
X117897658Y-52528249D01*
X117926110Y-52549125D01*
X117935748Y-52558579D01*
X117952304Y-52574820D01*
X117984713Y-52629330D01*
X117999349Y-52680648D01*
X118004081Y-52712273D01*
X118218720Y-63873463D01*
X118245842Y-65283793D01*
X118243872Y-65308319D01*
X118236437Y-65349288D01*
X118218352Y-65394794D01*
X118202513Y-65419126D01*
X118168225Y-65454080D01*
X118160731Y-65459166D01*
X118094206Y-65480525D01*
X118026694Y-65462527D01*
X118003416Y-65444245D01*
X117981965Y-65422794D01*
X117879192Y-65377415D01*
X117854068Y-65374500D01*
X114374000Y-65374500D01*
X114306961Y-65354815D01*
X114261206Y-65302011D01*
X114250000Y-65250500D01*
X114250000Y-63736683D01*
X114232533Y-63704695D01*
X114230274Y-63683687D01*
X114229905Y-63683709D01*
X114229699Y-63680151D01*
X114229699Y-63680136D01*
X114227196Y-63658552D01*
X114226786Y-63655012D01*
X114226785Y-63655010D01*
X114226785Y-63655009D01*
X114181406Y-63552235D01*
X114101965Y-63472794D01*
X114101963Y-63472793D01*
X113999192Y-63427415D01*
X113974065Y-63424500D01*
X113234343Y-63424500D01*
X113234317Y-63424502D01*
X113209212Y-63427413D01*
X113209208Y-63427415D01*
X113106435Y-63472793D01*
X113026994Y-63552234D01*
X112981615Y-63655007D01*
X112980651Y-63658552D01*
X112978519Y-63662019D01*
X112977847Y-63663542D01*
X112977639Y-63663450D01*
X112944058Y-63718073D01*
X112881094Y-63748361D01*
X112861000Y-63750000D01*
X109750000Y-63750000D01*
X109750000Y-69787789D01*
X109747617Y-69811979D01*
X109747617Y-69811982D01*
X109739588Y-69852344D01*
X109721072Y-69897043D01*
X109705122Y-69920913D01*
X109670913Y-69955122D01*
X109647043Y-69971072D01*
X109602344Y-69989588D01*
X109585841Y-69992870D01*
X109561978Y-69997617D01*
X109537789Y-70000000D01*
X108879933Y-70000000D01*
X108812894Y-69980315D01*
X108792252Y-69963681D01*
X108751365Y-69922794D01*
X108648592Y-69877415D01*
X108623465Y-69874500D01*
X107883743Y-69874500D01*
X107883717Y-69874502D01*
X107858612Y-69877413D01*
X107858610Y-69877414D01*
X107816281Y-69896104D01*
X107795785Y-69898787D01*
X107776504Y-69906240D01*
X107761841Y-69903231D01*
X107747002Y-69905174D01*
X107728309Y-69896350D01*
X107708061Y-69892196D01*
X107690611Y-69878556D01*
X107683818Y-69875350D01*
X107679558Y-69871381D01*
X107676659Y-69868549D01*
X107658813Y-69848682D01*
X107646430Y-69835686D01*
X107638166Y-69830088D01*
X107636934Y-69828856D01*
X107631173Y-69824128D01*
X107631168Y-69824123D01*
X107590649Y-69790870D01*
X107590648Y-69790869D01*
X107590644Y-69790866D01*
X107566774Y-69774916D01*
X107566773Y-69774915D01*
X107566768Y-69774912D01*
X107513965Y-69746687D01*
X107513958Y-69746684D01*
X107469261Y-69728169D01*
X107469258Y-69728168D01*
X107469259Y-69728168D01*
X107411938Y-69710780D01*
X107411939Y-69710780D01*
X107371545Y-69702746D01*
X107371547Y-69702746D01*
X107341913Y-69698352D01*
X107341887Y-69698348D01*
X107317731Y-69695970D01*
X107306082Y-69695398D01*
X107287789Y-69694500D01*
X103962211Y-69694500D01*
X103944881Y-69695351D01*
X103932270Y-69695970D01*
X103908096Y-69698350D01*
X103908078Y-69698352D01*
X103878455Y-69702746D01*
X103878435Y-69702749D01*
X103878426Y-69702751D01*
X103878406Y-69702755D01*
X103838054Y-69710781D01*
X103838045Y-69710783D01*
X103780734Y-69728170D01*
X103736040Y-69746684D01*
X103736033Y-69746687D01*
X103683230Y-69774912D01*
X103659354Y-69790866D01*
X103613067Y-69828854D01*
X103613063Y-69828857D01*
X103578857Y-69863063D01*
X103578854Y-69863067D01*
X103540867Y-69909352D01*
X103524917Y-69933222D01*
X103524915Y-69933226D01*
X103524255Y-69934462D01*
X103524049Y-69934670D01*
X103523352Y-69935835D01*
X103523071Y-69935666D01*
X103475288Y-69984302D01*
X103414901Y-70000000D01*
X102962211Y-70000000D01*
X102938020Y-69997617D01*
X102922744Y-69994578D01*
X102897656Y-69989588D01*
X102852956Y-69971072D01*
X102829086Y-69955122D01*
X102794877Y-69920913D01*
X102778927Y-69897043D01*
X102760412Y-69852346D01*
X102752381Y-69811971D01*
X102750000Y-69787789D01*
X102750000Y-52712210D01*
X102752381Y-52688029D01*
X102760412Y-52647651D01*
X102778927Y-52602956D01*
X102794877Y-52579086D01*
X102829086Y-52544877D01*
X102852956Y-52528927D01*
X102897653Y-52510412D01*
X102938027Y-52502381D01*
X102962211Y-52500000D01*
X117787686Y-52500000D01*
X117819395Y-52504122D01*
G37*
%TD.AperFunction*%
%TD*%
M02*
