%TF.GenerationSoftware,KiCad,Pcbnew,9.0.6*%
%TF.CreationDate,2026-07-14T21:45:29+03:00*%
%TF.ProjectId,Ana_ESC2_OneGND_Layer,416e615f-4553-4433-925f-4f6e65474e44,rev?*%
%TF.SameCoordinates,Original*%
%TF.FileFunction,Legend,Bot*%
%TF.FilePolarity,Positive*%
%FSLAX46Y46*%
G04 Gerber Fmt 4.6, Leading zero omitted, Abs format (unit mm)*
G04 Created by KiCad (PCBNEW 9.0.6) date 2026-07-14 21:45:29*
%MOMM*%
%LPD*%
G01*
G04 APERTURE LIST*
%ADD10C,0.080000*%
G04 APERTURE END LIST*
D10*
X50493453Y-60005011D02*
X50493453Y-60385964D01*
X50722025Y-59928821D02*
X49922025Y-60195488D01*
X49922025Y-60195488D02*
X50722025Y-60462154D01*
X50302977Y-60995487D02*
X50341072Y-61109773D01*
X50341072Y-61109773D02*
X50379168Y-61147868D01*
X50379168Y-61147868D02*
X50455358Y-61185964D01*
X50455358Y-61185964D02*
X50569644Y-61185964D01*
X50569644Y-61185964D02*
X50645834Y-61147868D01*
X50645834Y-61147868D02*
X50683930Y-61109773D01*
X50683930Y-61109773D02*
X50722025Y-61033583D01*
X50722025Y-61033583D02*
X50722025Y-60728821D01*
X50722025Y-60728821D02*
X49922025Y-60728821D01*
X49922025Y-60728821D02*
X49922025Y-60995487D01*
X49922025Y-60995487D02*
X49960120Y-61071678D01*
X49960120Y-61071678D02*
X49998215Y-61109773D01*
X49998215Y-61109773D02*
X50074406Y-61147868D01*
X50074406Y-61147868D02*
X50150596Y-61147868D01*
X50150596Y-61147868D02*
X50226787Y-61109773D01*
X50226787Y-61109773D02*
X50264882Y-61071678D01*
X50264882Y-61071678D02*
X50302977Y-60995487D01*
X50302977Y-60995487D02*
X50302977Y-60728821D01*
X50722025Y-61528821D02*
X49922025Y-61528821D01*
X49922025Y-61528821D02*
X49922025Y-61719297D01*
X49922025Y-61719297D02*
X49960120Y-61833583D01*
X49960120Y-61833583D02*
X50036310Y-61909773D01*
X50036310Y-61909773D02*
X50112501Y-61947868D01*
X50112501Y-61947868D02*
X50264882Y-61985964D01*
X50264882Y-61985964D02*
X50379168Y-61985964D01*
X50379168Y-61985964D02*
X50531549Y-61947868D01*
X50531549Y-61947868D02*
X50607739Y-61909773D01*
X50607739Y-61909773D02*
X50683930Y-61833583D01*
X50683930Y-61833583D02*
X50722025Y-61719297D01*
X50722025Y-61719297D02*
X50722025Y-61528821D01*
X50302977Y-62328821D02*
X50302977Y-62595487D01*
X50722025Y-62709773D02*
X50722025Y-62328821D01*
X50722025Y-62328821D02*
X49922025Y-62328821D01*
X49922025Y-62328821D02*
X49922025Y-62709773D01*
X50722025Y-63433583D02*
X50722025Y-63052631D01*
X50722025Y-63052631D02*
X49922025Y-63052631D01*
X50722025Y-64309774D02*
X49922025Y-64309774D01*
X49922025Y-64309774D02*
X50493453Y-64576440D01*
X50493453Y-64576440D02*
X49922025Y-64843107D01*
X49922025Y-64843107D02*
X50722025Y-64843107D01*
X50493453Y-65185964D02*
X50493453Y-65566917D01*
X50722025Y-65109774D02*
X49922025Y-65376441D01*
X49922025Y-65376441D02*
X50722025Y-65643107D01*
X50722025Y-65909774D02*
X49922025Y-65909774D01*
X49922025Y-65909774D02*
X50722025Y-66366917D01*
X50722025Y-66366917D02*
X49922025Y-66366917D01*
X50493453Y-66709773D02*
X50493453Y-67090726D01*
X50722025Y-66633583D02*
X49922025Y-66900250D01*
X49922025Y-66900250D02*
X50722025Y-67166916D01*
X50722025Y-67433583D02*
X49922025Y-67433583D01*
X49922025Y-67433583D02*
X50722025Y-67890726D01*
X50722025Y-67890726D02*
X49922025Y-67890726D01*
X50493453Y-68843106D02*
X50493453Y-69224059D01*
X50722025Y-68766916D02*
X49922025Y-69033583D01*
X49922025Y-69033583D02*
X50722025Y-69300249D01*
X50302977Y-69833582D02*
X50341072Y-69947868D01*
X50341072Y-69947868D02*
X50379168Y-69985963D01*
X50379168Y-69985963D02*
X50455358Y-70024059D01*
X50455358Y-70024059D02*
X50569644Y-70024059D01*
X50569644Y-70024059D02*
X50645834Y-69985963D01*
X50645834Y-69985963D02*
X50683930Y-69947868D01*
X50683930Y-69947868D02*
X50722025Y-69871678D01*
X50722025Y-69871678D02*
X50722025Y-69566916D01*
X50722025Y-69566916D02*
X49922025Y-69566916D01*
X49922025Y-69566916D02*
X49922025Y-69833582D01*
X49922025Y-69833582D02*
X49960120Y-69909773D01*
X49960120Y-69909773D02*
X49998215Y-69947868D01*
X49998215Y-69947868D02*
X50074406Y-69985963D01*
X50074406Y-69985963D02*
X50150596Y-69985963D01*
X50150596Y-69985963D02*
X50226787Y-69947868D01*
X50226787Y-69947868D02*
X50264882Y-69909773D01*
X50264882Y-69909773D02*
X50302977Y-69833582D01*
X50302977Y-69833582D02*
X50302977Y-69566916D01*
X50722025Y-70366916D02*
X49922025Y-70366916D01*
X49922025Y-70366916D02*
X49922025Y-70557392D01*
X49922025Y-70557392D02*
X49960120Y-70671678D01*
X49960120Y-70671678D02*
X50036310Y-70747868D01*
X50036310Y-70747868D02*
X50112501Y-70785963D01*
X50112501Y-70785963D02*
X50264882Y-70824059D01*
X50264882Y-70824059D02*
X50379168Y-70824059D01*
X50379168Y-70824059D02*
X50531549Y-70785963D01*
X50531549Y-70785963D02*
X50607739Y-70747868D01*
X50607739Y-70747868D02*
X50683930Y-70671678D01*
X50683930Y-70671678D02*
X50722025Y-70557392D01*
X50722025Y-70557392D02*
X50722025Y-70366916D01*
X50302977Y-71166916D02*
X50302977Y-71433582D01*
X50722025Y-71547868D02*
X50722025Y-71166916D01*
X50722025Y-71166916D02*
X49922025Y-71166916D01*
X49922025Y-71166916D02*
X49922025Y-71547868D01*
X50722025Y-72271678D02*
X50722025Y-71890726D01*
X50722025Y-71890726D02*
X49922025Y-71890726D01*
X50722025Y-73605012D02*
X50341072Y-73338345D01*
X50722025Y-73147869D02*
X49922025Y-73147869D01*
X49922025Y-73147869D02*
X49922025Y-73452631D01*
X49922025Y-73452631D02*
X49960120Y-73528821D01*
X49960120Y-73528821D02*
X49998215Y-73566916D01*
X49998215Y-73566916D02*
X50074406Y-73605012D01*
X50074406Y-73605012D02*
X50188691Y-73605012D01*
X50188691Y-73605012D02*
X50264882Y-73566916D01*
X50264882Y-73566916D02*
X50302977Y-73528821D01*
X50302977Y-73528821D02*
X50341072Y-73452631D01*
X50341072Y-73452631D02*
X50341072Y-73147869D01*
X50493453Y-73909773D02*
X50493453Y-74290726D01*
X50722025Y-73833583D02*
X49922025Y-74100250D01*
X49922025Y-74100250D02*
X50722025Y-74366916D01*
X50722025Y-74633583D02*
X49922025Y-74633583D01*
X50302977Y-74633583D02*
X50302977Y-75090726D01*
X50722025Y-75090726D02*
X49922025Y-75090726D01*
X50722025Y-75471678D02*
X49922025Y-75471678D01*
X49922025Y-75471678D02*
X50493453Y-75738344D01*
X50493453Y-75738344D02*
X49922025Y-76005011D01*
X49922025Y-76005011D02*
X50722025Y-76005011D01*
X50493453Y-76347868D02*
X50493453Y-76728821D01*
X50722025Y-76271678D02*
X49922025Y-76538345D01*
X49922025Y-76538345D02*
X50722025Y-76805011D01*
X50722025Y-77071678D02*
X49922025Y-77071678D01*
X49922025Y-77071678D02*
X50722025Y-77528821D01*
X50722025Y-77528821D02*
X49922025Y-77528821D01*
X51781408Y-60005011D02*
X51781408Y-60385964D01*
X52009980Y-59928821D02*
X51209980Y-60195488D01*
X51209980Y-60195488D02*
X52009980Y-60462154D01*
X52009980Y-61109773D02*
X52009980Y-60728821D01*
X52009980Y-60728821D02*
X51209980Y-60728821D01*
X52009980Y-61376440D02*
X51209980Y-61376440D01*
X51209980Y-61376440D02*
X51209980Y-61681202D01*
X51209980Y-61681202D02*
X51248075Y-61757392D01*
X51248075Y-61757392D02*
X51286170Y-61795487D01*
X51286170Y-61795487D02*
X51362361Y-61833583D01*
X51362361Y-61833583D02*
X51476646Y-61833583D01*
X51476646Y-61833583D02*
X51552837Y-61795487D01*
X51552837Y-61795487D02*
X51590932Y-61757392D01*
X51590932Y-61757392D02*
X51629027Y-61681202D01*
X51629027Y-61681202D02*
X51629027Y-61376440D01*
X51590932Y-62176440D02*
X51590932Y-62443106D01*
X52009980Y-62557392D02*
X52009980Y-62176440D01*
X52009980Y-62176440D02*
X51209980Y-62176440D01*
X51209980Y-62176440D02*
X51209980Y-62557392D01*
X52009980Y-63357393D02*
X51629027Y-63090726D01*
X52009980Y-62900250D02*
X51209980Y-62900250D01*
X51209980Y-62900250D02*
X51209980Y-63205012D01*
X51209980Y-63205012D02*
X51248075Y-63281202D01*
X51248075Y-63281202D02*
X51286170Y-63319297D01*
X51286170Y-63319297D02*
X51362361Y-63357393D01*
X51362361Y-63357393D02*
X51476646Y-63357393D01*
X51476646Y-63357393D02*
X51552837Y-63319297D01*
X51552837Y-63319297D02*
X51590932Y-63281202D01*
X51590932Y-63281202D02*
X51629027Y-63205012D01*
X51629027Y-63205012D02*
X51629027Y-62900250D01*
X51590932Y-63700250D02*
X51590932Y-63966916D01*
X52009980Y-64081202D02*
X52009980Y-63700250D01*
X52009980Y-63700250D02*
X51209980Y-63700250D01*
X51209980Y-63700250D02*
X51209980Y-64081202D01*
X52009980Y-64424060D02*
X51209980Y-64424060D01*
X51209980Y-64424060D02*
X52009980Y-64881203D01*
X52009980Y-64881203D02*
X51209980Y-64881203D01*
X51971885Y-65833583D02*
X52009980Y-65947869D01*
X52009980Y-65947869D02*
X52009980Y-66138345D01*
X52009980Y-66138345D02*
X51971885Y-66214536D01*
X51971885Y-66214536D02*
X51933789Y-66252631D01*
X51933789Y-66252631D02*
X51857599Y-66290726D01*
X51857599Y-66290726D02*
X51781408Y-66290726D01*
X51781408Y-66290726D02*
X51705218Y-66252631D01*
X51705218Y-66252631D02*
X51667123Y-66214536D01*
X51667123Y-66214536D02*
X51629027Y-66138345D01*
X51629027Y-66138345D02*
X51590932Y-65985964D01*
X51590932Y-65985964D02*
X51552837Y-65909774D01*
X51552837Y-65909774D02*
X51514742Y-65871679D01*
X51514742Y-65871679D02*
X51438551Y-65833583D01*
X51438551Y-65833583D02*
X51362361Y-65833583D01*
X51362361Y-65833583D02*
X51286170Y-65871679D01*
X51286170Y-65871679D02*
X51248075Y-65909774D01*
X51248075Y-65909774D02*
X51209980Y-65985964D01*
X51209980Y-65985964D02*
X51209980Y-66176441D01*
X51209980Y-66176441D02*
X51248075Y-66290726D01*
X52048075Y-66062155D02*
X52086170Y-66138345D01*
X52086170Y-66138345D02*
X52162361Y-66176441D01*
X52162361Y-66176441D02*
X52238551Y-66138345D01*
X52238551Y-66138345D02*
X52276646Y-66062155D01*
X52276646Y-66062155D02*
X52276646Y-65947869D01*
X51781408Y-66595488D02*
X51781408Y-66976441D01*
X52009980Y-66519298D02*
X51209980Y-66785965D01*
X51209980Y-66785965D02*
X52009980Y-67052631D01*
X52009980Y-67319298D02*
X51209980Y-67319298D01*
X51590932Y-67319298D02*
X51590932Y-67776441D01*
X52009980Y-67776441D02*
X51209980Y-67776441D01*
X52009980Y-68157393D02*
X51209980Y-68157393D01*
X50943313Y-68157393D02*
X50981408Y-68119297D01*
X50981408Y-68119297D02*
X51019504Y-68157393D01*
X51019504Y-68157393D02*
X50981408Y-68195488D01*
X50981408Y-68195488D02*
X50943313Y-68157393D01*
X50943313Y-68157393D02*
X51019504Y-68157393D01*
X52009980Y-68538345D02*
X51209980Y-68538345D01*
X51209980Y-68538345D02*
X52009980Y-68995488D01*
X52009980Y-68995488D02*
X51209980Y-68995488D01*
X52574125Y-60005011D02*
X52536030Y-60043107D01*
X52536030Y-60043107D02*
X52497935Y-60119297D01*
X52497935Y-60119297D02*
X52497935Y-60309773D01*
X52497935Y-60309773D02*
X52536030Y-60385964D01*
X52536030Y-60385964D02*
X52574125Y-60424059D01*
X52574125Y-60424059D02*
X52650316Y-60462154D01*
X52650316Y-60462154D02*
X52726506Y-60462154D01*
X52726506Y-60462154D02*
X52840792Y-60424059D01*
X52840792Y-60424059D02*
X53297935Y-59966916D01*
X53297935Y-59966916D02*
X53297935Y-60462154D01*
X52497935Y-60957393D02*
X52497935Y-61033583D01*
X52497935Y-61033583D02*
X52536030Y-61109774D01*
X52536030Y-61109774D02*
X52574125Y-61147869D01*
X52574125Y-61147869D02*
X52650316Y-61185964D01*
X52650316Y-61185964D02*
X52802697Y-61224059D01*
X52802697Y-61224059D02*
X52993173Y-61224059D01*
X52993173Y-61224059D02*
X53145554Y-61185964D01*
X53145554Y-61185964D02*
X53221744Y-61147869D01*
X53221744Y-61147869D02*
X53259840Y-61109774D01*
X53259840Y-61109774D02*
X53297935Y-61033583D01*
X53297935Y-61033583D02*
X53297935Y-60957393D01*
X53297935Y-60957393D02*
X53259840Y-60881202D01*
X53259840Y-60881202D02*
X53221744Y-60843107D01*
X53221744Y-60843107D02*
X53145554Y-60805012D01*
X53145554Y-60805012D02*
X52993173Y-60766916D01*
X52993173Y-60766916D02*
X52802697Y-60766916D01*
X52802697Y-60766916D02*
X52650316Y-60805012D01*
X52650316Y-60805012D02*
X52574125Y-60843107D01*
X52574125Y-60843107D02*
X52536030Y-60881202D01*
X52536030Y-60881202D02*
X52497935Y-60957393D01*
X52574125Y-61528821D02*
X52536030Y-61566917D01*
X52536030Y-61566917D02*
X52497935Y-61643107D01*
X52497935Y-61643107D02*
X52497935Y-61833583D01*
X52497935Y-61833583D02*
X52536030Y-61909774D01*
X52536030Y-61909774D02*
X52574125Y-61947869D01*
X52574125Y-61947869D02*
X52650316Y-61985964D01*
X52650316Y-61985964D02*
X52726506Y-61985964D01*
X52726506Y-61985964D02*
X52840792Y-61947869D01*
X52840792Y-61947869D02*
X53297935Y-61490726D01*
X53297935Y-61490726D02*
X53297935Y-61985964D01*
X52497935Y-62671679D02*
X52497935Y-62519298D01*
X52497935Y-62519298D02*
X52536030Y-62443107D01*
X52536030Y-62443107D02*
X52574125Y-62405012D01*
X52574125Y-62405012D02*
X52688411Y-62328822D01*
X52688411Y-62328822D02*
X52840792Y-62290726D01*
X52840792Y-62290726D02*
X53145554Y-62290726D01*
X53145554Y-62290726D02*
X53221744Y-62328822D01*
X53221744Y-62328822D02*
X53259840Y-62366917D01*
X53259840Y-62366917D02*
X53297935Y-62443107D01*
X53297935Y-62443107D02*
X53297935Y-62595488D01*
X53297935Y-62595488D02*
X53259840Y-62671679D01*
X53259840Y-62671679D02*
X53221744Y-62709774D01*
X53221744Y-62709774D02*
X53145554Y-62747869D01*
X53145554Y-62747869D02*
X52955078Y-62747869D01*
X52955078Y-62747869D02*
X52878887Y-62709774D01*
X52878887Y-62709774D02*
X52840792Y-62671679D01*
X52840792Y-62671679D02*
X52802697Y-62595488D01*
X52802697Y-62595488D02*
X52802697Y-62443107D01*
X52802697Y-62443107D02*
X52840792Y-62366917D01*
X52840792Y-62366917D02*
X52878887Y-62328822D01*
X52878887Y-62328822D02*
X52955078Y-62290726D01*
X52459840Y-63662155D02*
X53488411Y-62976441D01*
X52497935Y-64081203D02*
X52497935Y-64157393D01*
X52497935Y-64157393D02*
X52536030Y-64233584D01*
X52536030Y-64233584D02*
X52574125Y-64271679D01*
X52574125Y-64271679D02*
X52650316Y-64309774D01*
X52650316Y-64309774D02*
X52802697Y-64347869D01*
X52802697Y-64347869D02*
X52993173Y-64347869D01*
X52993173Y-64347869D02*
X53145554Y-64309774D01*
X53145554Y-64309774D02*
X53221744Y-64271679D01*
X53221744Y-64271679D02*
X53259840Y-64233584D01*
X53259840Y-64233584D02*
X53297935Y-64157393D01*
X53297935Y-64157393D02*
X53297935Y-64081203D01*
X53297935Y-64081203D02*
X53259840Y-64005012D01*
X53259840Y-64005012D02*
X53221744Y-63966917D01*
X53221744Y-63966917D02*
X53145554Y-63928822D01*
X53145554Y-63928822D02*
X52993173Y-63890726D01*
X52993173Y-63890726D02*
X52802697Y-63890726D01*
X52802697Y-63890726D02*
X52650316Y-63928822D01*
X52650316Y-63928822D02*
X52574125Y-63966917D01*
X52574125Y-63966917D02*
X52536030Y-64005012D01*
X52536030Y-64005012D02*
X52497935Y-64081203D01*
X52497935Y-65071679D02*
X52497935Y-64690727D01*
X52497935Y-64690727D02*
X52878887Y-64652631D01*
X52878887Y-64652631D02*
X52840792Y-64690727D01*
X52840792Y-64690727D02*
X52802697Y-64766917D01*
X52802697Y-64766917D02*
X52802697Y-64957393D01*
X52802697Y-64957393D02*
X52840792Y-65033584D01*
X52840792Y-65033584D02*
X52878887Y-65071679D01*
X52878887Y-65071679D02*
X52955078Y-65109774D01*
X52955078Y-65109774D02*
X53145554Y-65109774D01*
X53145554Y-65109774D02*
X53221744Y-65071679D01*
X53221744Y-65071679D02*
X53259840Y-65033584D01*
X53259840Y-65033584D02*
X53297935Y-64957393D01*
X53297935Y-64957393D02*
X53297935Y-64766917D01*
X53297935Y-64766917D02*
X53259840Y-64690727D01*
X53259840Y-64690727D02*
X53221744Y-64652631D01*
M02*
