%TF.GenerationSoftware,KiCad,Pcbnew,9.0.6*%
%TF.CreationDate,2026-07-14T21:45:29+03:00*%
%TF.ProjectId,Ana_ESC2_OneGND_Layer,416e615f-4553-4433-925f-4f6e65474e44,rev?*%
%TF.SameCoordinates,Original*%
%TF.FileFunction,Copper,L4,Bot*%
%TF.FilePolarity,Positive*%
%FSLAX46Y46*%
G04 Gerber Fmt 4.6, Leading zero omitted, Abs format (unit mm)*
G04 Created by KiCad (PCBNEW 9.0.6) date 2026-07-14 21:45:29*
%MOMM*%
%LPD*%
G01*
G04 APERTURE LIST*
G04 Aperture macros list*
%AMRoundRect*
0 Rectangle with rounded corners*
0 $1 Rounding radius*
0 $2 $3 $4 $5 $6 $7 $8 $9 X,Y pos of 4 corners*
0 Add a 4 corners polygon primitive as box body*
4,1,4,$2,$3,$4,$5,$6,$7,$8,$9,$2,$3,0*
0 Add four circle primitives for the rounded corners*
1,1,$1+$1,$2,$3*
1,1,$1+$1,$4,$5*
1,1,$1+$1,$6,$7*
1,1,$1+$1,$8,$9*
0 Add four rect primitives between the rounded corners*
20,1,$1+$1,$2,$3,$4,$5,0*
20,1,$1+$1,$4,$5,$6,$7,0*
20,1,$1+$1,$6,$7,$8,$9,0*
20,1,$1+$1,$8,$9,$2,$3,0*%
G04 Aperture macros list end*
%TA.AperFunction,EtchedComponent*%
%ADD10C,0.000000*%
%TD*%
%TA.AperFunction,ComponentPad*%
%ADD11C,0.600000*%
%TD*%
%TA.AperFunction,ComponentPad*%
%ADD12R,3.000000X3.000000*%
%TD*%
%TA.AperFunction,ComponentPad*%
%ADD13C,3.000000*%
%TD*%
%TA.AperFunction,ComponentPad*%
%ADD14R,1.500000X1.500000*%
%TD*%
%TA.AperFunction,ComponentPad*%
%ADD15C,1.500000*%
%TD*%
%TA.AperFunction,ComponentPad*%
%ADD16R,1.700000X1.700000*%
%TD*%
%TA.AperFunction,ComponentPad*%
%ADD17C,1.700000*%
%TD*%
%TA.AperFunction,HeatsinkPad*%
%ADD18O,1.000000X2.100000*%
%TD*%
%TA.AperFunction,HeatsinkPad*%
%ADD19O,1.000000X1.800000*%
%TD*%
%TA.AperFunction,ComponentPad*%
%ADD20RoundRect,0.250001X-1.149999X1.149999X-1.149999X-1.149999X1.149999X-1.149999X1.149999X1.149999X0*%
%TD*%
%TA.AperFunction,ComponentPad*%
%ADD21C,2.800000*%
%TD*%
%TA.AperFunction,ViaPad*%
%ADD22C,0.900000*%
%TD*%
%TA.AperFunction,ViaPad*%
%ADD23C,0.600000*%
%TD*%
%TA.AperFunction,Conductor*%
%ADD24C,0.300000*%
%TD*%
%TA.AperFunction,Conductor*%
%ADD25C,0.250000*%
%TD*%
%TA.AperFunction,Conductor*%
%ADD26C,0.500000*%
%TD*%
%TA.AperFunction,Conductor*%
%ADD27C,0.400000*%
%TD*%
%TA.AperFunction,Conductor*%
%ADD28C,0.200000*%
%TD*%
%TA.AperFunction,Conductor*%
%ADD29C,0.800000*%
%TD*%
G04 APERTURE END LIST*
D10*
%TA.AperFunction,EtchedComponent*%
%TO.C,NT1*%
G36*
X136900000Y-77800000D02*
G01*
X136300000Y-77800000D01*
X136300000Y-76600000D01*
X136900000Y-76600000D01*
X136900000Y-77800000D01*
G37*
%TD.AperFunction*%
%TD*%
D11*
%TO.P,Batt-1,1*%
%TO.N,GND*%
X129800000Y-70300000D03*
X129800000Y-71800000D03*
X129800000Y-73300000D03*
X129800000Y-74800000D03*
X129800000Y-76300000D03*
X131300000Y-70300000D03*
X131300000Y-71800000D03*
X131300000Y-73300000D03*
X131300000Y-74800000D03*
X131300000Y-76300000D03*
X132800000Y-70300000D03*
X132800000Y-71800000D03*
X132800000Y-73300000D03*
X132800000Y-74800000D03*
X132800000Y-76300000D03*
X134300000Y-70300000D03*
X134300000Y-71800000D03*
X134300000Y-73300000D03*
X134300000Y-74800000D03*
X134300000Y-76300000D03*
X135800000Y-70300000D03*
X135800000Y-71800000D03*
X135800000Y-73300000D03*
X135800000Y-74800000D03*
X135800000Y-76300000D03*
X137300000Y-70300000D03*
X137300000Y-71800000D03*
X137300000Y-73300000D03*
X137300000Y-74800000D03*
X137300000Y-76300000D03*
%TD*%
%TO.P,Batt+1,1*%
%TO.N,VM*%
X129800000Y-80600000D03*
X129800000Y-82100000D03*
X129800000Y-83600000D03*
X129800000Y-85100000D03*
X129800000Y-86600000D03*
X131300000Y-80600000D03*
X131300000Y-82100000D03*
X131300000Y-83600000D03*
X131300000Y-85100000D03*
X131300000Y-86600000D03*
X132800000Y-80600000D03*
X132800000Y-82100000D03*
X132800000Y-83600000D03*
X132800000Y-85100000D03*
X132800000Y-86600000D03*
X134300000Y-80600000D03*
X134300000Y-82100000D03*
X134300000Y-83600000D03*
X134300000Y-85100000D03*
X134300000Y-86600000D03*
X135800000Y-80600000D03*
X135800000Y-82100000D03*
X135800000Y-83600000D03*
X135800000Y-85100000D03*
X135800000Y-86600000D03*
X137300000Y-80600000D03*
X137300000Y-82100000D03*
X137300000Y-83600000D03*
X137300000Y-85100000D03*
X137300000Y-86600000D03*
%TD*%
%TO.P,Q9,9,D_5*%
%TO.N,VM*%
X89588000Y-69325000D03*
X89588000Y-68425000D03*
X89588000Y-67525000D03*
X89588000Y-66625000D03*
X88688000Y-69325000D03*
X88688000Y-68425000D03*
X88688000Y-67525000D03*
X88688000Y-66625000D03*
X87788000Y-69325000D03*
X87788000Y-68425000D03*
X87788000Y-67525000D03*
X87788000Y-66625000D03*
X86888000Y-69325000D03*
X86888000Y-68425000D03*
X86888000Y-67525000D03*
X86888000Y-66625000D03*
X85988000Y-69325000D03*
X85988000Y-68425000D03*
X85988000Y-67525000D03*
X85988000Y-66625000D03*
%TD*%
D12*
%TO.P,C39,1,+*%
%TO.N,VM*%
X125450000Y-118200000D03*
D13*
%TO.P,C39,2,-*%
%TO.N,GND*%
X117950000Y-118200000D03*
%TD*%
D14*
%TO.P,C14,1,+*%
%TO.N,VM*%
X106900000Y-93850000D03*
D15*
%TO.P,C14,2,-*%
%TO.N,GND*%
X106900000Y-96350000D03*
%TD*%
D12*
%TO.P,C37,1,+*%
%TO.N,VM*%
X125350000Y-99600000D03*
D13*
%TO.P,C37,2,-*%
%TO.N,GND*%
X117850000Y-99600000D03*
%TD*%
D11*
%TO.P,Q10,9,D_5*%
%TO.N,/Gate_Driver/SHB*%
X94948600Y-65725000D03*
X94948600Y-66625000D03*
X94948600Y-67525000D03*
X94948600Y-68425000D03*
X95848600Y-65725000D03*
X95848600Y-66625000D03*
X95848600Y-67525000D03*
X95848600Y-68425000D03*
X96748600Y-65725000D03*
X96748600Y-66625000D03*
X96748600Y-67525000D03*
X96748600Y-68425000D03*
X97648600Y-65725000D03*
X97648600Y-66625000D03*
X97648600Y-67525000D03*
X97648600Y-68425000D03*
X98548600Y-65725000D03*
X98548600Y-66625000D03*
X98548600Y-67525000D03*
X98548600Y-68425000D03*
%TD*%
D16*
%TO.P,J4,1,Pin_1*%
%TO.N,+3.3V*%
X50400000Y-82200000D03*
D17*
%TO.P,J4,2,Pin_2*%
%TO.N,/MCU/SWDIO*%
X50400000Y-84740000D03*
%TO.P,J4,3,Pin_3*%
%TO.N,/MCU/SWCLK*%
X50400000Y-87280000D03*
%TO.P,J4,4,Pin_4*%
%TO.N,GND2*%
X50400000Y-89820000D03*
%TD*%
D18*
%TO.P,J2,S1,SHIELD*%
%TO.N,GND2*%
X66390000Y-134775000D03*
D19*
X66390000Y-138955000D03*
D18*
X75030000Y-134775000D03*
D19*
X75030000Y-138955000D03*
%TD*%
D11*
%TO.P,Q8,9,D_5*%
%TO.N,/Gate_Driver/SHA*%
X104448600Y-65725000D03*
X104448600Y-66625000D03*
X104448600Y-67525000D03*
X104448600Y-68425000D03*
X105348600Y-65725000D03*
X105348600Y-66625000D03*
X105348600Y-67525000D03*
X105348600Y-68425000D03*
X106248600Y-65725000D03*
X106248600Y-66625000D03*
X106248600Y-67525000D03*
X106248600Y-68425000D03*
X107148600Y-65725000D03*
X107148600Y-66625000D03*
X107148600Y-67525000D03*
X107148600Y-68425000D03*
X108048600Y-65725000D03*
X108048600Y-66625000D03*
X108048600Y-67525000D03*
X108048600Y-68425000D03*
%TD*%
D20*
%TO.P,J3,1,Pin_1*%
%TO.N,+3.3V*%
X53000000Y-120500000D03*
D21*
%TO.P,J3,2,Pin_2*%
%TO.N,/MCU/NTC_MTR*%
X53000000Y-125500000D03*
%TD*%
D11*
%TO.P,NT1,1,1*%
%TO.N,GND*%
X136600000Y-76600000D03*
%TO.P,NT1,2,2*%
%TO.N,GND2*%
X136600000Y-77800000D03*
%TD*%
%TO.P,Q11,9,D_5*%
%TO.N,VM*%
X80569800Y-69325000D03*
X80569800Y-68425000D03*
X80569800Y-67525000D03*
X80569800Y-66625000D03*
X79669800Y-69325000D03*
X79669800Y-68425000D03*
X79669800Y-67525000D03*
X79669800Y-66625000D03*
X78769800Y-69325000D03*
X78769800Y-68425000D03*
X78769800Y-67525000D03*
X78769800Y-66625000D03*
X77869800Y-69325000D03*
X77869800Y-68425000D03*
X77869800Y-67525000D03*
X77869800Y-66625000D03*
X76969800Y-69325000D03*
X76969800Y-68425000D03*
X76969800Y-67525000D03*
X76969800Y-66625000D03*
%TD*%
%TO.P,Q12,9,D_5*%
%TO.N,/Gate_Driver/SHC*%
X67609200Y-65725000D03*
X67609200Y-66625000D03*
X67609200Y-67525000D03*
X67609200Y-68425000D03*
X68509200Y-65725000D03*
X68509200Y-66625000D03*
X68509200Y-67525000D03*
X68509200Y-68425000D03*
X69409200Y-65725000D03*
X69409200Y-66625000D03*
X69409200Y-67525000D03*
X69409200Y-68425000D03*
X70309200Y-65725000D03*
X70309200Y-66625000D03*
X70309200Y-67525000D03*
X70309200Y-68425000D03*
X71209200Y-65725000D03*
X71209200Y-66625000D03*
X71209200Y-67525000D03*
X71209200Y-68425000D03*
%TD*%
%TO.P,Q7,9,D_5*%
%TO.N,VM*%
X117409200Y-69325000D03*
X117409200Y-68425000D03*
X117409200Y-67525000D03*
X117409200Y-66625000D03*
X116509200Y-69325000D03*
X116509200Y-68425000D03*
X116509200Y-67525000D03*
X116509200Y-66625000D03*
X115609200Y-69325000D03*
X115609200Y-68425000D03*
X115609200Y-67525000D03*
X115609200Y-66625000D03*
X114709200Y-69325000D03*
X114709200Y-68425000D03*
X114709200Y-67525000D03*
X114709200Y-66625000D03*
X113809200Y-69325000D03*
X113809200Y-68425000D03*
X113809200Y-67525000D03*
X113809200Y-66625000D03*
%TD*%
D22*
%TO.N,Net-(U1-CPL)*%
X99250000Y-101500000D03*
D23*
X95500000Y-96000000D03*
%TO.N,Net-(U1-CPH)*%
X96763565Y-96308970D03*
D22*
X100000000Y-99500000D03*
D23*
%TO.N,/Gate_Driver/DVDD*%
X85250000Y-98500000D03*
X77672498Y-97700000D03*
%TO.N,VM*%
X78000000Y-72500000D03*
X87000000Y-71000000D03*
X127000000Y-68000000D03*
X121000000Y-68000000D03*
X125500000Y-66500000D03*
X84000000Y-71000000D03*
X124000000Y-72500000D03*
X95750000Y-94000000D03*
X122500000Y-72500000D03*
X82500000Y-72500000D03*
X122500000Y-69500000D03*
X121000000Y-72500000D03*
X90000000Y-71000000D03*
X122500000Y-68000000D03*
X76500000Y-71000000D03*
X127000000Y-71000000D03*
X122500000Y-71000000D03*
X88500000Y-72500000D03*
X85500000Y-72500000D03*
X84000000Y-72500000D03*
X125500000Y-72500000D03*
X124000000Y-69500000D03*
X122500000Y-66500000D03*
X121000000Y-71000000D03*
X88500000Y-71000000D03*
X127000000Y-69500000D03*
X90000000Y-72500000D03*
X127000000Y-72500000D03*
X125500000Y-71000000D03*
X93237498Y-101000000D03*
X125500000Y-69500000D03*
X81000000Y-72500000D03*
X76500000Y-72500000D03*
X121000000Y-66500000D03*
X79500000Y-72500000D03*
X125500000Y-68000000D03*
X79500000Y-71000000D03*
X87000000Y-72500000D03*
X85500000Y-71000000D03*
X81000000Y-71000000D03*
X82500000Y-71000000D03*
X124000000Y-68000000D03*
X124000000Y-71000000D03*
X124000000Y-66500000D03*
X127000000Y-66500000D03*
X121000000Y-69500000D03*
X78000000Y-71000000D03*
%TO.N,GND*%
X91630025Y-93880025D03*
X90000000Y-76000000D03*
X113250000Y-81750000D03*
X82500000Y-81750000D03*
X113250000Y-75750000D03*
X78000000Y-76000000D03*
X76500000Y-79500000D03*
X87000000Y-76000000D03*
X76500000Y-78000000D03*
X88500000Y-81750000D03*
X90250000Y-94000000D03*
X84000000Y-81750000D03*
X87000000Y-79500000D03*
X79500000Y-79500000D03*
X95772500Y-101677500D03*
X114750000Y-78750000D03*
D22*
X107587500Y-103130000D03*
D23*
X76500000Y-76000000D03*
X101800000Y-96400000D03*
X88950000Y-94000000D03*
X104400000Y-103300000D03*
X114750000Y-75750000D03*
X88500000Y-78000000D03*
X114750000Y-80250000D03*
X92630025Y-95130025D03*
X90250000Y-92500000D03*
X114750000Y-77250000D03*
X88950000Y-95500000D03*
X93000000Y-92500000D03*
X114750000Y-81750000D03*
X82500000Y-76000000D03*
X85500000Y-76000000D03*
X116250000Y-80250000D03*
X90000000Y-79500000D03*
X90000000Y-78000000D03*
X91869975Y-95619975D03*
X116250000Y-81750000D03*
X90130025Y-95380025D03*
X79500000Y-78000000D03*
X81000000Y-81750000D03*
X113250000Y-78750000D03*
X111800000Y-89100000D03*
X113250000Y-77250000D03*
X88500000Y-76000000D03*
X87000000Y-81750000D03*
X90000000Y-81750000D03*
X116250000Y-78750000D03*
D22*
X105537500Y-111800000D03*
X108800000Y-95500000D03*
D23*
X116250000Y-77250000D03*
X84000000Y-76000000D03*
X78000000Y-81750000D03*
X87000000Y-78000000D03*
X85500000Y-81750000D03*
X79750000Y-90500000D03*
X81000000Y-76000000D03*
X88500000Y-79500000D03*
X116250000Y-75750000D03*
D22*
X100300000Y-113050000D03*
D23*
X78000000Y-79500000D03*
X79500000Y-76000000D03*
X88950000Y-92500000D03*
X78000000Y-78000000D03*
X91750000Y-92500000D03*
X79500000Y-81750000D03*
X93244975Y-94244975D03*
X113250000Y-80250000D03*
X73750000Y-91000000D03*
X76500000Y-81750000D03*
X96837500Y-87775000D03*
%TO.N,/Gate_Driver/kdk*%
X92500000Y-99000000D03*
X94500000Y-108000000D03*
%TO.N,MCU_PWR*%
X70250000Y-125250000D03*
X80500000Y-122750000D03*
X101350433Y-106049570D03*
X89000000Y-106500000D03*
%TO.N,+3.3V*%
X52500000Y-108000000D03*
X69000000Y-93750000D03*
X73490000Y-111000000D03*
X60700000Y-101100000D03*
X83250000Y-91000000D03*
X63500000Y-135750000D03*
X81750000Y-125000000D03*
X73701487Y-100467611D03*
%TO.N,/Gate_Driver/SENS1*%
X61500000Y-108900000D03*
X109412500Y-103130000D03*
%TO.N,/Gate_Driver/SENS2*%
X98000000Y-90750000D03*
X63500000Y-110137500D03*
%TO.N,/Gate_Driver/SENS3*%
X70400000Y-92600000D03*
X73430000Y-107939872D03*
%TO.N,/MCU/NTC_FET*%
X64500000Y-69900000D03*
X56500000Y-114700000D03*
%TO.N,/MCU/RST*%
X52750000Y-101000000D03*
X55220000Y-103387500D03*
%TO.N,/MCU/VBus*%
X116087501Y-137843752D03*
X64100000Y-136800000D03*
%TO.N,/MCU/UART_P*%
X76500001Y-122000001D03*
X74500000Y-95000000D03*
X74884305Y-113288626D03*
%TO.N,/MCU/UART_N*%
X77000000Y-95850003D03*
X77250000Y-123000000D03*
X75500000Y-112000000D03*
%TO.N,/MCU/SWDIO*%
X72285429Y-99795331D03*
%TO.N,/MCU/SWCLK*%
X71636531Y-99246299D03*
%TO.N,/MCU/I2C1_SCL*%
X84240380Y-106340380D03*
X103500000Y-132900000D03*
X80700000Y-104855310D03*
%TO.N,/Gate_Driver/SHA*%
X112500000Y-56750000D03*
X111000000Y-59750000D03*
X108000000Y-58250000D03*
X112500000Y-55250000D03*
X114000000Y-56750000D03*
X111000000Y-53750000D03*
X102300000Y-86500000D03*
X114000000Y-58250000D03*
X112500000Y-58250000D03*
X114000000Y-55250000D03*
X106500000Y-53750000D03*
X106500000Y-58250000D03*
X108000000Y-53750000D03*
X111000000Y-56750000D03*
X108000000Y-59750000D03*
X109500000Y-53750000D03*
X106500000Y-55250000D03*
X112500000Y-59750000D03*
X111000000Y-55250000D03*
X109500000Y-58250000D03*
X108000000Y-55250000D03*
X104100000Y-98600000D03*
X114000000Y-59750000D03*
X102250000Y-92250000D03*
X109500000Y-59750000D03*
X108000000Y-56750000D03*
X111000000Y-58250000D03*
X114000000Y-53750000D03*
X106500000Y-56750000D03*
X109500000Y-56750000D03*
X109500000Y-55250000D03*
X106500000Y-59750000D03*
X112500000Y-53750000D03*
%TO.N,/Gate_Driver/SHB*%
X96000000Y-55250000D03*
X93000000Y-59750000D03*
X96000000Y-59750000D03*
X97500000Y-59750000D03*
X96750000Y-89500000D03*
X90000000Y-55250000D03*
X91500000Y-53750000D03*
X97500000Y-53750000D03*
X90000000Y-59750000D03*
X94500000Y-55250000D03*
X90000000Y-56750000D03*
X93000000Y-53750000D03*
X94500000Y-53750000D03*
X90000000Y-53750000D03*
X96000000Y-58250000D03*
X97500000Y-55250000D03*
X97500000Y-56750000D03*
X91500000Y-55250000D03*
X94500000Y-58250000D03*
X94500000Y-59750000D03*
X94750000Y-85750000D03*
X96000000Y-53750000D03*
X97500000Y-58250000D03*
X96000000Y-56750000D03*
X94500000Y-56750000D03*
X91500000Y-59750000D03*
X91500000Y-58250000D03*
X93000000Y-55250000D03*
X93000000Y-58250000D03*
X90000000Y-58250000D03*
X91500000Y-56750000D03*
X93000000Y-56750000D03*
%TO.N,/Gate_Driver/SPB*%
X94000000Y-82000000D03*
X94000000Y-89000000D03*
%TO.N,/Gate_Driver/SHC*%
X89750000Y-88500000D03*
X74750000Y-55250000D03*
X73250000Y-58250000D03*
X70250000Y-53750000D03*
X76250000Y-53750000D03*
X77750000Y-55250000D03*
X76250000Y-58250000D03*
X77750000Y-58250000D03*
X73250000Y-55250000D03*
X71750000Y-58250000D03*
X71750000Y-55250000D03*
X70250000Y-55250000D03*
X73250000Y-56750000D03*
X76250000Y-59750000D03*
X74750000Y-56750000D03*
X76250000Y-55250000D03*
X71750000Y-59750000D03*
X74750000Y-59750000D03*
X77750000Y-59750000D03*
X73250000Y-59750000D03*
X73750000Y-89500000D03*
X70250000Y-59750000D03*
X71750000Y-53750000D03*
X71750000Y-56750000D03*
X74750000Y-53750000D03*
X70250000Y-58250000D03*
X77750000Y-56750000D03*
X77750000Y-53750000D03*
X70250000Y-56750000D03*
X73250000Y-53750000D03*
X74750000Y-58250000D03*
X76250000Y-56750000D03*
%TO.N,/Gate_Driver/FAULT*%
X82300000Y-92460000D03*
X79320002Y-97699999D03*
%TO.N,/Gate_Driver/SDO*%
X83665380Y-95165380D03*
X86200000Y-93100000D03*
X73368647Y-93693048D03*
D22*
%TO.N,/Gate_Driver/FB*%
X95482743Y-98350003D03*
D23*
X95454434Y-96909029D03*
%TO.N,/MCU/BOOT0*%
X54500000Y-109000000D03*
X65750000Y-96250000D03*
%TO.N,/Gate_Driver/SOA*%
X86500000Y-91000000D03*
X61698130Y-106425000D03*
%TO.N,/Gate_Driver/INHC*%
X85115383Y-104215377D03*
X75000000Y-103500000D03*
%TO.N,/Gate_Driver/SOB*%
X86500000Y-90000000D03*
X60698130Y-105925000D03*
%TO.N,/Gate_Driver/Enable*%
X77294241Y-105294238D03*
X82000000Y-99000000D03*
%TO.N,/Gate_Driver/INHA*%
X85500000Y-99750000D03*
X76250000Y-104500000D03*
%TO.N,/Gate_Driver/SOC*%
X59962912Y-105425000D03*
X86500000Y-89125000D03*
%TO.N,/Gate_Driver/INLC*%
X83250000Y-107000000D03*
X67250000Y-110250000D03*
%TO.N,/Gate_Driver/INHB*%
X83125000Y-104250000D03*
X73390945Y-103900000D03*
%TO.N,/Gate_Driver/INLA*%
X62400000Y-102700000D03*
X83000000Y-101750000D03*
%TO.N,/Gate_Driver/INLB*%
X66600000Y-109459311D03*
X81750000Y-106000000D03*
%TO.N,/Gate_Driver/CAL*%
X73351350Y-105302645D03*
X83334620Y-97834620D03*
%TO.N,Net-(U3-PB12)*%
X93250000Y-123750000D03*
X81000000Y-109250000D03*
X76854102Y-107217654D03*
%TO.N,Net-(U3-PB13)*%
X81750000Y-108750000D03*
X77438061Y-106600000D03*
X93352298Y-120647702D03*
%TO.N,Net-(U3-PB14)*%
X78007425Y-105756701D03*
X82415380Y-108165380D03*
X93250000Y-117750000D03*
%TO.N,/MCU/I2C1_SDA*%
X66500002Y-95500000D03*
X99250000Y-130750000D03*
%TO.N,GND2*%
X99237195Y-122291791D03*
X87500000Y-126250000D03*
X55220000Y-101312500D03*
X68700000Y-139000000D03*
X65500000Y-106500000D03*
X70594500Y-135850000D03*
X69500000Y-102900000D03*
X85862500Y-119200002D03*
X119000000Y-136250000D03*
X99212500Y-117750000D03*
X52430000Y-112500000D03*
D22*
X78000000Y-128200000D03*
D23*
X99212500Y-123750000D03*
X67500000Y-104500000D03*
X60499999Y-97499999D03*
X71800000Y-108800000D03*
X69500000Y-104500000D03*
X75000000Y-120862500D03*
X59200000Y-108500000D03*
X63600000Y-116900000D03*
X70210000Y-128600000D03*
X62637500Y-97537500D03*
X58566117Y-104450000D03*
X67500000Y-106500000D03*
D22*
X78900000Y-133100000D03*
D23*
X65500000Y-104500000D03*
X65500000Y-102900000D03*
X99250000Y-133500000D03*
X67500000Y-102900000D03*
X52500000Y-102500000D03*
X86150000Y-123587500D03*
X62000000Y-99637500D03*
X70500000Y-113000000D03*
X61750000Y-111862500D03*
X70500000Y-117000000D03*
X70500000Y-115250000D03*
X55500000Y-99287500D03*
X108775000Y-134500000D03*
X80750000Y-118250000D03*
X60000000Y-111862500D03*
X59600000Y-123500000D03*
X75300000Y-128600000D03*
X73500000Y-98500000D03*
X72700000Y-138900000D03*
X69500000Y-106500000D03*
X51000000Y-92000000D03*
%TO.N,/Gate_Driver/nSCS*%
X82840476Y-94960350D03*
X69423811Y-109080106D03*
%TO.N,Net-(J2-CC2)*%
X72000000Y-132750000D03*
X67500000Y-132500000D03*
%TO.N,Net-(J2-CC1)*%
X67250000Y-130500000D03*
X69000000Y-131750000D03*
%TD*%
D24*
%TO.N,Net-(U1-CPL)*%
X99250000Y-101500000D02*
X99250000Y-100838908D01*
X98975000Y-100175000D02*
X98947487Y-100147487D01*
X98452512Y-98952512D02*
X95500000Y-96000000D01*
X98452512Y-98952512D02*
G75*
G02*
X98699993Y-99550000I-597512J-597488D01*
G01*
X98947487Y-100147487D02*
G75*
G02*
X98700007Y-99550000I597513J597487D01*
G01*
X98975000Y-100175000D02*
G75*
G02*
X99249996Y-100838908I-663900J-663900D01*
G01*
D25*
%TO.N,Net-(U1-CPH)*%
X96763565Y-96308970D02*
X96763565Y-96357535D01*
X99875000Y-99500000D02*
X100000000Y-99500000D01*
D24*
X99661611Y-99411611D02*
X96890292Y-96640292D01*
D25*
X96814303Y-96456838D02*
X96797905Y-96440440D01*
X96763565Y-96357535D02*
G75*
G03*
X96797925Y-96440420I117235J35D01*
G01*
D24*
X99661611Y-99411611D02*
G75*
G03*
X99875000Y-99499993I213389J213411D01*
G01*
D25*
X96852298Y-96548565D02*
G75*
G03*
X96814281Y-96456860I-129698J-35D01*
G01*
D24*
X96852298Y-96548565D02*
G75*
G03*
X96890279Y-96640305I129702J-35D01*
G01*
D25*
%TO.N,VM*%
X93237498Y-101000000D02*
X93368749Y-100868749D01*
X93500000Y-100551881D02*
X93500000Y-99159010D01*
X93500000Y-98005742D02*
X93500000Y-98335247D01*
X93500000Y-98005742D02*
X93500000Y-97840990D01*
X93500000Y-98500000D02*
X93500000Y-99159010D01*
X95750000Y-94000000D02*
X94625000Y-95125000D01*
X93500000Y-98335247D02*
X93500000Y-98500000D01*
X93500000Y-100551881D02*
G75*
G02*
X93368755Y-100868755I-448100J-19D01*
G01*
X93500000Y-97840990D02*
G75*
G02*
X94625003Y-95125003I3841000J-10D01*
G01*
%TO.N,/Gate_Driver/kdk*%
X92500000Y-103812500D02*
X92500000Y-104187500D01*
X92500000Y-104750000D02*
X92500000Y-105000000D01*
X92500000Y-103500000D02*
X92500000Y-103812500D01*
X94500000Y-108000000D02*
X92853553Y-106353553D01*
X92500000Y-105000000D02*
X92500000Y-105250000D01*
X92500000Y-104500000D02*
X92500000Y-104750000D01*
X92500000Y-105437500D02*
X92500000Y-105500000D01*
X92500000Y-105312500D02*
X92500000Y-105250000D01*
X92500000Y-104250000D02*
X92500000Y-104500000D01*
X92500000Y-102500000D02*
X92500000Y-103500000D01*
X92500000Y-99000000D02*
X92500000Y-102500000D01*
X92500000Y-105312500D02*
X92500000Y-105437500D01*
X92500000Y-104250000D02*
X92500000Y-104187500D01*
X92853553Y-106353553D02*
G75*
G02*
X92499998Y-105500000I853547J853553D01*
G01*
D26*
%TO.N,MCU_PWR*%
X71000000Y-124500000D02*
X70250000Y-125250000D01*
X80500000Y-122750000D02*
X79625000Y-123625000D01*
X77512563Y-124500000D02*
X71000000Y-124500000D01*
X79625000Y-123625000D02*
G75*
G02*
X77512563Y-124499955I-2112400J2112500D01*
G01*
D27*
%TO.N,+3.3V*%
X52500000Y-108000000D02*
X52500000Y-110292893D01*
X53250000Y-120250000D02*
X53000000Y-120500000D01*
X53500000Y-119646446D02*
X53500000Y-112707106D01*
X58940380Y-101559619D02*
X52500000Y-108000000D01*
X60050000Y-101100000D02*
X60700000Y-101100000D01*
X53000000Y-111500000D02*
G75*
G02*
X53499997Y-112707106I-1207100J-1207100D01*
G01*
X53250000Y-120250000D02*
G75*
G03*
X53500019Y-119646446I-603600J603600D01*
G01*
X60050000Y-101100000D02*
G75*
G03*
X58940389Y-101559628I0J-1569200D01*
G01*
X53000000Y-111500000D02*
G75*
G02*
X52500003Y-110292893I1207100J1207100D01*
G01*
D25*
%TO.N,/Gate_Driver/SENS1*%
X90442419Y-109085753D02*
X90642390Y-109123591D01*
X85469888Y-105689480D02*
X85619878Y-105760419D01*
X103858936Y-108075907D02*
X104018055Y-107949015D01*
X69991370Y-110136775D02*
X70500000Y-109628145D01*
X109109092Y-103130302D02*
X109141249Y-103130000D01*
X102052584Y-108987800D02*
X102247062Y-108927810D01*
X86046477Y-106016113D02*
X86179745Y-106114951D01*
X101457611Y-109123601D02*
X101657582Y-109085763D01*
X86308003Y-106220209D02*
X86430941Y-106331634D01*
X88404821Y-108196753D02*
X88572976Y-108311399D01*
X86430941Y-106331634D02*
X86489949Y-106389949D01*
X86489949Y-106389949D02*
X87706207Y-107606207D01*
X91248826Y-109191923D02*
X91452203Y-109199534D01*
X103178450Y-108521448D02*
X103354704Y-108419688D01*
X109141249Y-103130000D02*
X109412500Y-103130000D01*
X79755282Y-106538694D02*
X79895625Y-106440425D01*
X104018055Y-107949015D02*
X104172317Y-107816262D01*
X61500000Y-108900000D02*
X65850000Y-108900000D01*
X80283905Y-106226000D02*
X81375000Y-105134905D01*
X89284853Y-108704841D02*
X89471391Y-108786227D01*
X89101489Y-108616537D02*
X89284853Y-108704841D01*
X79310446Y-106795524D02*
X79462414Y-106716413D01*
X70500000Y-109628145D02*
X70500000Y-109000000D01*
X89852940Y-108927800D02*
X90047418Y-108987790D01*
X101657582Y-109085763D02*
X101855999Y-109040475D01*
X84513800Y-105424895D02*
X84677924Y-105449240D01*
X108678195Y-103321803D02*
X108701135Y-103299267D01*
X76179102Y-107497249D02*
X76574507Y-107892654D01*
X100851173Y-109191933D02*
X101054124Y-109176723D01*
X108920465Y-103167811D02*
X108982010Y-103149145D01*
X84223810Y-105134905D02*
X84513800Y-105424895D01*
X101256364Y-109153935D02*
X101457611Y-109123601D01*
X100546036Y-109200000D02*
X100647796Y-109199545D01*
X90642390Y-109123591D02*
X90843636Y-109153925D01*
X104321508Y-107677833D02*
X104393792Y-107606207D01*
X104393792Y-107606207D02*
X108678195Y-103321803D01*
X90843636Y-109153925D02*
X91045876Y-109176713D01*
X87927689Y-107816254D02*
X88081951Y-107949007D01*
X79462414Y-106716413D02*
X79610787Y-106630749D01*
X108861046Y-103192421D02*
X108920465Y-103167811D01*
X78255672Y-107850298D02*
X79310446Y-106795524D01*
X76179102Y-107414848D02*
X76179102Y-107497249D01*
X108982010Y-103149145D02*
X109045088Y-103136601D01*
X66750000Y-108500000D02*
X67250000Y-109000000D01*
X72300000Y-107200000D02*
X75964254Y-107200000D01*
X89471391Y-108786227D02*
X89660842Y-108860582D01*
X81375000Y-105134905D02*
X84223810Y-105134905D01*
X84677924Y-105449240D02*
X84840656Y-105481609D01*
X102247062Y-108927810D02*
X102439161Y-108860592D01*
X109045088Y-103136601D02*
X109109092Y-103130302D01*
X88745301Y-108419678D02*
X88921554Y-108521438D01*
X102628612Y-108786237D02*
X102815150Y-108704851D01*
X88921554Y-108521438D02*
X89101489Y-108616537D01*
X101054124Y-109176723D02*
X101256364Y-109153935D01*
X85001603Y-105521925D02*
X85160378Y-105570088D01*
X102815150Y-108704851D02*
X102998515Y-108616546D01*
X103695185Y-108196762D02*
X103858936Y-108075907D01*
X77133697Y-107892654D02*
X77176053Y-107850298D01*
X100647796Y-109199545D02*
X100851173Y-109191933D01*
X87778499Y-107677825D02*
X87927689Y-107816254D01*
X79610787Y-106630749D02*
X79755282Y-106538694D01*
X79895625Y-106440425D02*
X80031548Y-106336127D01*
X91452203Y-109199534D02*
X91553963Y-109200000D01*
X86179745Y-106114951D02*
X86308003Y-106220209D01*
X108701135Y-103299267D02*
X108750851Y-103258467D01*
X88241069Y-108075899D02*
X88404821Y-108196753D01*
X80162791Y-106226000D02*
X80283905Y-106226000D01*
X103354704Y-108419688D02*
X103527029Y-108311408D01*
X84840656Y-105481609D02*
X85001603Y-105521925D01*
X103527029Y-108311408D02*
X103695185Y-108196762D01*
X108804326Y-103222737D02*
X108861046Y-103192421D01*
X87706207Y-107606207D02*
X87778499Y-107677825D01*
X101855999Y-109040475D02*
X102052584Y-108987800D01*
X91045876Y-109176713D02*
X91248826Y-109191923D01*
X85160378Y-105570088D02*
X85316599Y-105625985D01*
X108750851Y-103258467D02*
X108804326Y-103222737D01*
X85908520Y-105923933D02*
X86046477Y-106016113D01*
X67250000Y-109000000D02*
X68295405Y-109000000D01*
X90047418Y-108987790D02*
X90244002Y-109040465D01*
X90244002Y-109040465D02*
X90442419Y-109085753D01*
X88572976Y-108311399D02*
X88745301Y-108419678D01*
X69432180Y-110136775D02*
X69991370Y-110136775D01*
X65850000Y-108900000D02*
X66250000Y-108500000D01*
X76574507Y-107892654D02*
X77133697Y-107892654D01*
X102439161Y-108860592D02*
X102628612Y-108786237D01*
X91553963Y-109200000D02*
X100546036Y-109200000D01*
X89660842Y-108860582D02*
X89852940Y-108927800D01*
X102998515Y-108616546D02*
X103178450Y-108521448D01*
X85766206Y-105838633D02*
X85908520Y-105923933D01*
X104172317Y-107816262D02*
X104321508Y-107677833D01*
X88081951Y-107949007D02*
X88241069Y-108075899D01*
X77176053Y-107850298D02*
X78255672Y-107850298D01*
X85316599Y-105625985D02*
X85469888Y-105689480D01*
X80031548Y-106336127D02*
X80162791Y-106226000D01*
X75964254Y-107200000D02*
X76179102Y-107414848D01*
X68295405Y-109000000D02*
X69432180Y-110136775D01*
X66250000Y-108500000D02*
X66750000Y-108500000D01*
X70500000Y-109000000D02*
X72300000Y-107200000D01*
X85619878Y-105760419D02*
X85766206Y-105838633D01*
%TO.N,/MCU/RST*%
X55178750Y-103387500D02*
X55220000Y-103387500D01*
X55108331Y-103358331D02*
X52750000Y-101000000D01*
X55178750Y-103387500D02*
G75*
G02*
X55108353Y-103358309I50J99600D01*
G01*
D28*
%TO.N,/MCU/UART_P*%
X75530330Y-115280330D02*
X75750000Y-115500000D01*
X76500001Y-117310661D02*
X76500001Y-122000001D01*
X74884305Y-113288626D02*
X75000000Y-113404321D01*
X75000000Y-113404321D02*
X75000000Y-114000000D01*
X75750000Y-115500000D02*
G75*
G02*
X76500016Y-117310661I-1810700J-1810700D01*
G01*
X75000000Y-114000000D02*
G75*
G03*
X75530322Y-115280338I1810700J0D01*
G01*
%TO.N,/MCU/UART_N*%
X75484305Y-114250000D02*
X75500000Y-114234305D01*
X75500000Y-114234305D02*
X75500000Y-112000000D01*
X77250000Y-123000000D02*
X77250000Y-117505113D01*
X76362500Y-115362500D02*
X75722489Y-114722489D01*
X75722489Y-114722489D02*
G75*
G02*
X75475007Y-114125000I597511J597489D01*
G01*
X77250000Y-117505113D02*
G75*
G03*
X76362504Y-115362496I-3030100J13D01*
G01*
D25*
%TO.N,/MCU/I2C1_SCL*%
X103700000Y-132558578D02*
X103700000Y-132338755D01*
X103500000Y-132900000D02*
X103600000Y-132800000D01*
X102816116Y-124916116D02*
X84240380Y-106340380D01*
X103700000Y-132338755D02*
X103700000Y-127050000D01*
X103600000Y-132800000D02*
G75*
G03*
X103699991Y-132558578I-241400J241400D01*
G01*
X103700000Y-127050000D02*
G75*
G03*
X102816123Y-124916109I-3017800J0D01*
G01*
%TO.N,/Gate_Driver/SHA*%
X104100000Y-98600000D02*
X103850000Y-98350000D01*
D28*
X102275000Y-86525000D02*
X102300000Y-86500000D01*
D25*
X103600000Y-97746446D02*
X103600000Y-94554594D01*
X102925000Y-92925000D02*
X102250000Y-92250000D01*
D28*
X106248600Y-68588200D02*
X106248600Y-68425000D01*
X102250000Y-86585355D02*
X102250000Y-92250000D01*
D25*
X102925000Y-92925000D02*
G75*
G02*
X103600002Y-94554594I-1629600J-1629600D01*
G01*
D28*
X102275000Y-86525000D02*
G75*
G03*
X102249982Y-86585355I60400J-60400D01*
G01*
D25*
X103850000Y-98350000D02*
G75*
G02*
X103600022Y-97746446I603500J603500D01*
G01*
D28*
%TO.N,/Gate_Driver/SHB*%
X94750000Y-85750000D02*
X95125000Y-86125000D01*
X95500000Y-87030330D02*
X95500000Y-88646446D01*
X96750000Y-89500000D02*
X96353553Y-89500000D01*
X95500000Y-88646446D02*
G75*
G03*
X95749984Y-89250016I853500J-54D01*
G01*
X95500000Y-87030330D02*
G75*
G03*
X95125009Y-86124991I-1280300J30D01*
G01*
X95750000Y-89250000D02*
G75*
G03*
X96353553Y-89500019I603600J603600D01*
G01*
D25*
%TO.N,/Gate_Driver/SPB*%
X94000000Y-89000000D02*
X94000000Y-82000000D01*
%TO.N,/Gate_Driver/SHC*%
X89451256Y-88325000D02*
X76255850Y-88325000D01*
X74837500Y-88912500D02*
X74426776Y-89323223D01*
X74000000Y-89500000D02*
X73750000Y-89500000D01*
X89750000Y-88500000D02*
X89662500Y-88412500D01*
X74000000Y-89500000D02*
G75*
G03*
X74426786Y-89323233I0J603600D01*
G01*
X74837500Y-88912500D02*
G75*
G02*
X76255850Y-88325021I1418300J-1418300D01*
G01*
X89451256Y-88325000D02*
G75*
G02*
X89662513Y-88412487I44J-298700D01*
G01*
D28*
%TO.N,/Gate_Driver/SDO*%
X83900000Y-95400000D02*
X83665380Y-95165380D01*
X86250000Y-94150000D02*
X85000000Y-95400000D01*
X86200000Y-93100000D02*
X86225000Y-93125000D01*
X86250000Y-93185355D02*
X86250000Y-94150000D01*
X85000000Y-95400000D02*
X83900000Y-95400000D01*
X86225000Y-93125000D02*
G75*
G02*
X86250018Y-93185355I-60400J-60400D01*
G01*
D25*
%TO.N,/Gate_Driver/FB*%
X95500000Y-96986815D02*
X95500000Y-98320543D01*
X95482743Y-98350003D02*
X95491371Y-98341374D01*
X95454434Y-96909029D02*
X95477217Y-96931812D01*
X95500000Y-96986815D02*
G75*
G03*
X95477227Y-96931802I-77800J15D01*
G01*
X95500000Y-98320543D02*
G75*
G02*
X95491358Y-98341361I-29500J43D01*
G01*
%TO.N,/MCU/BOOT0*%
X54500000Y-108625000D02*
X54500000Y-109000000D01*
X57725000Y-104499998D02*
X57725000Y-104622702D01*
X59209467Y-103540532D02*
X65484834Y-97265165D01*
X58522702Y-103825000D02*
X58399998Y-103825000D01*
X57440532Y-105309467D02*
X54765164Y-107984834D01*
X65750000Y-96250000D02*
X65750000Y-96625000D01*
X59209467Y-103540532D02*
G75*
G02*
X58522702Y-103825010I-686767J686732D01*
G01*
X57725000Y-104499998D02*
G75*
G02*
X57922703Y-104022703I675000J-2D01*
G01*
X54500000Y-108625000D02*
G75*
G02*
X54765171Y-107984841I905300J0D01*
G01*
X65750000Y-96625000D02*
G75*
G02*
X65484828Y-97265159I-905300J0D01*
G01*
X57922702Y-104022702D02*
G75*
G02*
X58399998Y-103824999I477298J-477298D01*
G01*
X57725000Y-104622702D02*
G75*
G02*
X57440525Y-105309460I-971200J2D01*
G01*
%TO.N,/Gate_Driver/SOA*%
X80746036Y-94250000D02*
X74230004Y-94250000D01*
X86161611Y-91088388D02*
X84593792Y-92656206D01*
X61698130Y-106425000D02*
X61698130Y-106086137D01*
X86375000Y-91000000D02*
X86500000Y-91000000D01*
X73410584Y-94589415D02*
X65971078Y-102028921D01*
X61937741Y-105507663D02*
X65024326Y-102421078D01*
X65497702Y-102225000D02*
G75*
G03*
X65971086Y-102028929I-2J669500D01*
G01*
X61937741Y-105507663D02*
G75*
G03*
X61698151Y-106086137I578459J-578437D01*
G01*
X73410584Y-94589415D02*
G75*
G02*
X74230004Y-94249993I819416J-819385D01*
G01*
X80746036Y-94250000D02*
G75*
G03*
X84593785Y-92656199I-36J5441600D01*
G01*
X86375000Y-91000000D02*
G75*
G03*
X86161607Y-91088384I0J-301800D01*
G01*
X65497702Y-102225000D02*
G75*
G03*
X65024316Y-102421068I-2J-669500D01*
G01*
%TO.N,/Gate_Driver/INHC*%
X85115383Y-104215377D02*
X83900006Y-103000000D01*
X83900006Y-103000000D02*
X75500000Y-103000000D01*
X75500000Y-103000000D02*
X75000000Y-103500000D01*
%TO.N,/Gate_Driver/SOB*%
X73315097Y-93018048D02*
X73484227Y-93018048D01*
X60918439Y-105081560D02*
X72746382Y-93253617D01*
X81646572Y-93250000D02*
X74044208Y-93250000D01*
X60698130Y-105613435D02*
X60698130Y-105925000D01*
X84383792Y-92116207D02*
X86500000Y-90000000D01*
X84383792Y-92116207D02*
G75*
G02*
X81646572Y-93249985I-2737192J2737207D01*
G01*
X73484227Y-93018048D02*
G75*
G02*
X73764201Y-93134041I-27J-395952D01*
G01*
X73315097Y-93018048D02*
G75*
G03*
X72746390Y-93253625I3J-804252D01*
G01*
X60698130Y-105613435D02*
G75*
G02*
X60918425Y-105081546I752170J35D01*
G01*
X74044208Y-93250000D02*
G75*
G02*
X73764207Y-93134035I-8J396000D01*
G01*
%TO.N,/Gate_Driver/SOC*%
X60000000Y-104716658D02*
X60000000Y-105361686D01*
X70701612Y-93343792D02*
X60474647Y-103570757D01*
X82933546Y-91750000D02*
X74549368Y-91750000D01*
X85930959Y-89273635D02*
X83823027Y-91381565D01*
X86500000Y-89125000D02*
X86289797Y-89125000D01*
X59962912Y-105425000D02*
X59981456Y-105406456D01*
X85930959Y-89273635D02*
G75*
G02*
X86289797Y-89125005I358841J-358865D01*
G01*
X59981456Y-105406456D02*
G75*
G03*
X59999995Y-105361686I-44756J44756D01*
G01*
X83823027Y-91381565D02*
G75*
G02*
X82933546Y-91750037I-889527J889465D01*
G01*
X70701612Y-93343792D02*
G75*
G02*
X74549368Y-91749963I3847788J-3847708D01*
G01*
X60000000Y-104716658D02*
G75*
G02*
X60474678Y-103570788I1620500J-42D01*
G01*
D28*
%TO.N,/Gate_Driver/INLC*%
X78578607Y-109836226D02*
X78765145Y-109754839D01*
X68378680Y-110250000D02*
X69090455Y-110961775D01*
X77206363Y-110203923D02*
X77407609Y-110173589D01*
X81558058Y-107441941D02*
X81596470Y-107404164D01*
X67250000Y-110250000D02*
X68378680Y-110250000D01*
X79968047Y-108999005D02*
X80122309Y-108866253D01*
X79477022Y-109361398D02*
X79645178Y-109246752D01*
X71044871Y-110250000D02*
X76496036Y-110250000D01*
X81764158Y-107269035D02*
X81854801Y-107210783D01*
X82148334Y-107076732D02*
X82251717Y-107046376D01*
X70333096Y-110961775D02*
X71044871Y-110250000D01*
X82463653Y-107008139D02*
X82571126Y-107000453D01*
X82571126Y-107000453D02*
X82625000Y-107000000D01*
X76801173Y-110241921D02*
X77004123Y-110226711D01*
X79808929Y-109125898D02*
X79968047Y-108999005D01*
X82047380Y-107114386D02*
X82148334Y-107076732D01*
X77805996Y-110090463D02*
X78002581Y-110037788D01*
X76597796Y-110249532D02*
X76801173Y-110241921D01*
X81854801Y-107210783D02*
X81949369Y-107159145D01*
X81949369Y-107159145D02*
X82047380Y-107114386D01*
X77004123Y-110226711D02*
X77206363Y-110203923D01*
X78948510Y-109666535D02*
X79128444Y-109571437D01*
X81677901Y-107333605D02*
X81764158Y-107269035D01*
X69090455Y-110961775D02*
X70333096Y-110961775D01*
X79128444Y-109571437D02*
X79304697Y-109469677D01*
X80122309Y-108866253D02*
X80271499Y-108727824D01*
X79645178Y-109246752D02*
X79808929Y-109125898D01*
X82625000Y-107000000D02*
X83250000Y-107000000D01*
X78197058Y-109977799D02*
X78389157Y-109910580D01*
X80271499Y-108727824D02*
X80343792Y-108656207D01*
X82251717Y-107046376D02*
X82357002Y-107023473D01*
X78765145Y-109754839D02*
X78948510Y-109666535D01*
X76496036Y-110250000D02*
X76597796Y-110249532D01*
X79304697Y-109469677D02*
X79477022Y-109361398D01*
X78002581Y-110037788D02*
X78197058Y-109977799D01*
X82357002Y-107023473D02*
X82463653Y-107008139D01*
X78389157Y-109910580D02*
X78578607Y-109836226D01*
X80343792Y-108656207D02*
X81558058Y-107441941D01*
X81596470Y-107404164D02*
X81677901Y-107333605D01*
X77407609Y-110173589D02*
X77607580Y-110135751D01*
X77607580Y-110135751D02*
X77805996Y-110090463D01*
D25*
%TO.N,/Gate_Driver/INHB*%
X74720405Y-104175000D02*
X74370405Y-103825000D01*
X83090155Y-104215155D02*
X83081879Y-104206857D01*
X76529595Y-103825000D02*
X75629595Y-103825000D01*
X83006031Y-104180310D02*
X76884905Y-104180310D01*
X74370405Y-103825000D02*
X73465945Y-103825000D01*
X76884905Y-104180310D02*
X76529595Y-103825000D01*
X83062392Y-104193833D02*
X83040738Y-104184860D01*
X83040738Y-104184860D02*
X83017751Y-104180282D01*
X73465945Y-103825000D02*
X73390945Y-103900000D01*
X83081879Y-104206857D02*
X83062392Y-104193833D01*
X83017751Y-104180282D02*
X83006031Y-104180310D01*
X75629595Y-103825000D02*
X75279595Y-104175000D01*
X83125000Y-104250000D02*
X83090155Y-104215155D01*
X75279595Y-104175000D02*
X74720405Y-104175000D01*
D28*
%TO.N,/Gate_Driver/INLB*%
X68194365Y-109500000D02*
X69256140Y-110561775D01*
X78265145Y-109004839D02*
X78448510Y-108916535D01*
X76706363Y-109453923D02*
X76907609Y-109423589D01*
X70167410Y-110561775D02*
X71229185Y-109500000D01*
X79145178Y-108496752D02*
X79308929Y-108375898D01*
X76301173Y-109491921D02*
X76504123Y-109476711D01*
X69256140Y-110561775D02*
X70167410Y-110561775D01*
X66636523Y-109492162D02*
X66649177Y-109497408D01*
X79843792Y-107906207D02*
X81750000Y-106000000D01*
X78448510Y-108916535D02*
X78628444Y-108821437D01*
X77305996Y-109340463D02*
X77502581Y-109287788D01*
X78977022Y-108611398D02*
X79145178Y-108496752D01*
X66649177Y-109497408D02*
X66662611Y-109500086D01*
X75996036Y-109500000D02*
X76097796Y-109499532D01*
X78078607Y-109086226D02*
X78265145Y-109004839D01*
X78628444Y-108821437D02*
X78804697Y-108719677D01*
X79771499Y-107977824D02*
X79843792Y-107906207D01*
X66600000Y-109459311D02*
X66620344Y-109479655D01*
X79308929Y-108375898D02*
X79468047Y-108249005D01*
X66662611Y-109500086D02*
X66669460Y-109500000D01*
X66620344Y-109479655D02*
X66625135Y-109484550D01*
X78804697Y-108719677D02*
X78977022Y-108611398D01*
X77697058Y-109227799D02*
X77889157Y-109160580D01*
X76907609Y-109423589D02*
X77107580Y-109385751D01*
X77107580Y-109385751D02*
X77305996Y-109340463D01*
X77889157Y-109160580D02*
X78078607Y-109086226D01*
X76097796Y-109499532D02*
X76301173Y-109491921D01*
X79622309Y-108116253D02*
X79771499Y-107977824D01*
X79468047Y-108249005D02*
X79622309Y-108116253D01*
X71229185Y-109500000D02*
X75996036Y-109500000D01*
X77502581Y-109287788D02*
X77697058Y-109227799D01*
X66625135Y-109484550D02*
X66636523Y-109492162D01*
X76504123Y-109476711D02*
X76706363Y-109453923D01*
X66669460Y-109500000D02*
X68194365Y-109500000D01*
%TO.N,/Gate_Driver/CAL*%
X83334620Y-99265380D02*
X80200000Y-102400000D01*
X75106562Y-102400000D02*
X72900000Y-102400000D01*
X76872000Y-102052758D02*
X75453804Y-102052758D01*
X75453804Y-102052758D02*
X75106562Y-102400000D01*
X72400000Y-102900000D02*
X72400000Y-104351295D01*
X77219242Y-102400000D02*
X76872000Y-102052758D01*
X72900000Y-102400000D02*
X72400000Y-102900000D01*
X72400000Y-104351295D02*
X73351350Y-105302645D01*
X80200000Y-102400000D02*
X77219242Y-102400000D01*
X83334620Y-97834620D02*
X83334620Y-99265380D01*
D25*
%TO.N,Net-(U3-PB12)*%
X81000000Y-109250000D02*
X92454504Y-120704504D01*
X93250000Y-123750000D02*
X93250000Y-122625000D01*
X92454504Y-120704504D02*
G75*
G02*
X93249997Y-122625000I-1920504J-1920496D01*
G01*
%TO.N,Net-(U3-PB13)*%
X81750000Y-108750000D02*
X93247856Y-120247856D01*
X93352298Y-120500000D02*
X93352298Y-120647702D01*
X93352298Y-120500000D02*
G75*
G03*
X93247859Y-120247853I-356598J0D01*
G01*
%TO.N,Net-(U3-PB14)*%
X91558058Y-117308058D02*
X82415380Y-108165380D01*
X93250000Y-117750000D02*
X92625000Y-117750000D01*
X92625000Y-117750000D02*
G75*
G02*
X91558055Y-117308061I0J1508900D01*
G01*
D29*
%TO.N,GND2*%
X78900000Y-129736396D02*
X78900000Y-133100000D01*
X78450000Y-128650000D02*
X78000000Y-128200000D01*
X78900000Y-129736396D02*
G75*
G03*
X78449999Y-128650001I-1536400J-4D01*
G01*
D25*
%TO.N,/Gate_Driver/nSCS*%
X75155521Y-101750000D02*
X72250000Y-101750000D01*
X79258041Y-99682129D02*
X79250432Y-99827309D01*
X80012087Y-97988541D02*
X79914809Y-98096578D01*
X72250000Y-101750000D02*
X71250000Y-102750000D01*
X79585993Y-98574998D02*
X79519991Y-98704532D01*
X79460860Y-98837342D02*
X79408759Y-98973065D01*
X79737864Y-98327172D02*
X79658684Y-98449097D01*
X79823317Y-98209558D02*
X79737864Y-98327172D01*
X79658684Y-98449097D02*
X79585993Y-98574998D01*
X79250000Y-100731798D02*
X78356798Y-101625000D01*
X69423811Y-109076189D02*
X69423811Y-109080106D01*
X75280521Y-101625000D02*
X75155521Y-101750000D01*
X79273237Y-99537546D02*
X79258041Y-99682129D01*
X79408759Y-98973065D02*
X79363834Y-99111329D01*
X80063172Y-97936827D02*
X80012087Y-97988541D01*
X82840476Y-94960350D02*
X82840476Y-95159523D01*
X82840476Y-95159523D02*
X80063172Y-97936827D01*
X79250432Y-99827309D02*
X79250000Y-99899999D01*
X78356798Y-101625000D02*
X75280521Y-101625000D01*
X79250000Y-99899999D02*
X79250000Y-100731798D01*
X79914809Y-98096578D02*
X79823317Y-98209558D01*
X71250000Y-107250000D02*
X69423811Y-109076189D01*
X79295980Y-99393957D02*
X79273237Y-99537546D01*
X79363834Y-99111329D02*
X79326207Y-99251754D01*
X79326207Y-99251754D02*
X79295980Y-99393957D01*
X79519991Y-98704532D02*
X79460860Y-98837342D01*
X71250000Y-102750000D02*
X71250000Y-107250000D01*
%TO.N,Net-(J2-CC2)*%
X72000000Y-132750000D02*
X67750000Y-132750000D01*
X67750000Y-132750000D02*
X67500000Y-132500000D01*
%TO.N,Net-(J2-CC1)*%
X68500000Y-131750000D02*
X67250000Y-130500000D01*
X69000000Y-131750000D02*
X68500000Y-131750000D01*
%TD*%
%TA.AperFunction,Conductor*%
%TO.N,/Gate_Driver/SHB*%
G36*
X98732249Y-65201061D02*
G01*
X98837413Y-65214906D01*
X98868681Y-65223284D01*
X98959108Y-65260740D01*
X98987142Y-65276925D01*
X99064792Y-65336509D01*
X99087681Y-65359398D01*
X99147264Y-65437048D01*
X99163449Y-65465081D01*
X99200905Y-65555508D01*
X99209283Y-65586775D01*
X99223129Y-65691939D01*
X99224190Y-65708125D01*
X99224190Y-68391874D01*
X99223129Y-68408059D01*
X99223129Y-68408060D01*
X99209283Y-68513224D01*
X99200905Y-68544491D01*
X99163449Y-68634918D01*
X99147264Y-68662951D01*
X99087681Y-68740601D01*
X99064791Y-68763491D01*
X98987141Y-68823074D01*
X98959108Y-68839259D01*
X98868681Y-68876715D01*
X98837414Y-68885093D01*
X98743588Y-68897446D01*
X98732248Y-68898939D01*
X98716064Y-68900000D01*
X94932316Y-68900000D01*
X94916131Y-68898939D01*
X94903107Y-68897224D01*
X94810965Y-68885093D01*
X94779698Y-68876715D01*
X94689271Y-68839259D01*
X94661238Y-68823074D01*
X94583588Y-68763491D01*
X94560698Y-68740601D01*
X94501115Y-68662951D01*
X94484930Y-68634918D01*
X94447474Y-68544491D01*
X94439096Y-68513223D01*
X94425251Y-68408059D01*
X94424190Y-68391874D01*
X94424190Y-65708125D01*
X94425251Y-65691940D01*
X94439096Y-65586776D01*
X94439096Y-65586775D01*
X94447474Y-65555508D01*
X94484930Y-65465081D01*
X94501113Y-65437050D01*
X94560703Y-65359392D01*
X94583582Y-65336513D01*
X94661240Y-65276923D01*
X94689269Y-65260740D01*
X94779699Y-65223283D01*
X94810965Y-65214906D01*
X94916131Y-65201061D01*
X94932316Y-65200000D01*
X98716064Y-65200000D01*
X98732249Y-65201061D01*
G37*
%TD.AperFunction*%
%TD*%
%TA.AperFunction,Conductor*%
%TO.N,/Gate_Driver/SHC*%
G36*
X71308059Y-65201061D02*
G01*
X71413223Y-65214906D01*
X71444491Y-65223284D01*
X71534918Y-65260740D01*
X71562952Y-65276925D01*
X71640602Y-65336509D01*
X71663491Y-65359398D01*
X71723074Y-65437048D01*
X71739259Y-65465081D01*
X71776715Y-65555508D01*
X71785093Y-65586775D01*
X71798939Y-65691939D01*
X71800000Y-65708125D01*
X71800000Y-68391874D01*
X71798939Y-68408059D01*
X71798939Y-68408060D01*
X71785093Y-68513224D01*
X71776715Y-68544491D01*
X71739259Y-68634918D01*
X71723074Y-68662951D01*
X71663491Y-68740601D01*
X71640601Y-68763491D01*
X71562951Y-68823074D01*
X71534918Y-68839259D01*
X71444491Y-68876715D01*
X71413224Y-68885093D01*
X71319398Y-68897446D01*
X71308058Y-68898939D01*
X71291874Y-68900000D01*
X67508126Y-68900000D01*
X67491941Y-68898939D01*
X67478917Y-68897224D01*
X67386775Y-68885093D01*
X67355508Y-68876715D01*
X67265081Y-68839259D01*
X67237048Y-68823074D01*
X67159398Y-68763491D01*
X67136508Y-68740601D01*
X67076925Y-68662951D01*
X67060740Y-68634918D01*
X67023284Y-68544491D01*
X67014906Y-68513223D01*
X67001061Y-68408059D01*
X67000000Y-68391874D01*
X67000000Y-65708125D01*
X67001061Y-65691940D01*
X67014906Y-65586776D01*
X67014906Y-65586775D01*
X67023284Y-65555508D01*
X67060740Y-65465081D01*
X67076923Y-65437050D01*
X67136513Y-65359392D01*
X67159392Y-65336513D01*
X67237050Y-65276923D01*
X67265079Y-65260740D01*
X67355509Y-65223283D01*
X67386775Y-65214906D01*
X67491941Y-65201061D01*
X67508126Y-65200000D01*
X71291874Y-65200000D01*
X71308059Y-65201061D01*
G37*
%TD.AperFunction*%
%TD*%
%TA.AperFunction,Conductor*%
%TO.N,/Gate_Driver/SHC*%
G36*
X81418863Y-52515330D02*
G01*
X81464618Y-52568134D01*
X81475753Y-52615485D01*
X81564131Y-55249728D01*
X81777468Y-61608544D01*
X81760043Y-61676206D01*
X81708803Y-61723706D01*
X81654565Y-61736698D01*
X66218506Y-61864594D01*
X66151306Y-61845465D01*
X66105115Y-61793042D01*
X66093491Y-61738881D01*
X66220036Y-52617923D01*
X66240649Y-52551165D01*
X66294082Y-52506147D01*
X66344024Y-52495645D01*
X81351824Y-52495645D01*
X81418863Y-52515330D01*
G37*
%TD.AperFunction*%
%TD*%
%TA.AperFunction,Conductor*%
%TO.N,/Gate_Driver/SHA*%
G36*
X117915781Y-52508776D02*
G01*
X117961536Y-52561580D01*
X117972671Y-52608931D01*
X118061049Y-55243174D01*
X118274386Y-61601990D01*
X118256961Y-61669652D01*
X118205721Y-61717152D01*
X118151483Y-61730144D01*
X102715424Y-61858040D01*
X102648224Y-61838911D01*
X102602033Y-61786488D01*
X102590409Y-61732327D01*
X102716954Y-52611369D01*
X102737567Y-52544611D01*
X102791000Y-52499593D01*
X102840942Y-52489091D01*
X117848742Y-52489091D01*
X117915781Y-52508776D01*
G37*
%TD.AperFunction*%
%TD*%
%TA.AperFunction,Conductor*%
%TO.N,/Gate_Driver/SHB*%
G36*
X101405159Y-52513691D02*
G01*
X101450914Y-52566495D01*
X101462049Y-52613846D01*
X101550427Y-55248089D01*
X101763764Y-61606905D01*
X101746339Y-61674567D01*
X101695099Y-61722067D01*
X101640861Y-61735059D01*
X86204802Y-61862955D01*
X86137602Y-61843826D01*
X86091411Y-61791403D01*
X86079787Y-61737242D01*
X86206332Y-52616284D01*
X86226945Y-52549526D01*
X86280378Y-52504508D01*
X86330320Y-52494006D01*
X101338120Y-52494006D01*
X101405159Y-52513691D01*
G37*
%TD.AperFunction*%
%TD*%
%TA.AperFunction,Conductor*%
%TO.N,/Gate_Driver/SHA*%
G36*
X108183769Y-65201061D02*
G01*
X108288933Y-65214906D01*
X108320201Y-65223284D01*
X108410628Y-65260740D01*
X108438662Y-65276925D01*
X108516312Y-65336509D01*
X108539201Y-65359398D01*
X108598784Y-65437048D01*
X108614969Y-65465081D01*
X108652425Y-65555508D01*
X108660803Y-65586775D01*
X108674649Y-65691939D01*
X108675710Y-65708125D01*
X108675710Y-68391874D01*
X108674649Y-68408059D01*
X108674649Y-68408060D01*
X108660803Y-68513224D01*
X108652425Y-68544491D01*
X108614969Y-68634918D01*
X108598784Y-68662951D01*
X108539201Y-68740601D01*
X108516311Y-68763491D01*
X108438661Y-68823074D01*
X108410628Y-68839259D01*
X108320201Y-68876715D01*
X108288934Y-68885093D01*
X108195108Y-68897446D01*
X108183768Y-68898939D01*
X108167584Y-68900000D01*
X104383836Y-68900000D01*
X104367651Y-68898939D01*
X104354627Y-68897224D01*
X104262485Y-68885093D01*
X104231218Y-68876715D01*
X104140791Y-68839259D01*
X104112758Y-68823074D01*
X104035108Y-68763491D01*
X104012218Y-68740601D01*
X103952635Y-68662951D01*
X103936450Y-68634918D01*
X103898994Y-68544491D01*
X103890616Y-68513223D01*
X103876771Y-68408059D01*
X103875710Y-68391874D01*
X103875710Y-65708125D01*
X103876771Y-65691940D01*
X103890616Y-65586776D01*
X103890616Y-65586775D01*
X103898994Y-65555508D01*
X103936450Y-65465081D01*
X103952633Y-65437050D01*
X104012223Y-65359392D01*
X104035102Y-65336513D01*
X104112760Y-65276923D01*
X104140789Y-65260740D01*
X104231219Y-65223283D01*
X104262485Y-65214906D01*
X104367651Y-65201061D01*
X104383836Y-65200000D01*
X108167584Y-65200000D01*
X108183769Y-65201061D01*
G37*
%TD.AperFunction*%
%TD*%
%TA.AperFunction,Conductor*%
%TO.N,VM*%
G36*
X93866707Y-65519685D02*
G01*
X93912462Y-65572489D01*
X93923071Y-65636151D01*
X93920835Y-65658850D01*
X93919773Y-65675057D01*
X93919773Y-65675058D01*
X93919349Y-65688020D01*
X93918690Y-65708139D01*
X93918690Y-68391859D01*
X93919773Y-68424942D01*
X93920834Y-68441131D01*
X93924077Y-68474049D01*
X93937920Y-68579198D01*
X93950820Y-68644054D01*
X93959198Y-68675323D01*
X93980452Y-68737934D01*
X93980456Y-68737945D01*
X94017904Y-68828354D01*
X94047160Y-68887680D01*
X94063339Y-68915702D01*
X94063340Y-68915703D01*
X94100075Y-68970680D01*
X94159658Y-69048330D01*
X94192129Y-69085355D01*
X94203260Y-69098048D01*
X94226140Y-69120928D01*
X94226146Y-69120933D01*
X94275859Y-69164531D01*
X94353509Y-69224114D01*
X94353515Y-69224118D01*
X94408486Y-69260849D01*
X94436508Y-69277028D01*
X94436512Y-69277030D01*
X94436519Y-69277034D01*
X94495825Y-69306280D01*
X94495830Y-69306282D01*
X94495834Y-69306284D01*
X94541038Y-69325008D01*
X94586252Y-69343736D01*
X94648864Y-69364990D01*
X94680131Y-69373368D01*
X94744981Y-69386268D01*
X94844060Y-69399312D01*
X94850131Y-69400112D01*
X94850147Y-69400114D01*
X94883064Y-69403356D01*
X94899249Y-69404417D01*
X94932316Y-69405500D01*
X94932330Y-69405500D01*
X98716050Y-69405500D01*
X98716064Y-69405500D01*
X98749133Y-69404417D01*
X98765317Y-69403356D01*
X98798232Y-69400114D01*
X98903398Y-69386268D01*
X98968248Y-69373368D01*
X98999515Y-69364990D01*
X99062127Y-69343736D01*
X99152554Y-69306280D01*
X99211860Y-69277034D01*
X99239893Y-69260849D01*
X99294870Y-69224114D01*
X99372520Y-69164531D01*
X99422233Y-69120933D01*
X99445123Y-69098043D01*
X99488721Y-69048330D01*
X99548304Y-68970680D01*
X99585039Y-68915703D01*
X99601224Y-68887670D01*
X99630470Y-68828364D01*
X99667926Y-68737937D01*
X99689180Y-68675325D01*
X99697558Y-68644058D01*
X99710458Y-68579209D01*
X99724304Y-68474045D01*
X99727546Y-68441125D01*
X99728607Y-68424939D01*
X99729690Y-68391874D01*
X99729690Y-65708125D01*
X99728607Y-65675060D01*
X99727546Y-65658874D01*
X99725308Y-65636153D01*
X99738326Y-65567510D01*
X99786390Y-65516799D01*
X99848711Y-65500000D01*
X103251188Y-65500000D01*
X103318227Y-65519685D01*
X103363982Y-65572489D01*
X103374591Y-65636151D01*
X103372355Y-65658850D01*
X103371293Y-65675057D01*
X103371293Y-65675058D01*
X103370869Y-65688020D01*
X103370210Y-65708139D01*
X103370210Y-68391859D01*
X103371293Y-68424942D01*
X103372354Y-68441131D01*
X103375597Y-68474049D01*
X103389440Y-68579198D01*
X103402340Y-68644054D01*
X103410718Y-68675323D01*
X103431972Y-68737934D01*
X103431976Y-68737945D01*
X103469424Y-68828354D01*
X103498680Y-68887680D01*
X103514859Y-68915702D01*
X103514860Y-68915703D01*
X103551595Y-68970680D01*
X103611178Y-69048330D01*
X103643649Y-69085355D01*
X103654780Y-69098048D01*
X103677660Y-69120928D01*
X103677666Y-69120933D01*
X103727379Y-69164531D01*
X103805029Y-69224114D01*
X103805035Y-69224118D01*
X103860006Y-69260849D01*
X103888028Y-69277028D01*
X103888032Y-69277030D01*
X103888039Y-69277034D01*
X103947345Y-69306280D01*
X103947350Y-69306282D01*
X103947354Y-69306284D01*
X103992558Y-69325008D01*
X104037772Y-69343736D01*
X104100384Y-69364990D01*
X104131651Y-69373368D01*
X104196501Y-69386268D01*
X104295580Y-69399312D01*
X104301651Y-69400112D01*
X104301667Y-69400114D01*
X104334584Y-69403356D01*
X104350769Y-69404417D01*
X104383836Y-69405500D01*
X104383850Y-69405500D01*
X108167570Y-69405500D01*
X108167584Y-69405500D01*
X108200653Y-69404417D01*
X108216837Y-69403356D01*
X108249752Y-69400114D01*
X108354918Y-69386268D01*
X108419768Y-69373368D01*
X108451035Y-69364990D01*
X108513647Y-69343736D01*
X108604074Y-69306280D01*
X108663380Y-69277034D01*
X108691413Y-69260849D01*
X108746390Y-69224114D01*
X108824040Y-69164531D01*
X108873753Y-69120933D01*
X108896643Y-69098043D01*
X108940241Y-69048330D01*
X108999824Y-68970680D01*
X109036559Y-68915703D01*
X109052744Y-68887670D01*
X109081990Y-68828364D01*
X109119446Y-68737937D01*
X109140700Y-68675325D01*
X109149078Y-68644058D01*
X109161978Y-68579209D01*
X109175824Y-68474045D01*
X109179066Y-68441125D01*
X109180127Y-68424939D01*
X109181210Y-68391874D01*
X109181210Y-65708125D01*
X109180127Y-65675060D01*
X109179066Y-65658874D01*
X109176828Y-65636153D01*
X109189846Y-65567510D01*
X109237910Y-65516799D01*
X109300231Y-65500000D01*
X128287789Y-65500000D01*
X128311971Y-65502381D01*
X128352346Y-65510412D01*
X128397043Y-65528927D01*
X128420913Y-65544877D01*
X128455122Y-65579086D01*
X128471072Y-65602956D01*
X128489588Y-65647655D01*
X128497617Y-65688020D01*
X128500000Y-65712210D01*
X128500000Y-73287789D01*
X128497617Y-73311979D01*
X128497617Y-73311982D01*
X128489588Y-73352344D01*
X128471072Y-73397043D01*
X128455122Y-73420913D01*
X128420913Y-73455122D01*
X128397043Y-73471072D01*
X128352344Y-73489588D01*
X128335841Y-73492870D01*
X128311978Y-73497617D01*
X128287789Y-73500000D01*
X75212211Y-73500000D01*
X75188020Y-73497617D01*
X75172744Y-73494578D01*
X75147656Y-73489588D01*
X75102956Y-73471072D01*
X75079086Y-73455122D01*
X75044877Y-73420913D01*
X75028927Y-73397043D01*
X75010412Y-73352346D01*
X75002381Y-73311971D01*
X75000000Y-73287789D01*
X75000000Y-65712210D01*
X75002381Y-65688029D01*
X75010412Y-65647651D01*
X75028927Y-65602956D01*
X75044877Y-65579086D01*
X75079086Y-65544877D01*
X75102956Y-65528927D01*
X75147653Y-65510412D01*
X75188027Y-65502381D01*
X75212211Y-65500000D01*
X93799668Y-65500000D01*
X93866707Y-65519685D01*
G37*
%TD.AperFunction*%
%TD*%
M02*
