M48
; DRILL file {KiCad 9.0.6} date 2026-05-14T13:36:55+0300
; FORMAT={-:-/ absolute / metric / decimal}
; #@! TF.CreationDate,2026-05-14T13:36:55+03:00
; #@! TF.GenerationSoftware,Kicad,Pcbnew,9.0.6
; #@! TF.FileFunction,Plated,1,4,PTH
FMAT,2
METRIC
; #@! TA.AperFunction,Plated,PTH,ViaDrill
T1C0.300
; #@! TA.AperFunction,Plated,PTH,ComponentDrill
T2C0.300
; #@! TA.AperFunction,Plated,PTH,ComponentDrill
T3C0.500
; #@! TA.AperFunction,Plated,PTH,ComponentDrill
T4C0.600
; #@! TA.AperFunction,Plated,PTH,ComponentDrill
T5C0.750
; #@! TA.AperFunction,Plated,PTH,ComponentDrill
T6C1.067
; #@! TA.AperFunction,Plated,PTH,ComponentDrill
T7C1.300
%
G90
G05
T1
X51.0Y-92.0
X52.43Y-112.5
X52.5Y-102.5
X52.5Y-108.0
X52.75Y-101.0
X54.5Y-109.0
X55.22Y-101.312
X55.22Y-103.387
X55.5Y-99.287
X56.5Y-114.7
X58.566Y-104.45
X59.2Y-108.5
X59.6Y-123.5
X59.963Y-105.425
X60.0Y-111.862
X60.5Y-97.5
X60.698Y-105.925
X60.7Y-101.1
X61.5Y-108.9
X61.698Y-106.425
X61.75Y-111.862
X62.0Y-99.637
X62.4Y-102.7
X62.637Y-97.537
X63.5Y-110.137
X63.6Y-116.9
X64.1Y-136.8
X64.5Y-69.9
X65.5Y-102.9
X65.5Y-104.5
X65.5Y-106.5
X65.75Y-96.25
X66.5Y-95.5
X66.6Y-109.459
X67.25Y-110.25
X67.5Y-102.9
X67.5Y-104.5
X67.5Y-106.5
X68.7Y-139.0
X68.75Y-53.75
X68.75Y-55.25
X68.75Y-56.75
X68.75Y-58.25
X68.75Y-59.75
X69.0Y-93.75
X69.5Y-102.9
X69.5Y-104.5
X69.5Y-106.5
X70.21Y-128.6
X70.25Y-53.75
X70.25Y-55.25
X70.25Y-56.75
X70.25Y-58.25
X70.25Y-59.75
X70.25Y-124.5
X70.4Y-92.6
X70.5Y-113.55
X70.5Y-115.2
X70.5Y-117.2
X70.5Y-136.1
X71.637Y-99.246
X71.7Y-121.0
X71.75Y-53.75
X71.75Y-55.25
X71.75Y-56.75
X71.75Y-58.25
X71.75Y-59.75
X71.8Y-108.8
X72.285Y-99.795
X72.6Y-121.1
X72.7Y-138.9
X73.25Y-53.75
X73.25Y-55.25
X73.25Y-56.75
X73.25Y-58.25
X73.25Y-59.75
X73.369Y-93.693
X73.391Y-104.18
X73.43Y-107.887
X73.49Y-111.0
X73.5Y-98.5
X73.515Y-103.226
X73.701Y-100.468
X73.75Y-89.5
X73.75Y-91.0
X74.5Y-95.0
X74.75Y-53.75
X74.75Y-55.25
X74.75Y-56.75
X74.75Y-58.25
X74.75Y-59.75
X75.0Y-113.25
X75.0Y-120.862
X75.3Y-128.6
X75.75Y-103.0
X76.0Y-113.25
X76.25Y-53.75
X76.25Y-55.25
X76.25Y-56.75
X76.25Y-58.25
X76.25Y-59.75
X76.5Y-71.0
X76.5Y-72.5
X76.5Y-76.0
X76.5Y-78.0
X76.5Y-79.5
X76.5Y-81.75
X76.5Y-122.0
X76.6Y-103.0
X77.0Y-95.85
X77.25Y-123.0
X77.672Y-97.7
X77.75Y-53.75
X77.75Y-55.25
X77.75Y-56.75
X77.75Y-58.25
X77.75Y-59.75
X78.0Y-71.0
X78.0Y-72.5
X78.0Y-76.0
X78.0Y-78.0
X78.0Y-79.5
X78.0Y-81.75
X78.0Y-128.2
X78.25Y-106.5
X78.9Y-133.1
X79.0Y-106.0
X79.25Y-53.75
X79.25Y-55.25
X79.25Y-56.75
X79.25Y-58.25
X79.25Y-59.75
X79.32Y-97.7
X79.5Y-71.0
X79.5Y-72.5
X79.5Y-76.0
X79.5Y-78.0
X79.5Y-79.5
X79.5Y-81.75
X79.7Y-101.5
X79.75Y-90.5
X79.75Y-105.5
X80.5Y-122.75
X80.7Y-102.8
X80.75Y-118.25
X81.0Y-71.0
X81.0Y-72.5
X81.0Y-76.0
X81.0Y-81.75
X81.0Y-109.25
X81.75Y-106.0
X81.75Y-108.75
X82.3Y-92.46
X82.5Y-71.0
X82.5Y-72.5
X82.5Y-76.0
X82.5Y-81.75
X82.5Y-108.25
X83.0Y-95.0
X83.125Y-104.25
X83.25Y-91.0
X83.25Y-107.0
X84.0Y-71.0
X84.0Y-72.5
X84.0Y-76.0
X84.0Y-81.75
X84.406Y-102.238
X84.5Y-106.6
X85.115Y-104.215
X85.25Y-98.5
X85.5Y-71.0
X85.5Y-72.5
X85.5Y-76.0
X85.5Y-81.75
X85.862Y-118.295
X86.15Y-123.587
X86.2Y-93.1
X86.25Y-95.5
X86.5Y-89.125
X86.5Y-90.0
X86.5Y-91.0
X87.0Y-71.0
X87.0Y-72.5
X87.0Y-76.0
X87.0Y-78.0
X87.0Y-79.5
X87.0Y-81.75
X87.5Y-126.25
X88.5Y-53.75
X88.5Y-55.25
X88.5Y-56.75
X88.5Y-58.25
X88.5Y-59.75
X88.5Y-71.0
X88.5Y-72.5
X88.5Y-76.0
X88.5Y-78.0
X88.5Y-79.5
X88.5Y-81.75
X88.95Y-92.5
X88.95Y-94.0
X88.95Y-95.5
X89.0Y-106.5
X89.75Y-88.5
X90.0Y-53.75
X90.0Y-55.25
X90.0Y-56.75
X90.0Y-58.25
X90.0Y-59.75
X90.0Y-71.0
X90.0Y-72.5
X90.0Y-76.0
X90.0Y-78.0
X90.0Y-79.5
X90.0Y-81.75
X90.13Y-95.38
X90.25Y-92.5
X90.25Y-94.0
X91.5Y-53.75
X91.5Y-55.25
X91.5Y-56.75
X91.5Y-58.25
X91.5Y-59.75
X91.63Y-93.88
X91.75Y-92.5
X91.87Y-95.62
X92.5Y-99.0
X92.63Y-95.13
X93.0Y-53.75
X93.0Y-55.25
X93.0Y-56.75
X93.0Y-58.25
X93.0Y-59.75
X93.0Y-92.5
X93.245Y-94.245
X93.25Y-117.75
X93.25Y-123.75
X93.352Y-120.648
X93.5Y-101.0
X94.0Y-82.0
X94.0Y-89.0
X94.5Y-53.75
X94.5Y-55.25
X94.5Y-56.75
X94.5Y-58.25
X94.5Y-59.75
X94.5Y-108.0
X94.75Y-85.75
X95.454Y-96.909
X95.483Y-98.35
X95.5Y-96.0
X95.75Y-94.0
X95.772Y-101.677
X96.0Y-53.75
X96.0Y-55.25
X96.0Y-56.75
X96.0Y-58.25
X96.0Y-59.75
X96.75Y-89.5
X96.764Y-96.309
X96.837Y-87.775
X97.5Y-53.75
X97.5Y-55.25
X97.5Y-56.75
X97.5Y-58.25
X97.5Y-59.75
X97.75Y-103.5
X98.0Y-90.75
X99.0Y-53.75
X99.0Y-55.25
X99.0Y-56.75
X99.0Y-58.25
X99.0Y-59.75
X99.212Y-117.75
X99.212Y-123.75
X99.237Y-122.292
X99.25Y-101.5
X99.25Y-130.75
X99.25Y-133.5
X100.0Y-99.5
X100.3Y-113.05
X101.8Y-96.4
X102.25Y-92.25
X103.5Y-132.9
X104.1Y-98.6
X105.0Y-53.75
X105.0Y-55.25
X105.0Y-56.75
X105.0Y-58.25
X105.0Y-59.75
X105.537Y-111.8
X105.58Y-103.13
X106.5Y-53.75
X106.5Y-55.25
X106.5Y-56.75
X106.5Y-58.25
X106.5Y-59.75
X107.4Y-95.8
X107.405Y-103.13
X108.0Y-53.75
X108.0Y-55.25
X108.0Y-56.75
X108.0Y-58.25
X108.0Y-59.75
X108.775Y-134.5
X109.5Y-53.75
X109.5Y-55.25
X109.5Y-56.75
X109.5Y-58.25
X109.5Y-59.75
X111.0Y-53.75
X111.0Y-55.25
X111.0Y-56.75
X111.0Y-58.25
X111.0Y-59.75
X112.5Y-53.75
X112.5Y-55.25
X112.5Y-56.75
X112.5Y-58.25
X112.5Y-59.75
X113.25Y-75.75
X113.25Y-77.25
X113.25Y-78.75
X113.25Y-80.25
X113.25Y-81.75
X114.0Y-53.75
X114.0Y-55.25
X114.0Y-56.75
X114.0Y-58.25
X114.0Y-59.75
X114.75Y-75.75
X114.75Y-77.25
X114.75Y-78.75
X114.75Y-80.25
X114.75Y-81.75
X115.5Y-53.75
X115.5Y-55.25
X115.5Y-56.75
X115.5Y-58.25
X115.5Y-59.75
X116.1Y-134.9
X116.25Y-75.75
X116.25Y-77.25
X116.25Y-78.75
X116.25Y-80.25
X116.25Y-81.75
X119.0Y-136.25
X121.0Y-66.5
X121.0Y-68.0
X121.0Y-69.5
X121.0Y-71.0
X121.0Y-72.5
X122.5Y-66.5
X122.5Y-68.0
X122.5Y-69.5
X122.5Y-71.0
X122.5Y-72.5
X124.0Y-66.5
X124.0Y-68.0
X124.0Y-69.5
X124.0Y-71.0
X124.0Y-72.5
X125.5Y-66.5
X125.5Y-68.0
X125.5Y-69.5
X125.5Y-71.0
X125.5Y-72.5
X127.0Y-66.5
X127.0Y-68.0
X127.0Y-69.5
X127.0Y-71.0
X127.0Y-72.5
T2
X67.609Y-65.725
X67.609Y-66.625
X67.609Y-67.525
X67.609Y-68.425
X68.509Y-65.725
X68.509Y-66.625
X68.509Y-67.525
X68.509Y-68.425
X69.409Y-65.725
X69.409Y-66.625
X69.409Y-67.525
X69.409Y-68.425
X70.309Y-65.725
X70.309Y-66.625
X70.309Y-67.525
X70.309Y-68.425
X71.209Y-65.725
X71.209Y-66.625
X71.209Y-67.525
X71.209Y-68.425
X76.97Y-66.625
X76.97Y-67.525
X76.97Y-68.425
X76.97Y-69.325
X77.87Y-66.625
X77.87Y-67.525
X77.87Y-68.425
X77.87Y-69.325
X78.77Y-66.625
X78.77Y-67.525
X78.77Y-68.425
X78.77Y-69.325
X79.67Y-66.625
X79.67Y-67.525
X79.67Y-68.425
X79.67Y-69.325
X80.57Y-66.625
X80.57Y-67.525
X80.57Y-68.425
X80.57Y-69.325
X85.988Y-66.625
X85.988Y-67.525
X85.988Y-68.425
X85.988Y-69.325
X86.888Y-66.625
X86.888Y-67.525
X86.888Y-68.425
X86.888Y-69.325
X87.788Y-66.625
X87.788Y-67.525
X87.788Y-68.425
X87.788Y-69.325
X88.688Y-66.625
X88.688Y-67.525
X88.688Y-68.425
X88.688Y-69.325
X89.588Y-66.625
X89.588Y-67.525
X89.588Y-68.425
X89.588Y-69.325
X94.949Y-65.725
X94.949Y-66.625
X94.949Y-67.525
X94.949Y-68.425
X95.849Y-65.725
X95.849Y-66.625
X95.849Y-67.525
X95.849Y-68.425
X96.749Y-65.725
X96.749Y-66.625
X96.749Y-67.525
X96.749Y-68.425
X97.649Y-65.725
X97.649Y-66.625
X97.649Y-67.525
X97.649Y-68.425
X98.549Y-65.725
X98.549Y-66.625
X98.549Y-67.525
X98.549Y-68.425
X104.449Y-65.725
X104.449Y-66.625
X104.449Y-67.525
X104.449Y-68.425
X105.349Y-65.725
X105.349Y-66.625
X105.349Y-67.525
X105.349Y-68.425
X106.249Y-65.725
X106.249Y-66.625
X106.249Y-67.525
X106.249Y-68.425
X107.149Y-65.725
X107.149Y-66.625
X107.149Y-67.525
X107.149Y-68.425
X108.049Y-65.725
X108.049Y-66.625
X108.049Y-67.525
X108.049Y-68.425
X113.809Y-66.625
X113.809Y-67.525
X113.809Y-68.425
X113.809Y-69.325
X114.709Y-66.625
X114.709Y-67.525
X114.709Y-68.425
X114.709Y-69.325
X115.609Y-66.625
X115.609Y-67.525
X115.609Y-68.425
X115.609Y-69.325
X116.509Y-66.625
X116.509Y-67.525
X116.509Y-68.425
X116.509Y-69.325
X117.409Y-66.625
X117.409Y-67.525
X117.409Y-68.425
X117.409Y-69.325
X129.8Y-66.8
X129.8Y-68.3
X129.8Y-69.8
X129.8Y-71.3
X129.8Y-72.8
X129.8Y-74.3
X129.8Y-75.8
X129.8Y-77.3
X129.8Y-80.5
X129.8Y-82.0
X129.8Y-83.5
X129.8Y-85.0
X129.8Y-86.5
X129.8Y-88.0
X129.8Y-89.5
X129.8Y-91.0
X131.3Y-66.8
X131.3Y-68.3
X131.3Y-69.8
X131.3Y-71.3
X131.3Y-72.8
X131.3Y-74.3
X131.3Y-75.8
X131.3Y-77.3
X131.3Y-80.5
X131.3Y-82.0
X131.3Y-83.5
X131.3Y-85.0
X131.3Y-86.5
X131.3Y-88.0
X131.3Y-89.5
X131.3Y-91.0
X132.8Y-66.8
X132.8Y-68.3
X132.8Y-69.8
X132.8Y-71.3
X132.8Y-72.8
X132.8Y-74.3
X132.8Y-75.8
X132.8Y-77.3
X132.8Y-80.5
X132.8Y-82.0
X132.8Y-83.5
X132.8Y-85.0
X132.8Y-86.5
X132.8Y-88.0
X132.8Y-89.5
X132.8Y-91.0
X134.3Y-66.8
X134.3Y-68.3
X134.3Y-69.8
X134.3Y-71.3
X134.3Y-72.8
X134.3Y-74.3
X134.3Y-75.8
X134.3Y-77.3
X134.3Y-80.5
X134.3Y-82.0
X134.3Y-83.5
X134.3Y-85.0
X134.3Y-86.5
X134.3Y-88.0
X134.3Y-89.5
X134.3Y-91.0
X135.8Y-66.8
X135.8Y-68.3
X135.8Y-69.8
X135.8Y-71.3
X135.8Y-72.8
X135.8Y-74.3
X135.8Y-75.8
X135.8Y-77.3
X135.8Y-80.5
X135.8Y-82.0
X135.8Y-83.5
X135.8Y-85.0
X135.8Y-86.5
X135.8Y-88.0
X135.8Y-89.5
X135.8Y-91.0
X137.3Y-66.8
X137.3Y-68.3
X137.3Y-69.8
X137.3Y-71.3
X137.3Y-72.8
X137.3Y-74.3
X137.3Y-75.8
X137.3Y-77.3
X137.3Y-80.5
X137.3Y-82.0
X137.3Y-83.5
X137.3Y-85.0
X137.3Y-86.5
X137.3Y-88.0
X137.3Y-89.5
X137.3Y-91.0
T3
X50.3Y-82.38
X50.3Y-84.92
X50.3Y-87.46
X50.3Y-90.0
T5
X106.75Y-92.75
X106.75Y-97.75
T6
X117.917Y-99.5
X117.917Y-118.5
X125.417Y-99.5
X125.417Y-118.5
T7
X53.0Y-120.5
X53.0Y-125.5
T4
G00X66.39Y-134.225
M15
G01X66.39Y-135.325
M16
G05
G00X66.39Y-138.555
M15
G01X66.39Y-139.355
M16
G05
G00X75.03Y-134.225
M15
G01X75.03Y-135.325
M16
G05
G00X75.03Y-138.555
M15
G01X75.03Y-139.355
M16
G05
M30
